<svg width="857" height="131" viewBox="0 0 857 131" fill="none" xmlns="http://www.w3.org/2000/svg">
<path fill-rule="evenodd" clip-rule="evenodd" d="M14.0684 64.4333V65.7237V65.717C14.0684 65.5038 14.0754 65.2906 14.0801 65.0797C14.0754 64.8665 14.0684 64.6533 14.0684 64.4401V64.4333ZM19.7778 63.8409C19.6066 63.2283 19.2502 62.6919 18.7461 62.306C18.2444 61.92 17.6324 61.7135 16.9993 61.7135C16.3686 61.7135 15.7543 61.92 15.2525 62.306C14.7484 62.6919 14.392 63.2283 14.2208 63.8409C14.1387 64.1327 14.1036 64.4267 14.0848 64.7251C14.0778 64.8441 14.0825 64.9608 14.0801 65.0797C14.0825 65.1964 14.0778 65.3153 14.0848 65.432C14.1036 65.7327 14.1387 66.0245 14.2208 66.3162C14.392 66.9288 14.7484 67.4652 15.2525 67.8512C15.7543 68.2372 16.3686 68.4459 16.9993 68.4459C17.6324 68.4459 18.2444 68.2372 18.7461 67.8512C19.2502 67.4652 19.6066 66.9288 19.7778 66.3162C19.8599 66.0245 19.8951 65.7327 19.9138 65.432C19.9208 65.3153 19.9162 65.1964 19.9185 65.0797C19.9162 64.9608 19.9208 64.8441 19.9138 64.7251C19.8951 64.4267 19.8599 64.1327 19.7778 63.8409ZM19.9185 65.0797C19.9232 65.2906 19.9302 65.5038 19.9302 65.717V65.7237V64.4333V64.4401C19.9302 64.6533 19.9232 64.8665 19.9185 65.0797ZM33.8462 63.8409C33.6751 63.2283 33.3187 62.6919 32.8146 62.306C32.3128 61.92 31.7008 61.7135 31.0677 61.7135C30.437 61.7135 29.8227 61.92 29.3209 62.306C28.8168 62.6919 28.4604 63.2283 28.2892 63.8409C28.2072 64.1327 28.172 64.4267 28.1532 64.7251C28.1462 64.8441 28.1509 64.9608 28.1485 65.0797C28.1509 65.1964 28.1462 65.3153 28.1532 65.432C28.172 65.7327 28.2072 66.0245 28.2892 66.3162C28.4604 66.9288 28.8168 67.4652 29.3209 67.8512C29.8227 68.2372 30.437 68.4459 31.0677 68.4459C31.7008 68.4459 32.3128 68.2372 32.8146 67.8512C33.3187 67.4652 33.6751 66.9288 33.8462 66.3162C33.9283 66.0245 33.9635 65.7327 33.9822 65.432C33.9893 65.3153 33.9846 65.1964 33.9869 65.0797C33.9846 64.9608 33.9893 64.8441 33.9822 64.7251C33.9635 64.4267 33.9283 64.1327 33.8462 63.8409ZM33.9986 65.7169V64.4399C33.9986 64.6531 33.9916 64.8663 33.9869 65.0795C33.9916 65.2905 33.9986 65.5037 33.9986 65.7169ZM28.1368 64.4333V65.7237V65.717C28.1368 65.5038 28.1438 65.2906 28.1485 65.0797C28.1438 64.8665 28.1368 64.6533 28.1368 64.4401V64.4333ZM48.0506 62.4809C48.0319 62.1824 47.9967 61.8884 47.9146 61.5967C47.7435 60.984 47.3871 60.4477 46.8829 60.0617C46.3812 59.6757 45.7692 59.4692 45.1361 59.4692C44.5054 59.4692 43.8911 59.6757 43.3893 60.0617C42.8852 60.4477 42.5288 60.984 42.3576 61.5967C42.2755 61.8884 42.2404 62.1824 42.2216 62.4809C42.2052 62.813 42.2052 63.1429 42.2052 63.4728V63.4795V66.6774V66.6841C42.2052 67.014 42.2052 67.3439 42.2216 67.676C42.2404 67.9767 42.2755 68.2685 42.3576 68.5602C42.5288 69.1728 42.8852 69.7092 43.3893 70.0952C43.8911 70.4812 44.5054 70.6899 45.1361 70.6899C45.7692 70.6899 46.3812 70.4812 46.8829 70.0952C47.3871 69.7092 47.7435 69.1728 47.9146 68.5602C47.9967 68.2685 48.0319 67.9767 48.0506 67.676C48.067 67.3439 48.067 67.014 48.067 66.6841V66.6774V63.4795V63.4728C48.067 63.1429 48.067 62.813 48.0506 62.4809ZM56.2736 63.318V66.839C56.2736 66.5091 56.2736 66.1793 56.29 65.8471C56.3064 65.5868 56.3462 65.3332 56.4072 65.0796C56.3462 64.8238 56.3064 64.5702 56.29 64.3099C56.2736 63.9778 56.2736 63.6479 56.2736 63.318ZM60.9513 63.428C60.4496 63.042 59.8376 62.8356 59.2045 62.8356C58.5738 62.8356 57.9595 63.042 57.4577 63.428C56.9536 63.814 56.5972 64.3504 56.426 64.963C56.4166 65.0012 56.4166 65.0415 56.4072 65.0797C56.4166 65.1179 56.4166 65.156 56.426 65.1941C56.5972 65.8068 56.9536 66.3431 57.4577 66.7291C57.9595 67.1151 58.5738 67.3238 59.2045 67.3238C59.8376 67.3238 60.4496 67.1151 60.9513 66.7291C61.4555 66.3431 61.8119 65.8068 61.983 65.1941C61.9924 65.156 61.9924 65.1179 62.0018 65.0797C61.9924 65.0415 61.9924 65.0012 61.983 64.963C61.8119 64.3504 61.4555 63.814 60.9513 63.428ZM62.0017 65.0796C62.0627 65.3332 62.1026 65.5868 62.119 65.8471C62.1354 66.1793 62.1354 66.5091 62.1354 66.839V63.318C62.1354 63.6479 62.1354 63.9778 62.119 64.3099C62.1026 64.5702 62.0627 64.8238 62.0017 65.0796ZM74.879 61.5967C74.7079 60.984 74.3515 60.4477 73.8473 60.0617C73.3456 59.6757 72.7336 59.4692 72.1005 59.4692C71.4698 59.4692 70.8555 59.6757 70.3537 60.0617C69.8496 60.4477 69.4932 60.984 69.322 61.5967C69.2399 61.8884 69.2048 62.1824 69.186 62.4809C69.1696 62.813 69.1696 63.1429 69.1696 63.4728V66.6841C69.1696 67.014 69.1696 67.3439 69.186 67.676C69.2048 67.9767 69.2399 68.2685 69.322 68.5602C69.4932 69.1728 69.8496 69.7092 70.3537 70.0952C70.8555 70.4812 71.4698 70.6899 72.1005 70.6899C72.7336 70.6899 73.3456 70.4812 73.8473 70.0952C74.3515 69.7092 74.7079 69.1728 74.879 68.5602C74.9611 68.2685 74.9963 67.9767 75.015 67.676C75.0314 67.3439 75.0314 67.014 75.0314 66.6841V63.4728C75.0314 63.1429 75.0314 62.813 75.015 62.4809C74.9963 62.1824 74.9611 61.8884 74.879 61.5967ZM89.0834 61.3589C89.0647 61.0604 89.0295 60.7665 88.9474 60.4747C88.7763 59.8621 88.4199 59.3257 87.9157 58.9397C87.414 58.5537 86.802 58.3473 86.1689 58.3473C85.5382 58.3473 84.9239 58.5537 84.4221 58.9397C83.918 59.3257 83.5616 59.8621 83.3904 60.4747C83.3083 60.7665 83.2732 61.0604 83.2544 61.3589C83.238 61.691 83.238 62.0209 83.238 62.3508V62.3575V67.7995V67.8063C83.238 68.1362 83.238 68.4661 83.2544 68.7982C83.2732 69.0989 83.3083 69.3906 83.3904 69.6824C83.5616 70.295 83.918 70.8314 84.4221 71.2174C84.9239 71.6033 85.5382 71.812 86.1689 71.812C86.802 71.812 87.414 71.6033 87.9157 71.2174C88.4199 70.8314 88.7763 70.295 88.9474 69.6824C89.0295 69.3906 89.0647 69.0989 89.0834 68.7982C89.0998 68.4661 89.0998 68.1362 89.0998 67.8063V67.7995V62.3575V62.3508C89.0998 62.0209 89.0998 61.691 89.0834 61.3589ZM103.016 48.1318C102.845 47.5192 102.488 46.9828 101.984 46.5968C101.482 46.2109 100.87 46.0044 100.237 46.0044C99.6066 46.0044 98.9923 46.2109 98.4905 46.5968C97.9864 46.9828 97.63 47.5192 97.4588 48.1318C97.3767 48.4236 97.3416 48.7175 97.3228 49.016C97.3064 49.3481 97.3064 49.678 97.3064 50.0079V80.1488C97.3064 80.4787 97.3064 80.8085 97.3228 81.1407C97.3416 81.4414 97.3767 81.7331 97.4588 82.0226C97.63 82.6375 97.9864 83.1739 98.4905 83.5599C98.9923 83.9458 99.6066 84.1545 100.237 84.1545C100.87 84.1545 101.482 83.9458 101.984 83.5599C102.488 83.1739 102.845 82.6375 103.016 82.0226C103.098 81.7331 103.133 81.4414 103.152 81.1407C103.168 80.8085 103.168 80.4787 103.168 80.1488V50.0079C103.168 49.678 103.168 49.3481 103.152 49.016C103.133 48.7175 103.098 48.4236 103.016 48.1318ZM117.22 59.1146C117.201 58.8162 117.166 58.5222 117.084 58.2305C116.913 57.6178 116.557 57.0815 116.053 56.6955C115.551 56.3095 114.939 56.103 114.306 56.103C113.675 56.103 113.061 56.3095 112.559 56.6955C112.055 57.0815 111.698 57.6178 111.527 58.2305C111.445 58.5222 111.41 58.8162 111.391 59.1146C111.375 59.4468 111.375 59.7767 111.375 60.1065V60.1133V68.9215V68.9282C111.375 69.2581 111.375 70.71 111.391 71.0422C111.41 71.3429 111.445 71.6346 111.527 71.9264C111.698 72.539 112.055 73.0754 112.559 73.4613C113.061 73.8473 113.675 74.056 114.306 74.056C114.939 74.056 115.551 73.8473 116.053 73.4613C116.557 73.0754 116.913 72.539 117.084 71.9264C117.166 71.6346 117.201 71.3429 117.22 71.0422C117.237 70.71 117.237 69.2581 117.237 68.9282V68.9215V60.1133V60.1065C117.237 59.7767 117.237 59.4468 117.22 59.1146ZM131.289 45.65C131.27 45.3516 131.235 45.0576 131.153 44.7659C130.981 44.1532 130.625 43.6169 130.121 43.2309C129.619 42.8449 129.007 42.6384 128.374 42.6384C127.743 42.6384 127.129 42.8449 126.627 43.2309C126.123 43.6169 125.767 44.1532 125.596 44.7659C125.514 45.0576 125.478 45.3516 125.46 45.65C125.443 45.9822 125.443 46.3121 125.443 46.6419V46.6487V83.5085V83.5152C125.443 83.8473 125.443 84.175 125.46 84.5071C125.478 84.8078 125.514 85.0995 125.596 85.389C125.767 86.0039 126.123 86.5403 126.627 86.9263C127.129 87.3122 127.743 87.521 128.374 87.521C129.007 87.521 129.619 87.3122 130.121 86.9263C130.625 86.5403 130.981 86.0039 131.153 85.389C131.235 85.0995 131.27 84.8078 131.289 84.5071C131.305 84.175 131.305 83.8473 131.305 83.5152V83.5085V46.6487V46.6419C131.305 46.3121 131.305 45.9822 131.289 45.65ZM145.357 42.2838C145.338 41.9854 145.303 41.6914 145.221 41.3996C145.05 40.787 144.693 40.2507 144.189 39.8647C143.688 39.4787 143.076 39.2722 142.443 39.2722C141.812 39.2722 141.197 39.4787 140.696 39.8647C140.192 40.2507 139.835 40.787 139.664 41.3996C139.582 41.6914 139.547 41.9854 139.528 42.2838C139.512 42.616 139.512 42.9459 139.512 43.2757V43.2825V86.8746V86.8814C139.512 87.2135 139.512 87.5411 139.528 87.8733C139.547 88.174 139.582 88.4657 139.664 88.7552C139.835 89.3701 140.192 89.9064 140.696 90.2924C141.197 90.6784 141.812 90.8871 142.443 90.8871C143.076 90.8871 143.688 90.6784 144.189 90.2924C144.693 89.9064 145.05 89.3701 145.221 88.7552C145.303 88.4657 145.338 88.174 145.357 87.8733C145.373 87.5411 145.373 87.2135 145.373 86.8814V86.8746V43.2825V43.2757C145.373 42.9459 145.373 42.616 145.357 42.2838ZM159.425 59.1146C159.407 58.8162 159.372 58.5222 159.289 58.2305C159.118 57.6178 158.762 57.0815 158.258 56.6955C157.756 56.3095 157.144 56.103 156.511 56.103C155.88 56.103 155.266 56.3095 154.764 56.6955C154.26 57.0815 153.904 57.6178 153.732 58.2305C153.65 58.5222 153.615 58.8162 153.596 59.1146C153.58 59.4468 153.58 59.7767 153.58 60.1065V60.1133V70.0435V70.0503C153.58 70.3802 153.58 70.71 153.596 71.0422C153.615 71.3429 153.65 71.6346 153.732 71.9264C153.904 72.539 154.26 73.0754 154.764 73.4613C155.266 73.8473 155.88 74.056 156.511 74.056C157.144 74.056 157.756 73.8473 158.258 73.4613C158.762 73.0754 159.118 72.539 159.289 71.9264C159.372 71.6346 159.407 71.3429 159.425 71.0422C159.442 70.71 159.442 70.3802 159.442 70.0503V70.0435V60.1133V60.1065C159.442 59.7767 159.442 59.4468 159.425 59.1146ZM173.358 32.4232C173.187 31.8106 172.83 31.2742 172.326 30.8882C171.824 30.5022 171.212 30.2958 170.579 30.2958C169.949 30.2958 169.334 30.5022 168.833 30.8882C168.328 31.2742 167.972 31.8106 167.801 32.4232C167.719 32.7149 167.684 33.0089 167.665 33.3074C167.648 33.6395 167.648 33.9694 167.648 34.2993V95.8579C167.648 96.1901 167.648 96.5177 167.665 96.8498C167.684 97.1505 167.719 97.4423 167.801 97.7318C167.972 98.3467 168.328 98.883 168.833 99.269C169.334 99.655 169.949 99.8637 170.579 99.8637C171.212 99.8637 171.824 99.655 172.326 99.269C172.83 98.883 173.187 98.3467 173.358 97.7318C173.44 97.4423 173.475 97.1505 173.494 96.8498C173.51 96.5177 173.51 96.1901 173.51 95.8579V34.2993C173.51 33.9694 173.51 33.6395 173.494 33.3074C173.475 33.0089 173.44 32.7149 173.358 32.4232ZM187.562 54.6264C187.543 54.3279 187.508 54.0339 187.426 53.7422C187.255 53.1295 186.899 52.5932 186.395 52.2072C185.893 51.8212 185.281 51.6147 184.648 51.6147C184.017 51.6147 183.403 51.8212 182.901 52.2072C182.397 52.5932 182.04 53.1295 181.869 53.7422C181.787 54.0339 181.752 54.3279 181.733 54.6264C181.717 54.9585 181.717 55.2884 181.717 55.6183V55.625V74.5318V74.5385C181.717 74.8684 181.717 75.1983 181.733 75.5304C181.752 75.8311 181.787 76.1228 181.869 76.4146C182.04 77.0272 182.397 77.5636 182.901 77.9496C183.403 78.3356 184.017 78.5443 184.648 78.5443C185.281 78.5443 185.893 78.3356 186.395 77.9496C186.899 77.5636 187.255 77.0272 187.426 76.4146C187.508 76.1228 187.543 75.8311 187.562 75.5304C187.579 75.1983 187.579 74.8684 187.579 74.5385V74.5318V55.625V55.6183C187.579 55.2884 187.579 54.9585 187.562 54.6264ZM201.495 45.8879C201.323 45.2753 200.967 44.7389 200.463 44.3529C199.961 43.967 199.349 43.7605 198.716 43.7605C198.085 43.7605 197.471 43.967 196.969 44.3529C196.465 44.7389 196.109 45.2753 195.938 45.8879C195.856 46.1797 195.82 46.4736 195.802 46.7721C195.785 47.1042 195.785 47.4341 195.785 47.764V82.3931C195.785 82.7253 195.785 83.0529 195.802 83.385C195.82 83.6857 195.856 83.9775 195.938 84.267C196.109 84.8819 196.465 85.4182 196.969 85.8042C197.471 86.1902 198.085 86.3989 198.716 86.3989C199.349 86.3989 199.961 86.1902 200.463 85.8042C200.967 85.4182 201.323 84.8819 201.495 84.267C201.577 83.9775 201.612 83.6857 201.631 83.385C201.647 83.0529 201.647 82.7253 201.647 82.3931V47.764C201.647 47.4341 201.647 47.1042 201.631 46.7721C201.612 46.4736 201.577 46.1797 201.495 45.8879ZM214.391 62.7187C214.219 62.1061 213.863 61.5697 213.359 61.1838C212.857 60.7978 212.245 60.5913 211.612 60.5913C210.981 60.5913 210.367 60.7978 209.865 61.1838C209.361 61.5697 209.005 62.1061 208.834 62.7187C208.752 63.0105 208.716 63.3045 208.698 63.6029C208.681 63.9351 208.681 64.2649 208.681 64.5948V65.562C208.681 65.8919 208.681 66.2218 208.698 66.554C208.716 66.8547 208.752 67.1464 208.834 67.4381C209.005 68.0508 209.361 68.5871 209.865 68.9731C210.367 69.3591 210.981 69.5678 211.612 69.5678C212.245 69.5678 212.857 69.3591 213.359 68.9731C213.863 68.5871 214.219 68.0508 214.391 67.4381C214.473 67.1464 214.508 66.8547 214.527 66.554C214.543 66.2218 214.543 65.8919 214.543 65.562V64.5948C214.543 64.2649 214.543 63.9351 214.527 63.6029C214.508 63.3045 214.473 63.0105 214.391 62.7187ZM228.595 36.6735C228.576 36.375 228.541 36.081 228.459 35.7893C228.288 35.1767 227.932 34.6403 227.427 34.2543C226.926 33.8683 226.314 33.6619 225.681 33.6619C225.05 33.6619 224.436 33.8683 223.934 34.2543C223.43 34.6403 223.073 35.1767 222.902 35.7893C222.82 36.081 222.785 36.375 222.766 36.6735C222.75 37.0056 222.75 37.3355 222.75 37.6654V37.6721V92.4849V92.4916C222.75 92.8238 222.75 93.1514 222.766 93.4835C222.785 93.7842 222.82 94.076 222.902 94.3655C223.073 94.9804 223.43 95.5167 223.934 95.9027C224.436 96.2887 225.05 96.4974 225.681 96.4974C226.314 96.4974 226.926 96.2887 227.427 95.9027C227.932 95.5167 228.288 94.9804 228.459 94.3655C228.541 94.076 228.576 93.7842 228.595 93.4835C228.611 93.1514 228.611 92.8238 228.611 92.4916V92.4849V37.6721V37.6654C228.611 37.3355 228.611 37.0056 228.595 36.6735ZM242.527 22.3246C242.356 21.7119 242 21.1756 241.496 20.7896C240.994 20.4036 240.382 20.1971 239.749 20.1971C239.118 20.1971 238.504 20.4036 238.002 20.7896C237.498 21.1756 237.142 21.7119 236.97 22.3246C236.888 22.6163 236.853 22.9103 236.834 23.2088C236.818 23.5409 236.818 23.8708 236.818 24.2007V24.2074V105.95V105.956C236.818 106.289 236.818 106.616 236.834 106.948C236.853 107.249 236.888 107.541 236.97 107.83C237.142 108.445 237.498 108.982 238.002 109.367C238.504 109.753 239.118 109.962 239.749 109.962C240.382 109.962 240.994 109.753 241.496 109.367C242 108.982 242.356 108.445 242.527 107.83C242.61 107.541 242.645 107.249 242.663 106.948C242.68 106.616 242.68 106.289 242.68 105.956V24.2007C242.68 23.8708 242.68 23.5409 242.663 23.2088C242.645 22.9103 242.61 22.6163 242.527 22.3246ZM256.732 29.9409C256.713 29.6425 256.678 29.3485 256.596 29.0568C256.425 28.4441 256.068 27.9078 255.564 27.5218C255.062 27.1358 254.45 26.9293 253.817 26.9293C253.187 26.9293 252.572 27.1358 252.071 27.5218C251.566 27.9078 251.21 28.4441 251.039 29.0568C250.957 29.3485 250.922 29.6425 250.903 29.9409C250.886 30.2731 250.886 30.603 250.886 30.9328V30.9396V99.2171V99.2239C250.886 99.556 250.886 99.8836 250.903 100.216C250.922 100.516 250.957 100.808 251.039 101.098C251.21 101.713 251.566 102.249 252.071 102.635C252.572 103.021 253.187 103.23 253.817 103.23C254.45 103.23 255.062 103.021 255.564 102.635C256.068 102.249 256.425 101.713 256.596 101.098C256.678 100.808 256.713 100.516 256.732 100.216C256.748 99.8836 256.748 99.556 256.748 99.2239V99.2171V30.9396V30.9328C256.748 30.603 256.748 30.2731 256.732 29.9409ZM270.8 45.65C270.781 45.3516 270.746 45.0576 270.664 44.7659C270.493 44.1532 270.137 43.6169 269.633 43.2309C269.131 42.8449 268.519 42.6384 267.886 42.6384C267.255 42.6384 266.641 42.8449 266.139 43.2309C265.635 43.6169 265.278 44.1532 265.107 44.7659C265.025 45.0576 264.99 45.3516 264.971 45.65C264.955 45.9822 264.955 46.3121 264.955 46.6419V46.6487V83.5085V83.5152C264.955 83.8473 264.955 84.175 264.971 84.5071C264.99 84.8078 265.025 85.0995 265.107 85.389C265.278 86.0039 265.635 86.5403 266.139 86.9263C266.641 87.3122 267.255 87.521 267.886 87.521C268.519 87.521 269.131 87.3122 269.633 86.9263C270.137 86.5403 270.493 86.0039 270.664 85.389C270.746 85.0995 270.781 84.8078 270.8 84.5071C270.817 84.175 270.817 83.8473 270.817 83.5152V83.5085V46.6487V46.6419C270.817 46.3121 270.817 45.9822 270.8 45.65ZM284.733 29.0568C284.562 28.4441 284.205 27.9078 283.701 27.5218C283.199 27.1358 282.587 26.9293 281.954 26.9293C281.323 26.9293 280.709 27.1358 280.207 27.5218C279.703 27.9078 279.347 28.4441 279.176 29.0568C279.094 29.3485 279.058 29.6425 279.04 29.9409C279.023 30.2731 279.023 30.603 279.023 30.9328V30.9396V99.2171V99.2239C279.023 99.556 279.023 99.8836 279.04 100.216C279.058 100.516 279.094 100.808 279.176 101.098C279.347 101.713 279.703 102.249 280.207 102.635C280.709 103.021 281.323 103.23 281.954 103.23C282.587 103.23 283.199 103.021 283.701 102.635C284.205 102.249 284.562 101.713 284.733 101.098C284.815 100.808 284.85 100.516 284.869 100.216C284.885 99.8836 284.885 99.556 284.885 99.2239V30.9328C284.885 30.603 284.885 30.2731 284.869 29.9409C284.85 29.6425 284.815 29.3485 284.733 29.0568ZM298.937 34.4292C298.918 34.1308 298.883 33.8368 298.801 33.545C298.63 32.9324 298.273 32.396 297.769 32.0101C297.268 31.6241 296.656 31.4176 296.023 31.4176C295.392 31.4176 294.777 31.6241 294.276 32.0101C293.772 32.396 293.415 32.9324 293.244 33.545C293.162 33.8368 293.127 34.1308 293.108 34.4292C293.092 34.7614 293.092 35.0912 293.092 35.4211V35.4279V94.7289V94.7356C293.092 95.0678 293.092 95.3954 293.108 95.7275C293.127 96.0282 293.162 96.32 293.244 96.6095C293.415 97.2244 293.772 97.7607 294.276 98.1467C294.777 98.5327 295.392 98.7414 296.023 98.7414C296.656 98.7414 297.268 98.5327 297.769 98.1467C298.273 97.7607 298.63 97.2244 298.801 96.6095C298.883 96.32 298.918 96.0282 298.937 95.7275C298.953 95.3954 298.953 95.0678 298.953 94.7356V94.7289V35.4279V35.4211C298.953 35.0912 298.953 34.7614 298.937 34.4292ZM312.869 53.7422C312.698 53.1295 312.342 52.5932 311.838 52.2072C311.336 51.8212 310.724 51.6147 310.091 51.6147C309.46 51.6147 308.846 51.8212 308.344 52.2072C307.84 52.5932 307.484 53.1295 307.312 53.7422C307.23 54.0339 307.195 54.3279 307.176 54.6264C307.16 54.9585 307.16 55.2884 307.16 55.6183V74.5385C307.16 74.8684 307.16 75.1983 307.176 75.5304C307.195 75.8311 307.23 76.1228 307.312 76.4146C307.484 77.0272 307.84 77.5636 308.344 77.9496C308.846 78.3356 309.46 78.5443 310.091 78.5443C310.724 78.5443 311.336 78.3356 311.838 77.9496C312.342 77.5636 312.698 77.0272 312.869 76.4146C312.952 76.1228 312.987 75.8311 313.005 75.5304C313.022 75.1983 313.022 74.8684 313.022 74.5385V55.6183C313.022 55.2884 313.022 54.9585 313.005 54.6264C312.987 54.3279 312.952 54.0339 312.869 53.7422ZM327.074 50.1381C327.055 49.8396 327.02 49.5456 326.938 49.2539C326.767 48.6413 326.41 48.1049 325.906 47.7189C325.404 47.3329 324.792 47.1265 324.159 47.1265C323.529 47.1265 322.914 47.3329 322.413 47.7189C321.908 48.1049 321.552 48.6413 321.381 49.2539C321.299 49.5456 321.264 49.8396 321.245 50.1381C321.228 50.4702 321.228 50.8001 321.228 51.13V51.1367V79.02V79.0267C321.228 79.3566 321.228 79.6865 321.245 80.0186C321.264 80.3193 321.299 80.6111 321.381 80.9006C321.552 81.5155 321.908 82.0518 322.413 82.4378C322.914 82.8238 323.529 83.0325 324.159 83.0325C324.792 83.0325 325.404 82.8238 325.906 82.4378C326.41 82.0518 326.767 81.5155 326.938 80.9006C327.02 80.6111 327.055 80.3193 327.074 80.0186C327.09 79.6865 327.09 79.3566 327.09 79.0267V79.02V51.1367V51.13C327.09 50.8001 327.09 50.4702 327.074 50.1381ZM341.006 55.9863C340.835 55.3737 340.479 54.8373 339.975 54.4513C339.473 54.0653 338.861 53.8589 338.228 53.8589C337.597 53.8589 336.983 54.0653 336.481 54.4513C335.977 54.8373 335.62 55.3737 335.449 55.9863C335.367 56.2781 335.332 56.572 335.313 56.8705C335.297 57.2026 335.297 57.5325 335.297 57.8624V72.2944C335.297 72.6243 335.297 72.9542 335.313 73.2863C335.332 73.587 335.367 73.8787 335.449 74.1705C335.62 74.7831 335.977 75.3195 336.481 75.7055C336.983 76.0914 337.597 76.3001 338.228 76.3001C338.861 76.3001 339.473 76.0914 339.975 75.7055C340.479 75.3195 340.835 74.7831 341.006 74.1705C341.088 73.8787 341.123 73.587 341.142 73.2863C341.159 72.9542 341.159 72.6243 341.159 72.2944V57.8624C341.159 57.5325 341.159 57.2026 341.142 56.8705C341.123 56.572 341.088 56.2781 341.006 55.9863ZM355.211 61.3589C355.192 61.0604 355.157 60.7665 355.075 60.4747C354.904 59.8621 354.547 59.3257 354.043 58.9397C353.541 58.5537 352.929 58.3473 352.296 58.3473C351.665 58.3473 351.051 58.5537 350.549 58.9397C350.045 59.3257 349.689 59.8621 349.518 60.4747C349.436 60.7665 349.4 61.0604 349.382 61.3589C349.365 61.691 349.365 62.0209 349.365 62.3508V62.3575V67.7995V67.8063C349.365 68.1362 349.365 68.4661 349.382 68.7982C349.4 69.0989 349.436 69.3906 349.518 69.6824C349.689 70.295 350.045 70.8314 350.549 71.2174C351.051 71.6033 351.665 71.812 352.296 71.812C352.929 71.812 353.541 71.6033 354.043 71.2174C354.547 70.8314 354.904 70.295 355.075 69.6824C355.157 69.3906 355.192 69.0989 355.211 68.7982C355.227 68.4661 355.227 68.1362 355.227 67.8063V67.7995V62.3575V62.3508C355.227 62.0209 355.227 61.691 355.211 61.3589ZM368.107 23.2088C368.088 22.9103 368.053 22.6163 367.971 22.3246C367.8 21.7119 367.443 21.1756 366.939 20.7896C366.437 20.4036 365.825 20.1971 365.192 20.1971C364.561 20.1971 363.947 20.4036 363.445 20.7896C362.941 21.1756 362.585 21.7119 362.414 22.3246C362.332 22.6163 362.296 22.9103 362.278 23.2088C362.261 23.5409 362.261 23.8708 362.261 24.2007V24.2074V105.95V105.956C362.261 106.289 362.261 106.616 362.278 106.948C362.296 107.249 362.332 107.541 362.414 107.83C362.585 108.445 362.941 108.982 363.445 109.367C363.947 109.753 364.561 109.962 365.192 109.962C365.825 109.962 366.437 109.753 366.939 109.367C367.443 108.982 367.8 108.445 367.971 107.83C368.053 107.541 368.088 107.249 368.107 106.948C368.123 106.616 368.123 106.289 368.123 105.956V105.95V24.2074V24.2007C368.123 23.8708 368.123 23.5409 368.107 23.2088ZM382.175 7.49965C382.156 7.20119 382.121 6.90721 382.039 6.61547C381.868 6.00282 381.512 5.46648 381.007 5.08049C380.506 4.6945 379.894 4.48804 379.261 4.48804C378.63 4.48804 378.016 4.6945 377.514 5.08049C377.01 5.46648 376.653 6.00282 376.482 6.61547C376.4 6.90721 376.365 7.20119 376.346 7.49965C376.33 7.83179 376.33 8.16167 376.33 8.49156V8.49829V121.658V121.665C376.33 121.997 376.33 122.325 376.346 122.657C376.365 122.958 376.4 123.249 376.482 123.539C376.653 124.154 377.01 124.69 377.514 125.076C378.016 125.462 378.63 125.671 379.261 125.671C379.894 125.671 380.506 125.462 381.007 125.076C381.512 124.69 381.868 124.154 382.039 123.539C382.121 123.249 382.156 122.958 382.175 122.657C382.192 122.325 382.192 121.997 382.192 121.665V121.658V8.49829V8.49156C382.192 8.16167 382.192 7.83179 382.175 7.49965ZM396.107 27.9347C395.936 27.322 395.58 26.7857 395.076 26.3997C394.574 26.0137 393.962 25.8073 393.329 25.8073C392.698 25.8073 392.084 26.0137 391.582 26.3997C391.078 26.7857 390.722 27.322 390.55 27.9347C390.468 28.2264 390.433 28.5204 390.414 28.8189C390.398 29.151 390.398 29.4809 390.398 29.8108V29.8175V100.339V100.346C390.398 100.678 390.398 101.006 390.414 101.338C390.433 101.639 390.468 101.93 390.55 102.22C390.722 102.835 391.078 103.371 391.582 103.757C392.084 104.143 392.698 104.352 393.329 104.352C393.962 104.352 394.574 104.143 395.076 103.757C395.58 103.371 395.936 102.835 396.107 102.22C396.19 101.93 396.225 101.639 396.243 101.338C396.26 101.006 396.26 100.678 396.26 100.346V29.8108C396.26 29.4809 396.26 29.151 396.243 28.8189C396.225 28.5204 396.19 28.2264 396.107 27.9347ZM410.312 35.5513C410.293 35.2528 410.258 34.9588 410.176 34.6671C410.005 34.0545 409.648 33.5181 409.144 33.1321C408.642 32.7461 408.03 32.5397 407.397 32.5397C406.767 32.5397 406.152 32.7461 405.651 33.1321C405.146 33.5181 404.79 34.0545 404.619 34.6671C404.537 34.9588 404.502 35.2528 404.483 35.5513C404.466 35.8834 404.466 36.2133 404.466 36.5432V36.5499V93.6068V93.6136C404.466 93.9457 404.466 94.2733 404.483 94.6055C404.502 94.9062 404.537 95.1979 404.619 95.4874C404.79 96.1023 405.146 96.6386 405.651 97.0246C406.152 97.4106 406.767 97.6193 407.397 97.6193C408.03 97.6193 408.642 97.4106 409.144 97.0246C409.648 96.6386 410.005 96.1023 410.176 95.4874C410.258 95.1979 410.293 94.9062 410.312 94.6055C410.328 94.2733 410.328 93.9457 410.328 93.6136V93.6068V36.5499V36.5432C410.328 36.2133 410.328 35.8834 410.312 35.5513ZM424.244 8.85985C424.073 8.24721 423.717 7.71086 423.213 7.32487C422.711 6.93888 422.099 6.73242 421.466 6.73242C420.835 6.73242 420.221 6.93888 419.719 7.32487C419.215 7.71086 418.858 8.24721 418.687 8.85985C418.605 9.15159 418.57 9.44557 418.551 9.74404C418.535 10.0762 418.535 10.4061 418.535 10.7359V119.421C418.535 119.753 418.535 120.081 418.551 120.413C418.57 120.714 418.605 121.006 418.687 121.295C418.858 121.91 419.215 122.446 419.719 122.832C420.221 123.218 420.835 123.427 421.466 123.427C422.099 123.427 422.711 123.218 423.213 122.832C423.717 122.446 424.073 121.91 424.244 121.295C424.326 121.006 424.362 120.714 424.38 120.413C424.397 120.081 424.397 119.753 424.397 119.421V10.7359C424.397 10.4061 424.397 10.0762 424.38 9.74404C424.362 9.44557 424.326 9.15159 424.244 8.85985ZM438.449 7.49965C438.43 7.20119 438.395 6.90721 438.313 6.61547C438.142 6.00282 437.785 5.46648 437.281 5.08049C436.779 4.6945 436.167 4.48804 435.534 4.48804C434.903 4.48804 434.289 4.6945 433.787 5.08049C433.283 5.46648 432.927 6.00282 432.756 6.61547C432.674 6.90721 432.638 7.20119 432.62 7.49965C432.603 7.83179 432.603 8.16167 432.603 8.49156V8.49829V121.658V121.665C432.603 121.997 432.603 122.325 432.62 122.657C432.638 122.958 432.674 123.249 432.756 123.539C432.927 124.154 433.283 124.69 433.787 125.076C434.289 125.462 434.903 125.671 435.534 125.671C436.167 125.671 436.779 125.462 437.281 125.076C437.785 124.69 438.142 124.154 438.313 123.539C438.395 123.249 438.43 122.958 438.449 122.657C438.465 122.325 438.465 121.997 438.465 121.665V121.658V8.49829V8.49156C438.465 8.16167 438.465 7.83179 438.449 7.49965ZM452.381 48.1318C452.21 47.5192 451.854 46.9828 451.349 46.5968C450.848 46.2109 450.236 46.0044 449.603 46.0044C448.972 46.0044 448.358 46.2109 447.856 46.5968C447.352 46.9828 446.995 47.5192 446.824 48.1318C446.742 48.4236 446.707 48.7175 446.688 49.016C446.672 49.3481 446.672 49.678 446.672 50.0079V80.1488C446.672 80.4787 446.672 80.8085 446.688 81.1407C446.707 81.4414 446.742 81.7331 446.824 82.0226C446.995 82.6375 447.352 83.1739 447.856 83.5599C448.358 83.9458 448.972 84.1545 449.603 84.1545C450.236 84.1545 450.848 83.9458 451.349 83.5599C451.854 83.1739 452.21 82.6375 452.381 82.0226C452.463 81.7331 452.498 81.4414 452.517 81.1407C452.534 80.8085 452.534 80.4787 452.534 80.1488V50.0079C452.534 49.678 452.534 49.3481 452.517 49.016C452.498 48.7175 452.463 48.4236 452.381 48.1318ZM466.585 15.3541C466.567 15.0557 466.532 14.7617 466.449 14.47C466.278 13.8573 465.922 13.321 465.418 12.935C464.916 12.549 464.304 12.3425 463.671 12.3425C463.04 12.3425 462.426 12.549 461.924 12.935C461.42 13.321 461.064 13.8573 460.892 14.47C460.81 14.7617 460.775 15.0557 460.756 15.3541C460.74 15.6863 460.74 16.0162 460.74 16.3461V16.3528V113.804V113.811C460.74 114.143 460.74 114.47 460.756 114.803C460.775 115.103 460.81 115.395 460.892 115.685C461.064 116.299 461.42 116.836 461.924 117.222C462.426 117.608 463.04 117.816 463.671 117.816C464.304 117.816 464.916 117.608 465.418 117.222C465.922 116.836 466.278 116.299 466.449 115.685C466.532 115.395 466.567 115.103 466.585 114.803C466.602 114.47 466.602 114.143 466.602 113.811V113.804V16.3528V16.3461C466.602 16.0162 466.602 15.6863 466.585 15.3541ZM480.518 43.6437C480.347 43.031 479.99 42.4947 479.486 42.1087C478.984 41.7227 478.372 41.5162 477.739 41.5162C477.109 41.5162 476.494 41.7227 475.993 42.1087C475.488 42.4947 475.132 43.031 474.961 43.6437C474.879 43.9354 474.844 44.2294 474.825 44.5279C474.808 44.86 474.808 45.1899 474.808 45.5198V84.6371C474.808 84.9692 474.808 85.2969 474.825 85.629C474.844 85.9297 474.879 86.2215 474.961 86.511C475.132 87.1259 475.488 87.6622 475.993 88.0482C476.494 88.4342 477.109 88.6429 477.739 88.6429C478.372 88.6429 478.984 88.4342 479.486 88.0482C479.99 87.6622 480.347 87.1259 480.518 86.511C480.6 86.2215 480.635 85.9297 480.654 85.629C480.67 85.2969 480.67 84.9692 480.67 84.6371V45.5198C480.67 45.1899 480.67 44.86 480.654 44.5279C480.635 44.2294 480.6 43.9354 480.518 43.6437ZM494.722 47.8941C494.704 47.5956 494.668 47.3016 494.586 47.0099C494.415 46.3972 494.059 45.8609 493.555 45.4749C493.053 45.0889 492.441 44.8824 491.808 44.8824C491.177 44.8824 490.563 45.0889 490.061 45.4749C489.557 45.8609 489.201 46.3972 489.029 47.0099C488.947 47.3016 488.912 47.5956 488.893 47.8941C488.877 48.2262 488.877 48.5561 488.877 48.886V48.8927V81.2642V81.271C488.877 81.6031 488.877 81.9307 488.893 82.2629C488.912 82.5636 488.947 82.8553 489.029 83.1448C489.201 83.7597 489.557 84.296 490.061 84.682C490.563 85.068 491.177 85.2767 491.808 85.2767C492.441 85.2767 493.053 85.068 493.555 84.682C494.059 84.296 494.415 83.7597 494.586 83.1448C494.668 82.8553 494.704 82.5636 494.722 82.2629C494.739 81.9307 494.739 81.6031 494.739 81.271V81.2642V48.8927V48.886C494.739 48.5561 494.739 48.2262 494.722 47.8941ZM507.618 27.697C507.6 27.3986 507.564 27.1046 507.482 26.8129C507.311 26.2002 506.955 25.6639 506.451 25.2779C505.949 24.8919 505.337 24.6854 504.704 24.6854C504.073 24.6854 503.459 24.8919 502.957 25.2779C502.453 25.6639 502.096 26.2002 501.925 26.8129C501.843 27.1046 501.808 27.3986 501.789 27.697C501.773 28.0292 501.773 28.3591 501.773 28.6889V28.6957V101.461V101.468C501.773 101.8 501.773 102.128 501.789 102.46C501.808 102.761 501.843 103.053 501.925 103.342C502.096 103.957 502.453 104.493 502.957 104.879C503.459 105.265 504.073 105.474 504.704 105.474C505.337 105.474 505.949 105.265 506.451 104.879C506.955 104.493 507.311 103.957 507.482 103.342C507.564 103.053 507.6 102.761 507.618 102.46C507.635 102.128 507.635 101.8 507.635 101.468V101.461V28.6957V28.6889C507.635 28.3591 507.635 28.0292 507.618 27.697ZM521.687 29.9409C521.668 29.6425 521.633 29.3485 521.551 29.0568C521.38 28.4441 521.023 27.9078 520.519 27.5218C520.017 27.1358 519.405 26.9293 518.772 26.9293C518.141 26.9293 517.527 27.1358 517.025 27.5218C516.521 27.9078 516.165 28.4441 515.994 29.0568C515.912 29.3485 515.876 29.6425 515.858 29.9409C515.841 30.2731 515.841 30.603 515.841 30.9328V30.9396V99.2171V99.2239C515.841 99.556 515.841 99.8836 515.858 100.216C515.876 100.516 515.912 100.808 515.994 101.098C516.165 101.713 516.521 102.249 517.025 102.635C517.527 103.021 518.141 103.23 518.772 103.23C519.405 103.23 520.017 103.021 520.519 102.635C521.023 102.249 521.38 101.713 521.551 101.098C521.633 100.808 521.668 100.516 521.687 100.216C521.703 99.8836 521.703 99.556 521.703 99.2239V99.2171V30.9396V30.9328C521.703 30.603 521.703 30.2731 521.687 29.9409ZM535.619 44.7659C535.448 44.1532 535.092 43.6169 534.587 43.2309C534.086 42.8449 533.474 42.6384 532.841 42.6384C532.21 42.6384 531.596 42.8449 531.094 43.2309C530.59 43.6169 530.233 44.1532 530.062 44.7659C529.98 45.0576 529.945 45.3516 529.926 45.65C529.91 45.9822 529.91 46.3121 529.91 46.6419V83.5152C529.91 83.8473 529.91 84.175 529.926 84.5071C529.945 84.8078 529.98 85.0995 530.062 85.389C530.233 86.0039 530.59 86.5403 531.094 86.9263C531.596 87.3122 532.21 87.521 532.841 87.521C533.474 87.521 534.086 87.3122 534.587 86.9263C535.092 86.5403 535.448 86.0039 535.619 85.389C535.701 85.0995 535.736 84.8078 535.755 84.5071C535.771 84.175 535.771 83.8473 535.771 83.5152V46.6419C535.771 46.3121 535.771 45.9822 535.755 45.65C535.736 45.3516 535.701 45.0576 535.619 44.7659ZM549.823 32.1853C549.805 31.8869 549.77 31.5929 549.687 31.3011C549.516 30.6885 549.16 30.1521 548.656 29.7662C548.154 29.3802 547.542 29.1737 546.909 29.1737C546.278 29.1737 545.664 29.3802 545.162 29.7662C544.658 30.1521 544.302 30.6885 544.13 31.3011C544.048 31.5929 544.013 31.8869 543.994 32.1853C543.978 32.5175 543.978 32.8473 543.978 33.1772V33.184V96.9733V96.98C543.978 97.3121 543.978 97.6398 543.994 97.9719C544.013 98.2726 544.048 98.5643 544.13 98.8538C544.302 99.4687 544.658 100.005 545.162 100.391C545.664 100.777 546.278 100.986 546.909 100.986C547.542 100.986 548.154 100.777 548.656 100.391C549.16 100.005 549.516 99.4687 549.687 98.8538C549.77 98.5643 549.805 98.2726 549.823 97.9719C549.84 97.6398 549.84 97.3121 549.84 96.98V96.9733V33.184V33.1772C549.84 32.8473 549.84 32.5175 549.823 32.1853ZM563.756 2.12743C563.585 1.51479 563.228 0.978439 562.724 0.592449C562.222 0.20646 561.61 0 560.977 0C560.347 0 559.732 0.20646 559.231 0.592449C558.727 0.978439 558.37 1.51479 558.199 2.12743C558.117 2.41917 558.082 2.71315 558.063 3.01162C558.047 3.34375 558.047 3.67363 558.047 4.00352V126.154C558.047 126.486 558.047 126.813 558.063 127.145C558.082 127.446 558.117 127.738 558.199 128.027C558.37 128.642 558.727 129.179 559.231 129.565C559.732 129.951 560.347 130.159 560.977 130.159C561.61 130.159 562.222 129.951 562.724 129.565C563.228 129.179 563.585 128.642 563.756 128.027C563.838 127.738 563.873 127.446 563.892 127.145C563.908 126.813 563.908 126.486 563.908 126.154V4.00352C563.908 3.67363 563.908 3.34375 563.892 3.01162C563.873 2.71315 563.838 2.41917 563.756 2.12743ZM577.96 43.4058C577.942 43.1073 577.906 42.8133 577.824 42.5216C577.653 41.909 577.297 41.3726 576.793 40.9866C576.291 40.6006 575.679 40.3942 575.046 40.3942C574.415 40.3942 573.801 40.6006 573.299 40.9866C572.795 41.3726 572.438 41.909 572.267 42.5216C572.185 42.8133 572.15 43.1073 572.131 43.4058C572.115 43.7379 572.115 44.0678 572.115 44.3977V44.4044V85.7524V85.7592C572.115 86.0913 572.115 86.4189 572.131 86.7511C572.15 87.0518 572.185 87.3435 572.267 87.633C572.438 88.2479 572.795 88.7843 573.299 89.1702C573.801 89.5562 574.415 89.7649 575.046 89.7649C575.679 89.7649 576.291 89.5562 576.793 89.1702C577.297 88.7843 577.653 88.2479 577.824 87.633C577.906 87.3435 577.942 87.0518 577.96 86.7511C577.977 86.4189 577.977 86.0913 577.977 85.7592V85.7524V44.4044V44.3977C577.977 44.0678 577.977 43.7379 577.96 43.4058ZM591.893 49.2539C591.722 48.6413 591.365 48.1049 590.861 47.7189C590.359 47.3329 589.747 47.1265 589.114 47.1265C588.483 47.1265 587.869 47.3329 587.367 47.7189C586.863 48.1049 586.507 48.6413 586.336 49.2539C586.254 49.5456 586.218 49.8396 586.2 50.1381C586.183 50.4702 586.183 50.8001 586.183 51.13V79.0267C586.183 79.3566 586.183 79.6865 586.2 80.0186C586.218 80.3193 586.254 80.6111 586.336 80.9006C586.507 81.5155 586.863 82.0518 587.367 82.4378C587.869 82.8238 588.483 83.0325 589.114 83.0325C589.747 83.0325 590.359 82.8238 590.861 82.4378C591.365 82.0518 591.722 81.5155 591.893 80.9006C591.975 80.6111 592.01 80.3193 592.029 80.0186C592.045 79.6865 592.045 79.3566 592.045 79.0267V51.13C592.045 50.8001 592.045 50.4702 592.029 50.1381C592.01 49.8396 591.975 49.5456 591.893 49.2539ZM606.097 43.4058C606.078 43.1073 606.043 42.8133 605.961 42.5216C605.79 41.909 605.434 41.3726 604.93 40.9866C604.428 40.6006 603.816 40.3942 603.183 40.3942C602.552 40.3942 601.938 40.6006 601.436 40.9866C600.932 41.3726 600.575 41.909 600.404 42.5216C600.322 42.8133 600.287 43.1073 600.268 43.4058C600.252 43.7379 600.252 44.0678 600.252 44.3977V44.4044V85.7524V85.7592C600.252 86.0913 600.252 86.4189 600.268 86.7511C600.287 87.0518 600.322 87.3435 600.404 87.633C600.575 88.2479 600.932 88.7843 601.436 89.1702C601.938 89.5562 602.552 89.7649 603.183 89.7649C603.816 89.7649 604.428 89.5562 604.93 89.1702C605.434 88.7843 605.79 88.2479 605.961 87.633C606.043 87.3435 606.078 87.0518 606.097 86.7511C606.114 86.4189 606.114 86.0913 606.114 85.7592V85.7524V44.4044V44.3977C606.114 44.0678 606.114 43.7379 606.097 43.4058ZM620.03 53.7422C619.858 53.1295 619.502 52.5932 618.998 52.2072C618.496 51.8212 617.884 51.6147 617.251 51.6147C616.62 51.6147 616.006 51.8212 615.504 52.2072C615 52.5932 614.644 53.1295 614.473 53.7422C614.39 54.0339 614.355 54.3279 614.337 54.6264C614.32 54.9585 614.32 55.2884 614.32 55.6183V74.5385C614.32 74.8684 614.32 75.1983 614.337 75.5304C614.355 75.8311 614.39 76.1228 614.473 76.4146C614.644 77.0272 615 77.5636 615.504 77.9496C616.006 78.3356 616.62 78.5443 617.251 78.5443C617.884 78.5443 618.496 78.3356 618.998 77.9496C619.502 77.5636 619.858 77.0272 620.03 76.4146C620.112 76.1228 620.147 75.8311 620.166 75.5304C620.182 75.1983 620.182 74.8684 620.182 74.5385V55.6183C620.182 55.2884 620.182 54.9585 620.166 54.6264C620.147 54.3279 620.112 54.0339 620.03 53.7422ZM634.234 11.9879C634.215 11.6895 634.18 11.3955 634.098 11.1038C633.927 10.4911 633.57 9.95476 633.066 9.56877C632.564 9.18278 631.952 8.97632 631.319 8.97632C630.689 8.97632 630.074 9.18278 629.573 9.56877C629.068 9.95476 628.712 10.4911 628.541 11.1038C628.459 11.3955 628.424 11.6895 628.405 11.9879C628.388 12.3201 628.388 12.65 628.388 12.9798V12.9866V117.17V117.177C628.388 117.509 628.388 117.837 628.405 118.169C628.424 118.469 628.459 118.761 628.541 119.051C628.712 119.666 629.068 120.202 629.573 120.588C630.074 120.974 630.689 121.183 631.319 121.183C631.952 121.183 632.564 120.974 633.066 120.588C633.57 120.202 633.927 119.666 634.098 119.051C634.18 118.761 634.215 118.469 634.234 118.169C634.25 117.837 634.25 117.509 634.25 117.177V117.17V12.9866V12.9798C634.25 12.65 634.25 12.3201 634.234 11.9879ZM648.166 39.1554C647.995 38.5427 647.639 38.0064 647.135 37.6204C646.633 37.2344 646.021 37.028 645.388 37.028C644.757 37.028 644.143 37.2344 643.641 37.6204C643.137 38.0064 642.78 38.5427 642.609 39.1554C642.527 39.4471 642.492 39.7411 642.473 40.0396C642.457 40.3717 642.457 40.7016 642.457 41.0315V41.0382V89.1186V89.1253C642.457 89.4575 642.457 89.7851 642.473 90.1172C642.492 90.418 642.527 90.7097 642.609 90.9992C642.78 91.6141 643.137 92.1504 643.641 92.5364C644.143 92.9224 644.757 93.1311 645.388 93.1311C646.021 93.1311 646.633 92.9224 647.135 92.5364C647.639 92.1504 647.995 91.6141 648.166 90.9992C648.248 90.7097 648.284 90.418 648.302 90.1172C648.319 89.7851 648.319 89.4575 648.319 89.1253V41.0315C648.319 40.7016 648.319 40.3717 648.302 40.0396C648.284 39.7411 648.248 39.4471 648.166 39.1554ZM662.371 56.8705C662.352 56.572 662.317 56.2781 662.235 55.9863C662.064 55.3737 661.707 54.8373 661.203 54.4513C660.701 54.0653 660.089 53.8589 659.456 53.8589C658.826 53.8589 658.211 54.0653 657.709 54.4513C657.205 54.8373 656.849 55.3737 656.678 55.9863C656.596 56.2781 656.56 56.572 656.542 56.8705C656.525 57.2026 656.525 57.5325 656.525 57.8624V57.8691V72.2877V72.2944C656.525 72.6243 656.525 72.9542 656.542 73.2863C656.56 73.587 656.596 73.8787 656.678 74.1705C656.849 74.7831 657.205 75.3195 657.709 75.7055C658.211 76.0914 658.826 76.3001 659.456 76.3001C660.089 76.3001 660.701 76.0914 661.203 75.7055C661.707 75.3195 662.064 74.7831 662.235 74.1705C662.317 73.8787 662.352 73.587 662.371 73.2863C662.387 72.9542 662.387 72.6243 662.387 72.2944V72.2877V57.8691V57.8624C662.387 57.5325 662.387 57.2026 662.371 56.8705ZM675.131 58.2305C674.96 57.6178 674.603 57.0815 674.099 56.6955C673.597 56.3095 672.985 56.103 672.352 56.103C671.721 56.103 671.107 56.3095 670.605 56.6955C670.101 57.0815 669.745 57.6178 669.574 58.2305C669.492 58.5222 669.456 58.8162 669.438 59.1146C669.421 59.4468 669.421 59.7767 669.421 60.1065V70.0503C669.421 70.3802 669.421 70.71 669.438 71.0422C669.456 71.3429 669.492 71.6346 669.574 71.9264C669.745 72.539 670.101 73.0754 670.605 73.4613C671.107 73.8473 671.721 74.056 672.352 74.056C672.985 74.056 673.597 73.8473 674.099 73.4613C674.603 73.0754 674.96 72.539 675.131 71.9264C675.213 71.6346 675.248 71.3429 675.267 71.0422C675.283 70.71 675.283 70.3802 675.283 70.0503V60.1065C675.283 59.7767 675.283 59.4468 675.267 59.1146C675.248 58.8162 675.213 58.5222 675.131 58.2305ZM689.335 38.9175C689.316 38.619 689.281 38.3251 689.199 38.0333C689.028 37.4207 688.672 36.8843 688.167 36.4983C687.666 36.1123 687.054 35.9059 686.421 35.9059C685.79 35.9059 685.176 36.1123 684.674 36.4983C684.17 36.8843 683.813 37.4207 683.642 38.0333C683.56 38.3251 683.525 38.619 683.506 38.9175C683.49 39.2496 683.49 39.5795 683.49 39.9094V39.9161V90.2407V90.2474C683.49 90.5795 683.49 90.9072 683.506 91.2393C683.525 91.54 683.56 91.8318 683.642 92.1212C683.813 92.7361 684.17 93.2725 684.674 93.6585C685.176 94.0445 685.79 94.2532 686.421 94.2532C687.054 94.2532 687.666 94.0445 688.167 93.6585C688.672 93.2725 689.028 92.7361 689.199 92.1212C689.281 91.8318 689.316 91.54 689.335 91.2393C689.352 90.9072 689.352 90.5795 689.352 90.2474V90.2407V39.9161V39.9094C689.352 39.5795 689.352 39.2496 689.335 38.9175ZM703.268 42.5216C703.096 41.909 702.74 41.3726 702.236 40.9866C701.734 40.6006 701.122 40.3942 700.489 40.3942C699.858 40.3942 699.244 40.6006 698.742 40.9866C698.238 41.3726 697.882 41.909 697.711 42.5216C697.628 42.8133 697.593 43.1073 697.575 43.4058C697.558 43.7379 697.558 44.0678 697.558 44.3977V85.7592C697.558 86.0913 697.558 86.4189 697.575 86.7511C697.593 87.0518 697.628 87.3435 697.711 87.633C697.882 88.2479 698.238 88.7843 698.742 89.1702C699.244 89.5562 699.858 89.7649 700.489 89.7649C701.122 89.7649 701.734 89.5562 702.236 89.1702C702.74 88.7843 703.096 88.2479 703.268 87.633C703.35 87.3435 703.385 87.0518 703.404 86.7511C703.42 86.4189 703.42 86.0913 703.42 85.7592V44.3977C703.42 44.0678 703.42 43.7379 703.404 43.4058C703.385 43.1073 703.35 42.8133 703.268 42.5216ZM717.472 45.65C717.453 45.3516 717.418 45.0576 717.336 44.7659C717.165 44.1532 716.808 43.6169 716.304 43.2309C715.803 42.8449 715.191 42.6384 714.557 42.6384C713.927 42.6384 713.312 42.8449 712.811 43.2309C712.307 43.6169 711.95 44.1532 711.779 44.7659C711.697 45.0576 711.662 45.3516 711.643 45.65C711.627 45.9822 711.627 46.3121 711.627 46.6419V46.6487V83.5085V83.5152C711.627 83.8473 711.627 84.175 711.643 84.5071C711.662 84.8078 711.697 85.0995 711.779 85.389C711.95 86.0039 712.307 86.5403 712.811 86.9263C713.312 87.3122 713.927 87.521 714.557 87.521C715.191 87.521 715.803 87.3122 716.304 86.9263C716.808 86.5403 717.165 86.0039 717.336 85.389C717.418 85.0995 717.453 84.8078 717.472 84.5071C717.488 84.175 717.488 83.8473 717.488 83.5152V83.5085V46.6487V46.6419C717.488 46.3121 717.488 45.9822 717.472 45.65ZM731.404 50.3762C731.233 49.7636 730.877 49.2272 730.373 48.8412C729.871 48.4552 729.259 48.2488 728.626 48.2488C727.995 48.2488 727.381 48.4552 726.879 48.8412C726.375 49.2272 726.018 49.7636 725.847 50.3762C725.765 50.6679 725.73 50.9619 725.711 51.2604C725.695 51.5925 725.695 51.9224 725.695 52.2523V77.9049C725.695 78.2348 725.695 78.5647 725.711 78.8968C725.73 79.1975 725.765 79.4893 725.847 79.781C726.018 80.3936 726.375 80.93 726.879 81.316C727.381 81.702 727.995 81.9107 728.626 81.9107C729.259 81.9107 729.871 81.702 730.373 81.316C730.877 80.93 731.233 80.3936 731.404 79.781C731.486 79.4893 731.522 79.1975 731.54 78.8968C731.557 78.5647 731.557 78.2348 731.557 77.9049V52.2523C731.557 51.9224 731.557 51.5925 731.54 51.2604C731.522 50.9619 731.486 50.6679 731.404 50.3762ZM745.606 54.6264C745.59 54.3279 745.555 54.0339 745.475 53.7422C745.302 53.1295 744.948 52.5932 744.441 52.2072C743.939 51.8212 743.327 51.6147 742.694 51.6147C742.061 51.6147 741.449 51.8212 740.947 52.2072C740.443 52.5932 740.087 53.1295 739.916 53.7422C739.834 54.0339 739.799 54.3279 739.78 54.6264C739.763 54.9585 739.763 55.2884 739.763 55.6183V55.625V74.5318V74.5385C739.763 74.8684 739.763 75.1983 739.78 75.5304C739.799 75.8311 739.834 76.1228 739.916 76.4146C740.087 77.0272 740.443 77.5636 740.947 77.9496C741.449 78.3356 742.061 78.5443 742.694 78.5443C743.327 78.5443 743.939 78.3356 744.441 77.9496C744.948 77.5636 745.302 77.0272 745.475 76.4146C745.555 76.1228 745.59 75.8311 745.606 75.5304C745.628 75.1983 745.625 74.8684 745.625 74.5385V74.5318V55.625V55.6183C745.625 55.2884 745.628 54.9585 745.606 54.6264ZM759.543 62.7187C759.37 62.1061 759.016 61.5697 758.509 61.1838C758.008 60.7978 757.396 60.5913 756.763 60.5913C756.13 60.5913 755.518 60.7978 755.016 61.1838C754.509 61.5697 754.155 62.1061 753.982 62.7187C753.902 63.0105 753.867 63.3045 753.85 63.6029C753.829 63.9351 753.832 64.2649 753.832 64.5948V64.6016V65.5553V65.562C753.832 65.8919 753.829 66.2218 753.85 66.554C753.867 66.8547 753.902 67.1464 753.982 67.4381C754.155 68.0508 754.509 68.5871 755.016 68.9731C755.518 69.3591 756.13 69.5678 756.763 69.5678C757.396 69.5678 758.008 69.3591 758.509 68.9731C759.016 68.5871 759.37 68.0508 759.543 67.4381C759.623 67.1464 759.658 66.8547 759.675 66.554C759.696 66.2218 759.694 65.8919 759.694 65.562V64.5948C759.694 64.2649 759.696 63.9351 759.675 63.6029C759.658 63.3045 759.623 63.0105 759.543 62.7187ZM773.743 59.1146C773.727 58.8162 773.692 58.5222 773.612 58.2305C773.438 57.6178 773.084 57.0815 772.578 56.6955C772.076 56.3095 771.464 56.103 770.831 56.103C770.198 56.103 769.586 56.3095 769.084 56.6955C768.578 57.0815 768.224 57.6178 768.05 58.2305C767.971 58.5222 767.935 58.8162 767.919 59.1146C767.898 59.4468 767.9 59.7767 767.9 60.1065V60.1133V70.0435V70.0503C767.9 70.3802 767.898 70.71 767.919 71.0422C767.935 71.3429 767.971 71.6346 768.05 71.9264C768.224 72.539 768.578 73.0754 769.084 73.4613C769.586 73.8473 770.198 74.056 770.831 74.056C771.464 74.056 772.076 73.8473 772.578 73.4613C773.084 73.0754 773.438 72.539 773.612 71.9264C773.692 71.6346 773.727 71.3429 773.743 71.0422C773.764 70.71 773.762 70.3802 773.762 70.0503V70.0435V60.1133V60.1065C773.762 59.7767 773.764 59.4468 773.743 59.1146ZM787.812 59.1146C787.795 58.8162 787.76 58.5222 787.68 58.2305C787.507 57.6178 787.153 57.0815 786.646 56.6955C786.145 56.3095 785.533 56.103 784.9 56.103C784.267 56.103 783.655 56.3095 783.153 56.6955C782.646 57.0815 782.292 57.6178 782.119 58.2305C782.039 58.5222 782.004 58.8162 781.987 59.1146C781.966 59.4468 781.969 59.7767 781.969 60.1065V60.1133V70.0435V70.0503C781.969 70.3802 781.966 70.71 781.987 71.0422C782.004 71.3429 782.039 71.6346 782.119 71.9264C782.292 72.539 782.646 73.0754 783.153 73.4613C783.655 73.8473 784.267 74.056 784.9 74.056C785.533 74.056 786.145 73.8473 786.646 73.4613C787.153 73.0754 787.507 72.539 787.68 71.9264C787.76 71.6346 787.795 71.3429 787.812 71.0422C787.833 70.71 787.831 70.3802 787.831 70.0503V70.0435V60.1133V60.1065C787.831 59.7767 787.833 59.4468 787.812 59.1146ZM801.749 61.5967C801.575 60.984 801.221 60.4477 800.715 60.0617C800.213 59.6757 799.601 59.4692 798.968 59.4692C798.335 59.4692 797.723 59.6757 797.221 60.0617C796.715 60.4477 796.361 60.984 796.187 61.5967C796.107 61.8884 796.072 62.1824 796.056 62.4809C796.035 62.813 796.037 63.1429 796.037 63.4728V63.4795V66.6774V66.6841C796.037 67.014 796.035 67.3439 796.056 67.676C796.072 67.9767 796.107 68.2685 796.187 68.5602C796.361 69.1728 796.715 69.7092 797.221 70.0952C797.723 70.4812 798.335 70.6899 798.968 70.6899C799.601 70.6899 800.213 70.4812 800.715 70.0952C801.221 69.7092 801.575 69.1728 801.749 68.5602C801.828 68.2685 801.864 67.9767 801.88 67.676C801.901 67.3439 801.899 67.014 801.899 66.6841V63.4728C801.899 63.1429 801.901 62.813 801.88 62.4809C801.864 62.1824 801.828 61.8884 801.749 61.5967ZM814.645 62.7187C814.471 62.1061 814.117 61.5697 813.611 61.1838C813.109 60.7978 812.497 60.5913 811.864 60.5913C811.231 60.5913 810.619 60.7978 810.117 61.1838C809.611 61.5697 809.257 62.1061 809.083 62.7187C809.003 63.0105 808.968 63.3045 808.952 63.6029C808.931 63.9351 808.933 64.2649 808.933 64.5948V65.562C808.933 65.8919 808.931 66.2218 808.952 66.554C808.968 66.8547 809.003 67.1464 809.083 67.4381C809.257 68.0508 809.611 68.5871 810.117 68.9731C810.619 69.3591 811.231 69.5678 811.864 69.5678C812.497 69.5678 813.109 69.3591 813.611 68.9731C814.117 68.5871 814.471 68.0508 814.645 67.4381C814.724 67.1464 814.76 66.8547 814.776 66.554C814.797 66.2218 814.795 65.8919 814.795 65.562V64.5948C814.795 64.2649 814.797 63.9351 814.776 63.6029C814.76 63.3045 814.724 63.0105 814.645 62.7187ZM827.679 63.428C827.177 63.042 826.565 62.8356 825.932 62.8356C825.299 62.8356 824.687 63.042 824.185 63.428C823.679 63.814 823.325 64.3504 823.151 64.963C823.144 65.0012 823.147 65.0415 823.137 65.0797C823.147 65.1179 823.144 65.156 823.151 65.1941C823.325 65.8068 823.679 66.3431 824.185 66.7291C824.687 67.1151 825.299 67.3238 825.932 67.3238C826.565 67.3238 827.177 67.1151 827.679 66.7291C828.186 66.3431 828.54 65.8068 828.713 65.1941C828.72 65.156 828.718 65.1179 828.727 65.0797C828.718 65.0415 828.72 65.0012 828.713 64.963C828.54 64.3504 828.186 63.814 827.679 63.428ZM823.001 63.3181V63.3114V66.8459V66.8392C823.001 66.5093 822.999 66.1794 823.02 65.8473C823.034 65.5869 823.074 65.3334 823.137 65.0798C823.074 64.8239 823.034 64.5704 823.02 64.31C822.999 63.9779 823.001 63.648 823.001 63.3181ZM828.845 64.31C828.83 64.5704 828.791 64.8239 828.727 65.0798C828.791 65.3334 828.83 65.5869 828.845 65.8473C828.866 66.1794 828.863 66.5093 828.863 66.8392V66.8459V63.3114V63.3181C828.863 63.648 828.866 63.9779 828.845 64.31ZM841.748 63.428C841.246 63.042 840.634 62.8356 840.001 62.8356C839.368 62.8356 838.756 63.042 838.254 63.428C837.747 63.814 837.393 64.3504 837.22 64.963C837.213 65.0012 837.215 65.0415 837.206 65.0797C837.215 65.1179 837.213 65.156 837.22 65.1941C837.393 65.8068 837.747 66.3431 838.254 66.7291C838.756 67.1151 839.368 67.3238 840.001 67.3238C840.634 67.3238 841.246 67.1151 841.748 66.7291C842.254 66.3431 842.608 65.8068 842.782 65.1941C842.789 65.156 842.786 65.1179 842.796 65.0797C842.786 65.0415 842.789 65.0012 842.782 64.963C842.608 64.3504 842.254 63.814 841.748 63.428ZM842.796 65.0796C842.859 65.3332 842.899 65.5868 842.913 65.8471C842.934 66.1793 842.932 66.5091 842.932 66.839V63.318C842.932 63.6479 842.934 63.9778 842.913 64.3099C842.899 64.5702 842.859 64.8238 842.796 65.0796ZM837.07 63.318V66.839C837.07 66.5091 837.067 66.1793 837.089 65.8471C837.103 65.5868 837.142 65.3332 837.206 65.0796C837.142 64.8238 837.103 64.5702 837.089 64.3099C837.067 63.9778 837.07 63.6479 837.07 63.318ZM855.816 63.428C855.314 63.042 854.702 62.8356 854.069 62.8356C853.436 62.8356 852.824 63.042 852.322 63.428C851.816 63.814 851.462 64.3504 851.288 64.963C851.281 65.0012 851.284 65.0415 851.274 65.0797C851.284 65.1179 851.281 65.156 851.288 65.1941C851.462 65.8068 851.816 66.3431 852.322 66.7291C852.824 67.1151 853.436 67.3238 854.069 67.3238C854.702 67.3238 855.314 67.1151 855.816 66.7291C856.323 66.3431 856.677 65.8068 856.85 65.1941C856.857 65.156 856.855 65.1179 856.864 65.0797C856.855 65.0415 856.857 65.0012 856.85 64.963C856.677 64.3504 856.323 63.814 855.816 63.428ZM851.138 63.3181V63.3114V66.8459V66.8392C851.138 66.5093 851.136 66.1794 851.157 65.8473C851.171 65.5869 851.211 65.3334 851.274 65.0798C851.211 64.8239 851.171 64.5704 851.157 64.31C851.136 63.9779 851.138 63.648 851.138 63.3181ZM857 63.3181C857 63.648 857.002 63.9779 856.981 64.31C856.967 64.5704 856.927 64.8239 856.864 65.0798C856.927 65.3334 856.967 65.5869 856.981 65.8473C857.002 66.1794 857 66.5093 857 66.8392V66.8459V63.3114V63.3181ZM5.85008 65.0797C5.85477 65.2906 5.8618 65.5038 5.8618 65.717V65.7237V64.4333V64.4401C5.8618 64.6533 5.85477 64.8665 5.85008 65.0797ZM0 64.4333V65.7237V65.717C0 65.5038 0.0070342 65.2906 0.0117237 65.0797C0.0070342 64.8665 0 64.6533 0 64.4401V64.4333ZM5.70922 63.8409C5.53805 63.2283 5.18165 62.6919 4.67753 62.306C4.17576 61.92 3.56379 61.7135 2.93071 61.7135C2.29998 61.7135 1.68565 61.92 1.18388 62.306C0.679764 62.6919 0.323365 63.2283 0.152199 63.8409C0.0701337 64.1327 0.0349627 64.4267 0.0162049 64.7251C0.00917068 64.8441 0.0138601 64.9608 0.0115154 65.0797C0.0138601 65.1964 0.00917068 65.3153 0.0162049 65.432C0.0349627 65.7327 0.0701337 66.0245 0.152199 66.3162C0.323365 66.9288 0.679764 67.4652 1.18388 67.8512C1.68565 68.2372 2.29998 68.4459 2.93071 68.4459C3.56379 68.4459 4.17576 68.2372 4.67753 67.8512C5.18165 67.4652 5.53805 66.9288 5.70922 66.3162C5.79128 66.0245 5.82645 65.7327 5.84521 65.432C5.85225 65.3153 5.84756 65.1964 5.8499 65.0797C5.84756 64.9608 5.85225 64.8441 5.84521 64.7251C5.82645 64.4267 5.79128 64.1327 5.70922 63.8409Z" fill="#FFE9DB"/>
</svg>
