<svg width="36" height="55" viewBox="0 0 36 55" fill="none" xmlns="http://www.w3.org/2000/svg">
<path d="M35.2891 53.1875L32.085 54.958L0 1.77148L3.2041 0L35.2891 53.1875ZM1.74805 24.2451C2.2548 23.7951 3.03925 23.7949 3.5459 24.2451C3.85104 24.4628 4.07217 24.7716 4.17578 25.1221C4.20536 25.2883 4.21584 25.4575 4.20703 25.626C4.21796 25.8135 4.21777 25.9999 4.21777 26.1904C4.21777 26.2524 4.22984 26.2963 4.23145 26.3545V29.6758C4.32974 31.1761 4.55036 32.6674 4.8916 34.1348C5.70646 36.7834 7.41223 39.1008 9.74316 40.7275L9.75586 40.7373C10.3297 41.1394 10.9375 41.4956 11.5723 41.8027H11.5781C12.2019 42.1144 12.8481 42.3837 13.5117 42.6074C13.5896 42.632 13.6576 42.6607 13.7324 42.6816C14.3607 42.9031 15.0187 43.0394 15.6865 43.0859C16.1287 43.1266 17.2565 43.1088 17.2812 43.1084C17.6245 43.1174 18.6734 43.122 18.9893 43.0771C19.6781 43.0421 20.3616 42.9427 21.0322 42.7891L22.6318 45.4414C21.7705 45.6679 20.8916 45.8339 20.002 45.9326C19.6801 45.9879 19.3554 46.0446 19.0312 46.082V51.21H26.1113L27.5996 53.6768C27.5641 53.717 27.5274 53.7571 27.4873 53.7939C27.1843 54.072 26.778 54.2234 26.3584 54.2148V54.2275H8.67188C8.22744 54.2692 7.78495 54.1316 7.45117 53.8477C7.11761 53.5637 6.92293 53.1596 6.91406 52.7324C6.92185 52.303 7.11521 51.8953 7.44824 51.6074C7.78142 51.3197 8.22474 51.1765 8.67188 51.2129H15.877V46.0625C15.5529 46.0236 15.228 45.9876 14.9062 45.9346C13.2221 45.7467 11.5752 45.324 10.0186 44.6807C7.03238 43.2248 4.60424 40.901 3.08301 38.043C2.33304 36.6199 1.80837 35.0974 1.52734 33.5264C1.2576 31.8386 1.11239 30.134 1.0918 28.4268C1.07149 27.7 1.0623 26.9719 1.05762 26.2451C1.05293 25.5207 1.05273 29.4421 1.05273 30.2998V25.625C1.05926 25.4549 1.08546 25.2857 1.13086 25.1211C1.23053 24.7723 1.44737 24.4641 1.74805 24.2451ZM31.3799 24.2461C31.8868 23.7963 32.6709 23.7962 33.1777 24.2461C33.4783 24.4651 33.6953 24.7734 33.7949 25.1221C33.8399 25.2867 33.8662 25.4559 33.873 25.626C33.8777 25.7006 33.8733 25.7755 33.8779 25.8545V28.3828C33.8775 27.1107 33.8779 25.8046 33.875 26.2441C33.8703 26.9612 33.8621 27.699 33.8418 28.4258C33.8205 30.1329 33.6739 31.8368 33.4043 33.5244C33.1236 35.0952 32.6002 36.618 31.8506 38.041C31.4936 38.7119 31.0833 39.3513 30.6309 39.959L28.793 36.9121C29.3227 36.0432 29.7463 35.1118 30.0469 34.1348C30.388 32.6674 30.6081 31.1761 30.7061 29.6758V29.4434L30.7314 26.3545C30.7315 26.2963 30.7451 26.2524 30.7451 26.1904C30.7451 26.0022 30.7197 25.8165 30.7314 25.626C30.7222 25.4575 30.7327 25.2883 30.7627 25.1221C30.8632 24.7736 31.0799 24.4657 31.3799 24.2461ZM18.8428 39.1611C17.4248 39.3574 15.9579 39.2398 14.5596 38.7881C11.6468 37.8469 9.41267 35.5822 8.59766 32.7451C8.35189 31.8615 8.20649 30.9545 8.16504 30.041C8.13692 29.5699 8.1252 29.0981 8.11816 28.627V21.3809L18.8428 39.1611ZM14.5586 0.84375C17.4717 -0.0975759 20.6831 0.407849 23.1279 2.19238C24.7185 3.37344 25.8576 5.02392 26.3682 6.8877C26.6136 7.77094 26.7585 8.67773 26.7998 9.59082C26.8326 10.1448 26.8451 10.6989 26.8506 11.2529V28.3828C26.8451 28.9361 26.8326 29.4906 26.7998 30.0439C26.7594 30.9563 26.6163 31.8624 26.3721 32.7451H26.3682C26.3592 32.7779 26.3473 32.8102 26.3379 32.8428L9.46582 4.87207C10.5744 2.99695 12.3763 1.54901 14.5586 0.84375ZM33.8799 30.2979L33.8779 30.2998V28.3828C33.8782 29.1815 33.8799 29.9669 33.8799 30.2979Z" fill="#FFE9DB"/>
</svg>
