<svg width="889" height="64" viewBox="0 0 889 64" fill="none" xmlns="http://www.w3.org/2000/svg">
<g clip-path="url(#clip0_128_5)">
<path d="M521.969 20.6799C523.18 21.9395 524.542 24.611 525.712 26.1396C528.776 30.145 532.202 33.7824 534.422 38.3681C534.868 38.4407 534.711 37.7242 534.7 37.4322C534.619 35.3428 533.79 33.4374 535.108 31.4896C536.317 29.7027 538.964 27.7248 540.873 29.7381C543.394 32.3989 542.133 34.6936 542.196 37.6958C542.223 38.9679 543.156 40.592 542.746 42.0852C543.079 42.5151 543.233 42.0799 543.283 41.6924C543.407 40.7388 543.315 39.2509 543.279 38.2407C543.136 34.0673 541.952 29.2533 544.897 25.7557C548.374 21.6229 555.598 18.0668 560.561 21.6989C561.78 22.5924 564.683 25.9326 564.753 27.3762C564.817 28.696 563.711 30.5395 562.591 31.3073C561.759 31.8788 559.287 32.9491 558.243 33.3808C557.491 33.6904 554.767 34.2176 554.588 34.8315C554.273 35.9161 558.439 39.787 559.27 40.7565C561.356 43.1909 563.288 45.7916 565.571 48.065C566.499 48.9885 567.504 49.9704 568.931 50.0571C569.839 50.1119 568.985 49.2521 568.863 48.7939C568.761 48.4153 568.868 47.9518 568.745 47.5855C568.51 46.892 567.677 46.8425 568.263 45.5368C567.081 46.0977 566.524 45.5315 566.381 44.3462L568.268 44.6045C568.215 43.1608 567.074 41.2855 566.975 40.0188C566.913 39.2103 567.233 38.4071 567.188 37.4499C567.002 33.4587 563.883 28.896 568.515 26.2705C566.948 23.3903 570.412 21.5079 572.966 21.3663L589.294 22.7693C590.017 22.9674 591.309 24.5208 591.371 25.2585C591.434 25.9963 590.163 26.6686 591.332 26.7163L591.361 27.2205C590.003 28.1582 590.023 28.8783 588.005 29.0782C583.676 29.5081 579.45 28.673 575.113 29.0817C574.701 29.1206 574.31 29.2339 573.927 29.3719L575.036 36.721L583.046 37.7012C583.273 37.8126 584.599 40.0895 584.6 40.4151C584.602 40.9494 583.882 41.1245 583.827 41.7013C583.768 42.3169 584.409 42.5699 584.382 43.1449C584.242 43.3324 580.494 43.9234 579.944 43.9446C578.54 43.9959 576.921 43.1998 575.824 44.3603C576.13 45.6589 575.768 46.1207 576.943 46.9133C578.635 48.0562 583.666 49.4255 585.453 48.3198C585.806 48.1021 585.863 47.3449 586.432 46.8991C587.535 46.034 588.649 46.2604 589.604 47.1486C589.663 47.2034 590.515 48.2472 590.56 48.3127C591.269 49.3671 591.502 50.211 591.343 51.4884C590.993 54.289 589.949 54.5455 587.392 55.0126C582.303 55.9396 577.519 54.894 572.772 53.2133L570.016 51.1133C568.882 51.614 571.148 54.3987 571.202 55.5079C571.373 59.11 568.96 59.0834 566.037 59.0162C563.329 56.2103 560.521 53.4751 557.921 50.5825C557.027 49.5883 552.69 43.704 551.748 43.6757C550.153 46.7983 552.828 53.1832 547.642 53.7157C545.45 53.9404 544.211 52.0297 543.417 50.3172C542.454 52.1341 540.667 51.1911 539.112 51.3663C538.167 51.4724 537.88 52.035 537.228 52.1571C536.707 52.2544 535.099 52.2544 534.61 52.1129C533.622 51.828 533.366 49.8466 531.734 50.3083L532.268 49.6519L529.231 46.9026C525.357 48.3587 520.954 47.0725 516.946 48.0438C516.586 50.2552 515.791 51.9784 514.833 53.9174C505.807 58.0998 510.927 44.5868 511.79 40.5619C512.591 36.8219 513.251 33.0571 514.066 29.2763C514.127 28.9968 515.27 26.4474 514.67 26.4226C513.153 26.3165 511.047 27.8309 509.763 27.309C509.458 27.1852 509.471 26.7446 509.249 26.6969C508.719 26.5819 506.405 26.5996 505.8 26.6756C505.15 26.757 504.733 28.4289 503.259 27.7531L503.794 26.6951L499.559 27.0224C499.383 28.0025 497.428 33.4162 497.883 33.8585L501.613 34.4193C501.457 35.3658 502.388 36.1761 502.439 36.9209C502.53 38.2496 501.16 39.5146 502.181 40.4876C501.42 40.8202 497.838 41.3244 497.63 41.9808C497.922 42.7928 497.754 43.8048 497.936 44.5514C498.064 45.0733 498.565 45.3829 498.676 45.942C499.262 48.916 496.993 50.9753 494.004 50.5578C491.255 50.1739 492.202 47.5307 491.98 45.6589C491.862 44.6611 491.115 43.7854 491.436 42.6142C491.02 42.1949 486.332 43.9888 484.588 41.5509C482.711 38.9254 486.028 35.4154 488.676 34.9837C489.446 34.8581 491.547 35.1217 491.853 34.6723L495.141 23.5831C494.224 22.1749 496.214 19.5034 497.532 19.3106C497.997 19.2433 498.547 19.5423 499.077 19.5405C503.817 19.5246 509.313 19.307 513.862 19.5052C514.756 19.5441 516.124 20.0784 516.838 20.0359C517.745 19.9828 517.705 18.3977 519.831 19.2062C520.15 19.3265 521.709 20.4198 521.962 20.6799H521.969ZM527.166 40.4929C525.984 38.6123 524.911 36.6538 523.624 34.8369C523.172 34.2 520.509 30.5731 520.051 30.6757C518.269 33.3844 518.679 37.0536 517.87 40.1072C518.289 41.1847 518.909 40.4947 519.242 40.4947H527.166V40.4929ZM554.563 27.4912C553.673 27.4682 552.561 27.6717 552.147 28.5474L554.563 27.4912Z" fill="#484645"/>
<path d="M677.389 26.7588C678.397 25.6089 682.208 26.4103 683.089 27.4984C684.117 28.7704 684.534 30.0513 686.015 31.3746C686.69 31.9779 690.116 34.5786 690.847 34.3645C694.02 30.2087 696.731 25.7787 699.398 21.2974C699.872 20.4995 700.15 19.4627 700.583 18.7533C701.231 17.6971 702.462 16.74 702.839 15.3919C703.83 15.5511 704.616 14.9124 705.592 15.0681C707.854 15.429 707.669 17.7997 710.216 17.3875C714.057 16.7665 716.211 15.6325 720.411 16.3685C722.083 16.6604 727.939 18.7285 728.858 19.9652C732.212 24.4784 728.838 28.5316 725.848 31.9071C725.47 32.3335 724.487 32.5281 724.601 33.326C728.059 33.6162 731.211 35.1306 734.538 35.9816C734.769 35.7268 733.845 32.7298 733.761 32.1071C733.396 29.3878 733.05 26.612 732.687 23.8804C732.373 21.5238 731.44 17.9536 733.082 16.0995C735.115 13.8049 739.137 15.4679 739.579 18.1341C740.281 22.3784 740.124 27.1958 740.74 31.5852C740.792 31.9549 741.143 32.2238 741.173 32.445C741.265 33.0907 740.774 34.2867 741.257 35.189C742.081 35.2297 742.051 34.1682 742.772 33.6356C743.849 32.8413 746.426 32.9899 747.808 33.0978C748.404 33.1438 748.908 33.5312 749.47 33.5755C751.204 33.7135 752.96 33.4516 754.687 33.8639C754.624 32.5918 755.419 31.364 755.698 30.2176C756.151 28.3653 756.472 24.1475 757.516 22.7198C757.751 22.3978 758.12 22.3412 758.367 22.0882C758.476 21.9767 758.395 21.5999 758.519 21.4743C758.642 21.3487 759.939 20.8498 760.195 20.8339C761.135 20.7737 762.874 21.9591 763.528 22.6101C765.211 24.2891 765.225 29.9664 766.622 32.5564C766.952 33.1686 767.446 33.2641 767.52 33.3791C767.575 33.4676 767.276 34.0001 767.562 34.4689C767.903 35.0244 770.227 36.3725 770.483 37.2341C770.628 37.7224 770.614 39.0281 770.524 39.5553C770.408 40.2364 769.923 40.5107 769.796 40.9583C769.199 43.0866 771.792 45.2467 771.28 47.7342C770.788 50.1332 766.875 50.5649 765.068 49.2185C764.83 49.0416 763.608 47.6564 763.428 47.3804C763.247 47.1044 763.379 46.5772 763.227 46.3932C763.13 46.2764 762.607 46.2764 762.346 46.0818C760.834 44.9654 762.394 44.4329 762.412 43.5996C762.426 42.9309 761.528 42.4161 761.662 41.4536L761.227 41.0697C760.389 40.9264 759.927 40.8592 759.465 41.6305C757.572 44.785 758.555 50.3119 753.231 49.5016C752.403 49.376 751.37 48.5286 750.811 48.4896C749.588 48.4083 743.668 49.2256 742.221 49.5388C741.585 49.6768 741.279 50.1828 740.577 50.3013C738.575 50.6357 735.457 49.1938 735.89 46.8638H733.741L735.622 46.6019L735.213 43.9429C733.007 44.8522 731.134 46.3348 728.964 47.322C728.351 47.5998 727.343 47.644 726.933 47.904C726.555 48.1447 726.643 49.1283 725.665 49.3848C725.01 49.5565 724.653 49.2079 724.066 49.3583C723.812 49.4238 721.17 50.9665 720.608 51.2743C719.861 51.683 719.737 52.4101 718.557 52.4561C717.997 52.4791 716.367 51.8245 716 51.4512C715.37 50.8126 715.277 48.7869 714.883 48.249C714.712 48.0173 713.753 47.9943 713.344 47.7749C713.126 47.6581 711.271 46.034 711.226 45.8872C710.943 44.9424 711.065 43.1007 710.844 42.018C709.861 37.2005 708.337 32.9386 708.525 27.8752C708.565 26.7995 710.567 24.0679 708.491 24.305L706.606 36.1125L707.413 36.5105C707.125 36.5689 706.577 36.6379 706.401 36.8431C706.151 37.1351 704.197 43.9305 704.46 44.21C704.992 44.2224 705.42 43.9995 705.264 44.7408C703.9 44.0278 702.632 46.0252 701.127 45.804C701.022 45.7881 699.215 45.1831 699.1 45.1264C698.993 45.0751 697.326 43.7253 697.267 43.6244C696.455 42.2427 698.891 37.2943 699.238 35.4667C699.29 35.1925 699.593 34.5981 699.091 34.66C698.303 36.3902 696.987 37.8197 695.961 39.3978C694.867 41.0803 695.259 42.1365 692.711 42.5558C688.438 43.26 688.026 40.6575 684.584 39.4368C684.328 39.7198 684.774 44.0313 684.751 44.831C684.722 45.8217 684.525 48.472 684.256 49.33C683.42 52.0068 677.279 51.7768 677.056 48.318C676.971 47.0336 677.525 45.5988 677.596 44.3427C677.824 40.3107 677.197 35.9214 676.692 31.916C676.629 31.4153 676.232 31.0332 676.228 30.2813C676.228 29.8726 677.219 26.9694 677.396 26.7659L677.389 26.7588ZM714.931 23.5089C714.043 24.8552 715.941 25.5293 716.011 25.8176C716.172 26.4722 715.968 27.8575 716.007 28.6802C716.045 29.4533 716.466 30.0566 716.007 30.9376C716.231 30.9182 716.48 30.9801 716.688 30.9553C717.049 30.9129 719.569 27.953 720.321 27.6346C720.672 26.8685 721.543 26.4368 722.021 25.876C722.377 25.4567 722.304 24.7632 722.984 24.8287C723.323 24.3227 721.104 23.5089 720.975 23.5089H714.931ZM726.747 40.4947C724.68 40.224 720.524 39.4491 718.611 40.0135C717.623 40.3054 718.034 42.9114 718.273 43.6881C718.375 44.0189 718.616 44.486 719.043 44.4382L726.745 40.4947H726.747ZM741.795 39.4315C741.626 39.665 741.818 42.6885 742.731 42.6213C745.092 42.3099 747.588 42.478 749.912 42.0145C750.77 41.8428 751.945 41.7579 752.267 40.8893C748.791 40.1427 744.755 41.8871 741.796 39.4315H741.795Z" fill="#484645"/>
<path d="M380.632 34.7626C379.844 32.1743 379.88 29.4179 379.488 26.7376C379.047 23.7247 378.666 24.719 379.545 21.3434C379.654 20.9276 379.418 20.3013 379.615 19.9546C379.663 19.8679 381.098 18.7745 381.189 18.7267C383.625 17.4476 384.3 19.3336 385.883 19.6237C387.466 19.9139 389.112 19.2062 390.415 19.3796C391.612 19.5388 394.289 21.5044 394.742 22.5606C394.776 22.6384 394.821 24.1652 394.801 24.2484C394.767 24.3881 393.105 25.83 392.983 25.8795C392.595 26.0405 392.215 25.7203 391.844 25.7999C390.333 26.1201 388.843 26.6208 387.38 27.0967C387.14 27.3639 387.52 33.4817 388.153 34.1133C388.658 34.4176 390.553 33.8196 391.321 33.7789C391.946 33.7453 393.922 33.6763 394.353 33.8161C394.821 33.9682 396.776 36.0081 396.778 36.4804C396.785 38.1559 395.779 38.0444 394.932 38.6565C394.348 39.0776 392.657 40.5248 392.183 40.7318C391.425 41.0644 390.105 40.7601 389.278 41.443C389.194 42.2161 389.035 44.2931 389.765 44.7195C390.564 44.9495 391.49 44.8805 392.319 44.8451C393.947 44.7761 396.833 44.3427 398.483 44.0348C399.358 43.8721 400.127 43.0352 400.657 42.9928C400.757 42.9839 402.575 43.1219 402.673 43.1502C403.384 43.3484 404.127 44.5125 404.81 44.8469C404.446 42.3364 403.551 39.9392 403.015 37.4659C402.679 35.9108 401.581 31.3728 401.622 30.1079C401.647 29.2923 403.053 26.4669 403.945 26.0759C406.171 25.0993 407.625 26.2245 408.954 27.884C412.123 31.8434 414.433 34.5485 418.384 37.94C418.912 38.3929 422.784 41.604 423.074 41.397L424.172 32.2309L423.346 31.3144L424.417 31.1747C423.726 29.9823 424.347 28.597 424.145 27.4753C424.05 26.9517 423.559 26.6226 423.416 26.0688C423.149 25.0409 422.263 21.722 422.329 20.9064C422.53 18.4048 424.449 16.3914 427.039 17.6953C428.588 18.4755 430.28 23.4558 430.54 25.1595C430.739 26.4634 430.133 27.9884 431.673 29.057L431.122 29.3347C431.795 31.2348 431.274 33.257 430.864 35.1553L431.405 35.15L431.639 35.6454C430.176 38.9962 430.5 43.4368 429.46 46.77C428.991 48.272 427.889 49.7334 426.176 49.6325C425.81 49.6113 422.958 48.9036 422.496 48.7426C419.994 47.8651 417.945 46.0535 415.882 44.5815C414.752 43.7748 412.675 41.5421 412.578 43.9145C412.492 46.0163 414.197 48.4242 412.336 50.5543C410.739 52.3818 407.79 51.7927 406.583 49.8625C405.992 48.9178 406.122 47.6227 405.352 46.9681C405.365 49.583 401.645 50.3172 399.504 50.8798C395.671 51.8864 390.319 52.6383 386.427 51.729C381.848 50.6604 382.677 45.4962 381.939 41.9631L374.995 41.6624C375.514 43.267 375.826 45.4696 376.472 46.9664C377.511 49.3689 378.243 48.4772 378.215 51.8741C378.207 52.7003 378.229 53.7458 378.202 54.5119C378.136 56.3059 376.114 57.6681 374.377 57.2647C373.734 57.1161 371.861 56.0829 371.499 55.5239C371.286 55.1948 371.082 54.6587 370.951 54.2766C369.506 50.0076 368.415 44.3073 367.326 39.8118C367.187 39.2368 366.641 35.5587 366.263 35.5605C365.652 35.9462 365.324 36.7264 364.843 37.1492C364.273 37.6481 360.887 40.178 360.364 40.3426C358.464 40.9388 356.997 40.3125 355.115 40.3355L357.556 55.0657C357.776 56.2599 355.726 58.9118 354.728 58.9384C352.617 58.995 351.793 57.6398 350.591 56.3536C350.121 52.196 349.397 48.0739 348.937 43.9145C348.842 43.0512 349.017 42.1365 348.93 41.2678C348.74 39.3996 347.8 35.9692 347.846 34.3486C347.852 34.177 348.914 31.2614 349.007 31.1181C349.055 31.0438 350.328 30.1167 350.45 30.0707C350.796 29.9433 351.965 30.0548 352.379 30.1486C354.637 30.6616 356.05 34.2407 358.261 33.4976C358.944 33.2676 361.026 31.4984 361.553 30.9075C363.381 28.8606 365.416 22.8507 367.611 22.0316C369.214 21.4336 371.377 22.205 371.897 23.8839C372.511 25.8689 372.541 29.2569 372.874 31.41C373.075 32.7015 373.327 34.0089 373.67 35.2686C374.223 35.6436 375.267 34.759 375.392 34.759H380.63L380.632 34.7626Z" fill="#484645"/>
<path d="M181.855 35.8223C184.773 35.6914 187.668 36.093 190.449 36.882C189.783 35.8046 190.093 34.4954 189.85 33.3649C189.303 30.8332 187.16 26.1608 187.509 23.7689C187.812 21.6954 190.276 20.4641 192.21 20.4234C194.144 20.3827 195.53 22.6702 195.8 24.3014C196.757 30.0831 198.1 35.8028 198.51 41.7933C198.623 43.4457 198.383 45.9279 198.497 47.621C198.558 48.5321 198.888 49.5016 198.893 50.4375C201.404 51.3044 204.068 51.2938 206.699 51.2124C208.461 51.1575 211.427 50.418 213.117 50.9806C213.587 51.1363 213.361 51.7962 213.818 51.7449C213.171 48.1588 211.726 44.7496 210.929 41.2006C210.666 40.0312 209.692 35.4968 209.776 34.6263C209.867 33.6798 210.72 33.0819 210.057 32.1106C211.334 32.1371 211.608 30.6917 212.942 30.5732C213.368 30.536 215.268 30.7855 215.689 30.9252C216.753 31.2755 217.922 33.3879 218.069 34.4353C218.864 40.1196 219.759 45.7686 221.194 51.4937C221.772 53.7972 223.346 55.6778 220.861 57.8503C218.576 59.8477 215.644 58.1794 214.76 55.7238L213.356 57.309L199.45 57.8539C196.963 58.0503 193 60.0388 191.284 57.1586C191.189 56.9976 190.555 55.4195 190.552 55.3222C190.548 55.1966 190.856 53.2381 190.926 52.886C191.005 52.4968 191.005 52.4508 190.58 52.5393C189.629 52.7356 188.406 54.1262 187.584 54.6234C182.228 57.8716 175.416 59.5063 169.59 61.2224C169.254 61.3215 167.209 61.3002 166.822 61.1534C164.698 60.3449 166.505 58.2449 164.662 57.8468L164.692 57.3444C165.658 57.2081 165.086 55.0267 165.21 54.0165C165.507 51.5804 165.421 50.7382 165.201 48.1623C165.126 47.283 165.242 46.3843 165.215 45.5015C164.132 44.3179 163.02 43.3325 163.02 41.5297C163.02 40.2789 163.693 40.3992 164.062 39.6137C166.018 35.4596 163.548 29.11 166.931 25.9945C168.453 24.5933 169.067 25.2196 170.683 24.9242C173.829 24.351 176.261 23.8344 179.522 24.167C185.201 24.7455 188.999 26.2139 184.921 32.0911C184.477 32.7333 181.352 35.3429 181.85 35.8223H181.855ZM186.918 43.0282C183.421 42.1542 180.618 42.5823 177.151 42.9875C176.297 43.0883 175.401 42.8743 174.527 43.0494C174.28 43.0989 172.285 44.0614 172.18 44.1799C171.256 45.206 173.177 51.89 172.722 53.6025C176.168 52.419 179.88 51.5804 182.905 49.468C184.459 48.3835 185.652 46.8514 187.092 45.6501L186.916 43.0264L186.918 43.0282ZM173.258 32.3777C172.866 32.3565 172.543 32.2946 172.312 32.6343L172.187 33.4357L173.258 32.3777Z" fill="#484645"/>
<path d="M272.914 29.9911C272.948 29.9557 273.514 29.9805 273.859 29.7311C275.143 28.8129 276.281 27.0048 277.661 26.0476C279.626 24.6854 284.379 22.7287 286.741 22.5447C288.044 22.442 293.805 22.3341 294.754 22.6084C295.195 22.7357 296.064 23.9034 296.244 24.3209C297.253 26.6403 296.194 28.6306 293.599 28.6589C292.962 29.1614 295.311 29.563 295.455 29.7629C295.528 29.8655 295.317 30.1928 295.363 30.368C295.815 32.0381 295.589 32.3671 293.703 32.6077C290.781 32.981 289.008 32.5954 286.291 33.9789C285.972 34.1416 286.135 34.4671 285.946 34.5008L285.548 34.4937L285.158 33.7471C284.09 34.2955 282.332 33.8055 282.582 35.4119C282.69 36.0948 283.458 36.1956 283.392 36.8821L282.588 37.0183C284.368 37.1245 284.722 38.347 285.99 39.228C286.902 39.8614 288.637 40.8627 289.651 41.4501C292.203 42.9309 295.519 43.3237 296.024 46.9646C296.606 46.6302 296.638 45.8854 297.267 45.4113C299.036 44.0826 302.46 45.0681 304.747 44.8398C306.706 44.6435 309.031 43.5873 310.25 42.0569C309.314 41.0255 309.203 39.9357 308.246 38.7362C306.975 37.1439 304.158 34.1664 301.936 35.1624C301.345 35.4278 299.466 37.6251 299.509 38.3204C299.536 38.7733 299.985 39.2599 300.059 39.9268C300.139 40.661 300.19 42.616 299.778 43.1131C298.922 44.1481 298.325 43.4475 297.459 43.3396C297.174 43.3042 296.819 43.5183 296.486 43.4581C296.318 43.428 294.09 42.5576 293.986 42.4762C292.999 41.6995 292.586 37.9914 292.854 36.806C293.186 35.3464 295.415 34.2885 294.948 32.9032C296.341 33.5242 296.61 31.7037 297.179 31.1252C297.353 30.9483 299.292 29.3012 299.428 29.2463C299.799 29.0977 304.203 28.0946 304.459 28.1282C305.062 28.206 307.294 29.3755 307.933 29.7611C312.648 32.6113 315.764 37.8905 317.05 43.0477C317.116 43.313 317.13 43.8456 317.508 43.7819C317.473 41.9614 317.449 39.895 317.222 38.0975C316.971 36.1072 316.466 33.5631 316.099 31.5109C315.726 29.4268 315.048 29.2498 315.66 26.6969C316.391 23.6486 318.151 23.5726 320.843 24.6447C321.74 26.9198 323.653 29.31 325.653 30.7448C329.79 28.7722 332.628 26.1166 335.461 22.6402C335.823 22.1944 335.925 21.6123 336.21 21.2567C337.925 19.1054 340.93 17.1487 342.725 20.3332C344.078 22.734 342.665 26.1927 343.007 28.8076C343.077 29.3348 343.579 28.9756 343.595 29.8337C343.704 35.5092 342.574 41.7632 343.577 47.6422L342.973 55.8034L340.509 58.0945C339.863 57.0348 338.212 57.3709 337.501 56.8048C337.22 56.5819 336.485 54.5544 336.419 54.1369C336.158 52.5004 336.747 49.2398 336.733 47.3326C336.691 42.1772 336.419 36.9582 336.039 31.8399C335.869 31.6718 333.446 34.0532 333.217 34.223C332.076 35.0651 327.567 37.7914 326.376 38.0904C325.533 38.3027 325.332 38.002 324.827 38.002C323.833 38.002 324.553 38.6247 324.598 38.9732C324.886 41.1989 324.784 40.2329 326.468 41.4324C326.84 41.6978 327.035 42.3347 327.354 42.4302C327.791 42.5611 328.427 41.9419 328.789 42.3205C328.334 43.2617 327.406 43.6545 326.38 43.5112C326.659 42.5134 324.679 39.9728 323.817 40.8592C323.395 41.2944 323.232 44.6258 323.226 45.4732C323.226 45.7457 323.633 46.1083 323.654 46.5542C323.715 47.8811 322.304 50.3933 320.882 50.4304C317.922 50.5101 316.559 48.9355 316.987 46.0517C317.057 45.5829 317.936 44.4719 317.243 44.3162C316.181 46.2552 313.316 49.2681 311.344 50.2995C310.107 50.947 310.007 50.8727 308.866 51.7113C308.698 51.8352 308.108 51.453 307.723 51.4902C307.159 51.545 306.654 51.9183 306.071 51.9909C302.208 52.4668 296.295 53.1107 296.284 47.7661C295.79 47.943 295.824 48.732 295.483 49.2274C292.951 52.8914 288.243 47.5927 285.346 46.7771C280.305 43.5996 271.995 38.6884 272.661 31.7214C272.694 31.3852 273.052 31.1322 273.106 30.8669C273.163 30.582 272.828 30.0849 272.914 29.9911ZM288.762 28.9279C286.39 28.4626 280.783 30.299 279.246 32.1248C277.994 33.6126 280.502 35.1465 281.51 36.0895C281.041 34.752 281.488 34.2248 282.412 33.2641C282.735 32.928 285.86 30.2176 286.083 30.1238C286.859 29.8001 288.186 30.0301 288.762 28.9296V28.9279Z" fill="#484645"/>
<path d="M623.706 25.202C625.033 22.642 627.536 19.507 630.063 17.8192C631.204 17.0584 631.859 17.4919 632.796 17.0726C633.869 16.5896 633.555 15.6572 635.348 16.2818C635.722 16.4127 637.547 17.4264 637.905 17.6759C638.405 18.0244 639.576 19.4946 639.979 19.6485C640.237 19.7476 640.692 19.4521 640.772 19.5317C640.817 19.5742 640.821 20.1474 641.048 20.4588C642.303 22.1784 645.801 24.995 646.145 27.1056C646.599 29.892 644.698 32.1495 641.793 31.6701C638.89 31.1906 639.347 29.3029 637.946 27.5107C635.226 24.0343 634.34 30.253 634.641 32.238C637.515 33.0359 643.188 33.6427 645.495 35.4473C646.001 35.8436 646.41 36.898 646.884 37.0041C647.316 37.1014 648.689 36.6981 649.386 37.0413C649.11 35.3871 648.605 33.763 648.344 32.1017C648.048 30.2176 648.08 27.6045 647.715 25.8229C647.398 24.2784 645.468 22.596 647.097 20.8498C647.307 20.6251 648.731 19.491 649.028 19.3071C650.469 18.4136 654.569 18.8541 656.501 18.7285C659.563 18.5304 664.416 17.5644 667.213 17.7555C670.209 17.9607 671.714 22.6844 669.52 24.4253C667.582 25.9627 656.042 26.0299 655.817 26.8561L656.771 38.3717C657.364 39.5553 662.398 38.5575 664.044 40.4753C664.232 40.6929 665.179 42.6266 665.166 42.7522C665.14 43.0105 664.565 43.2193 664.493 43.5766C664.395 44.0738 664.95 44.4418 664.289 45.2644C663.687 46.011 663.121 45.5121 662.817 46.0623C665.211 45.9349 667.863 45.337 668.938 48.111C669.346 49.1655 669.219 52.0404 668.003 52.3836C667.489 52.5287 666.852 52.3801 666.244 52.5039C661.973 53.3673 659.884 52.7445 655.627 52.235C655.013 52.1607 654.658 52.4703 653.738 52.2598C650.643 51.5503 649.767 47.9978 650.344 45.268L645.489 43.7836C642.02 46.2764 637.744 48.525 633.749 50.1244C631.954 50.8426 628.409 52.3411 626.612 51.7202C625.844 51.4548 625.382 49.8961 625.051 49.2716C624.693 48.5958 624.037 48.7586 624.179 47.598C624.331 46.3542 625.62 45.1671 626.809 44.8628C627.633 44.6523 628.351 44.8504 629.08 44.7178C630.332 44.4895 634.934 42.2338 636.319 41.5191C636.764 41.2891 637.613 40.9353 637.832 40.4965C634.311 39.5199 630.532 39.3076 627.026 38.2992C625.953 37.9913 624.103 37.4252 623.444 36.53C623.274 36.2982 622.103 33.6763 622.046 33.4003C621.399 30.2954 622.34 27.8345 623.702 25.2037L623.706 25.202ZM634.075 24.0396C633.602 23.9936 633.197 24.0184 632.746 24.1847C631.313 24.7119 628.502 29.6196 629.288 30.8952L632.732 31.7338C632.826 31.6382 632.644 30.49 632.495 30.299C632.228 29.954 631.587 30.3927 631.661 29.8797C633.28 30.1026 632.363 28.1989 632.502 27.417C632.606 26.8331 634.497 24.4394 634.075 24.0396Z" fill="#484645"/>
<path d="M131.282 32.705C131.987 33.28 131.059 33.8833 131.274 34.4105C131.656 35.3429 133.665 36.5848 134.15 37.7047L136.187 41.3952C136.187 40.5584 136.201 39.718 136.187 38.8795C136.153 36.5211 135.988 33.8621 136.192 31.4489C136.385 29.1631 136.978 28.1229 139.217 27.2736C141.333 26.4704 143.228 28.3352 143.437 30.3874C143.896 34.9023 142.873 39.1749 143.778 44.1162C144.096 45.8624 144.267 47.6493 146.487 47.2477C146.725 47.1928 147.365 43.957 147.443 43.359C147.861 40.1851 148.145 34.453 147.399 31.5161C146.776 29.0711 144.956 27.6894 147.11 24.933C150.436 24.3828 152.386 25.4709 153.756 28.4218C156.004 33.2641 155.373 41.5067 154.691 46.8054C153.761 54.0431 150.253 53.2912 144.136 54.1581C143.556 54.2395 143.144 54.7313 142.574 54.6181C142.27 54.5579 139.697 53.2222 139.501 52.9869C138.113 51.3168 137.764 47.3945 136.862 45.3812C135.923 46.9115 135.526 48.7373 134.534 50.2464C132.954 52.6454 128.674 57.5407 125.993 58.5279C120.836 60.4263 115.671 59.1507 110.609 58.3192L104.559 55.6672C103.984 55.1824 103.445 50.4853 103.408 49.5051C103.164 43.3148 104.26 35.9444 107.351 30.5555C107.939 29.5311 111.581 24.5067 112.432 24.4058C112.901 24.351 113.329 24.6252 113.764 24.627C117.56 24.6464 125.073 27.9619 128.123 30.3945C128.719 30.8704 128.877 31.5604 129.652 32.0663C130.155 32.3954 131.061 32.5246 131.283 32.7068L131.282 32.705ZM111.038 42.2869C110.795 42.7486 110.682 44.8487 110.657 45.5015C110.621 46.4215 110.514 49.8324 110.802 50.4233C111.042 50.9134 112.596 51.5344 113.148 51.5875C113.771 51.6476 113.861 51.2283 114.427 51.3238C115.637 51.5291 115.449 52.4331 115.678 52.5534C117.509 53.5141 122.542 53.2257 124.358 52.1377C125.241 51.6087 127.784 48.5586 128.4 47.6386C129.967 45.2945 129.838 43.8332 128.406 41.5244C127.25 39.665 126.088 39.2014 124.767 37.9542C123.991 37.2235 123.468 36.1938 122.471 35.4455C121.473 34.6971 118.529 33.1756 117.466 34.0478C115.186 35.9178 113.975 43.3042 114.16 46.1773H113.357C113.467 45.6784 113.092 45.1282 113.114 44.6983C113.13 44.3533 113.517 44.1038 113.524 43.9198C113.537 43.6403 112.636 42.5965 112.639 42.324C112.643 42.0923 113.427 41.4182 113.381 40.201C113.327 38.8158 112.851 39.3076 112.586 38.9768C112.478 38.8423 113.39 35.2084 111.522 38.6742L111.456 39.1218L111.979 39.3005L112.011 39.8012C110.231 40.3178 111.767 40.8592 111.753 41.2431C111.726 42.041 111.137 42.0976 111.037 42.2869H111.038ZM115.234 32.9067C113.477 32.8872 113.184 35.3057 112.82 36.6202C113.544 36.3778 115.739 33.4233 115.234 32.9067Z" fill="#484645"/>
<path d="M796.323 24.0396C795.827 25.8088 796.364 27.3055 796.323 29.08C797.487 29.0021 798.325 29.7699 799.274 28.8164L798.699 30.1185L797.129 29.8796C797.515 30.5555 796.921 31.0243 796.932 31.5497C796.944 32.2008 797.573 33.188 797.546 33.7187C797.512 34.4017 796.011 35.7197 795.644 36.7706C795.483 37.2323 795.58 37.7489 795.445 38.1665C794.398 41.3987 793.371 44.6505 792.211 47.8421C790.778 49.0328 788.441 49.3689 786.66 48.8328C786.319 48.7302 785.207 47.6333 784.865 47.299C783.166 45.643 781.618 43.3678 780.098 41.5208C779.869 41.2431 780.093 40.8591 779.4 41.0255C779.683 42.9149 780.476 44.1534 779.846 46.1118C778.986 48.7815 777.308 48.3375 774.991 48.9921C774.656 48.0916 773.717 48.1075 773.212 47.5343C773.143 47.4564 772.213 45.9738 772.19 45.8801C772.109 45.5457 772.453 44.0649 772.41 43.2847C772.262 40.5584 771.157 37.4942 771.044 34.6847L769.194 34.6529C769.276 34.1451 770.136 34.3875 770.544 34C771.363 33.2287 769.411 29.0499 769.728 27.7549C767.686 27.6947 768.413 30.3626 768.082 31.3091C767.894 31.8434 766.873 31.4577 767.58 32.5299C766.88 32.6413 767.023 32.4096 767.032 31.8611C767.045 30.9871 767.475 30.1256 767.33 29.225L766.506 29.08L767.801 28.5068L768.177 27.0153L769.19 26.9605L769.069 22.6809C770.551 20.365 771.776 18.3853 774.754 20.0059C776.588 21.0037 778.488 26.389 779.717 28.3723C781.289 30.9111 783.998 34.7573 785.859 37.105C786.224 37.5667 786.934 38.124 787.326 38.6318C787.917 38.6282 788.479 34.4423 788.531 33.7241C788.826 29.6249 788.115 25.4355 788.918 21.3681C789.109 20.7984 791.301 18.893 791.962 18.7957C792.961 18.6471 793.427 19.5052 794.177 17.8015C793.78 17.5502 793.499 17.8333 793.638 17.1433C794.949 17.4883 795.56 16.4834 796.718 16.3401C798.592 16.1066 800.117 17.0602 801.539 16.8673C802.653 16.7152 804.521 15.5404 805.603 15.5829C806.819 15.6307 807.476 17.1787 808.325 17.3468C811.022 17.8793 816.464 16.7311 818.086 19.3919C818.967 20.8374 818.81 23.2788 817.017 23.921C816.858 23.9777 815.348 24.3067 815.259 24.3067H811.229C810.518 25.0551 811.381 26.6863 811.561 27.6947C812.37 32.2609 813.273 38.1629 812.714 42.7557C812.576 43.8844 811.342 45.781 810.169 45.8164C809.311 45.8429 806.915 44.9106 806.267 44.3356C804.632 42.8902 805.32 40.2895 805.184 38.3681L804.65 38.6388C804.799 37.9382 804.96 37.3916 804.936 36.6432C804.854 34.161 804.32 30.5342 803.69 28.2591C803.334 26.9711 802.519 25.416 802.231 24.0413H796.321L796.323 24.0396Z" fill="#484645"/>
<path d="M219.999 36.0912C220.676 35.9656 220.793 36.8466 221.423 36.836C222.659 36.8148 224.462 34.3875 226.176 35.0262C225.773 34.1133 226.038 33.1261 225.895 32.2539C225.728 31.2401 225.123 29.9787 225.094 28.7792C225.066 27.5797 225.739 26.8101 225.605 25.653L223.049 23.3708L221.88 24.1475C221.813 22.2297 224.181 19.2221 226.054 18.8523C227.229 18.6206 228.824 18.8771 229.8 18.7851C230.689 18.702 231.609 18.3906 232.49 18.3127C235.028 18.0845 237.605 18.0633 240.144 17.7749C240.035 17.2512 239.596 17.3202 239.202 17.2477C235.744 16.6143 230.828 12.7805 227.875 10.6575C226.265 9.50046 223.848 8.76802 223.739 6.22748C223.685 4.97313 225.327 2.87135 226.459 2.52105C226.564 2.48921 228.531 2.40782 228.661 2.42729C230.279 2.68205 231.906 4.7396 233.185 5.67903C235.488 7.37037 239.349 9.45623 241.229 11.2661C243.362 13.3183 243.491 15.5369 241.22 17.5095C242.866 16.9752 246.89 18.1694 247.074 20.0748C247.168 21.0514 246.047 21.269 245.86 21.5645C245.692 21.8334 245.819 22.3128 245.542 22.7056C244.412 24.3085 234.786 24.9277 232.626 26.0087L233.162 27.4877C232.648 28.5421 233.771 35.6418 234.225 35.9691C234.892 36.0788 235.583 36.3035 236.256 36.3495C238.55 36.5087 239.489 35.9674 241.419 35.6241C243.35 35.2809 244.607 35.9143 245.142 37.8692C245.764 40.1426 244.598 39.4243 243.96 39.8525C243.57 40.1161 244.043 41.3067 241.938 41.9719C240.696 42.3629 236.068 42.7698 235.572 43.1131C234.777 43.6633 235.556 45.1122 236.319 45.5811C237.132 46.08 240.237 47.0778 239.881 45.3811L240.42 45.574V46.179L241.489 45.9084L240.683 45.6448C240.939 44.0118 241.833 45.4218 242.499 45.5899C244.161 46.011 244.188 44.47 244.904 44.0348C245.486 43.681 246.183 44.0773 246.476 43.8207C247.368 43.0423 246.951 41.5845 249.413 41.9153C249.843 41.9737 250.479 43.0299 251.161 43.1891C251.922 44.8274 251.041 49.1583 249.544 50.2835C249.023 50.6763 245.112 51.7714 244.238 51.9413C240.572 52.656 233.343 52.4632 230.225 50.2729C226.973 47.9871 228.192 45.5917 227.243 42.2055C225.1 42.5381 223.323 41.3085 222.31 39.5163C222.073 39.0988 222.116 38.4654 221.903 38.124C221.661 37.7383 219.776 37.3455 220.001 36.093L219.999 36.0912Z" fill="#484645"/>
<path d="M0.340231 49.4114C0.512147 49.2964 0.852399 49.3689 1.07446 49.3565C-0.462046 46.4639 1.07267 45.6678 3.6926 47.1521C4.05255 47.3556 4.42325 48.0208 4.77603 48.2826C8.4418 50.993 11.8336 52.7109 16.1745 54.2094C16.9176 54.4659 19.8295 54.7826 20.5028 54.6782C20.7052 54.6463 20.6711 54.1934 21.0114 54.0572C21.6973 53.7848 22.6213 53.6273 23.3663 53.6061L22.025 54.1386C22.5855 55.7875 24.5715 55.5592 25.9379 54.9506C26.1904 54.2341 26.0937 53.5229 25.9236 52.8064C25.5278 51.1434 23.2839 46.9752 22.4458 45.0981C20.8198 41.4571 18.3592 37.2288 16.9875 33.5082C16.3392 31.7496 16.4359 31.3268 16.8281 29.4957C16.9284 29.0269 17.5999 26.6668 17.899 26.5642C18.567 26.336 21.6489 27.7478 22.213 28.2131C23.5418 29.3117 25.3917 37.9082 26.459 37.9435C26.8512 37.388 27.8415 36.3124 27.8111 35.6843C27.7896 35.2509 26.2352 33.8815 26.0597 32.751C25.9128 31.8133 26.6882 31.0809 26.502 30.0601C27.9597 29.1224 27.863 28.1971 28.4146 26.8773C29.9582 23.1886 31.1419 19.9899 32.4188 16.2375C32.8378 15.0044 33.7529 12.6708 35.1103 12.2533C36.4194 11.8517 36.3406 12.7168 36.9226 13.2865C37.7428 14.0915 38.1332 13.8827 38.1171 15.4962C38.0634 20.4517 36.7722 21.3575 35.2715 25.4213C34.0305 28.7774 34.6268 31.1127 32.3543 34.4813C31.8403 35.2438 30.5617 35.6241 31.1616 36.6184L28.7441 36.622C28.5381 37.4588 29.8472 37.2429 30.354 37.4199C30.4417 37.8374 29.8633 37.6605 29.6824 37.94C29.1613 38.7521 30.1319 40.0329 27.8666 39.2598C27.5603 39.1554 27.7323 38.4177 27.3956 38.8777C27.5317 39.649 27.4869 40.4328 27.7215 41.1864C29.1255 45.6678 32.2397 50.3632 33.7153 54.9347C34.1594 55.5097 34.5928 54.7755 35.216 54.7914C36.414 54.8233 37.2897 56.0652 38.6454 55.7627L39.0895 57.845C37.0355 57.6416 36.1812 56.0953 34.1165 55.9927C34.4764 58.259 36.4624 60.2865 35.0942 62.5351C34.3188 63.8089 33.2945 63.5117 32.1627 63.7505C26.8243 64.8775 17.7898 61.9141 12.5588 59.9061C9.74191 58.8234 7.14705 57.6026 4.77424 55.7167C2.73274 54.0944 1.60991 52.1359 0.00177002 50.3048C0.0734019 50.0518 0.141452 49.544 0.342021 49.4096L0.340231 49.4114Z" fill="#484645"/>
<path d="M51.8418 57.4523C51.754 58.1847 51.095 60.1839 50.7351 60.8703C48.8637 64.437 43.7599 63.126 44.3151 58.7721C44.4762 57.5071 45.5239 56.6614 45.1317 55.1028C45.0529 54.7914 44.4745 55.1063 44.5909 54.6693L45.4146 54.5207C45.3269 53.5831 45.5149 52.5906 45.3322 51.6635C45.1209 50.5896 42.5708 50.0553 42.4598 47.8792C42.3631 45.9844 44.0178 43.5412 46.1883 44.0366C46.7309 40.1745 47.4418 36.3283 48.0507 32.475C48.4608 29.8725 48.5485 27.5231 49.2129 25.1347C49.4833 24.1581 50.719 23.5424 51.7039 23.5937C52.2591 23.622 52.5599 23.9458 52.9216 24.0166C53.2834 24.0873 53.6326 23.9069 53.9746 24.0236C55.6025 24.5774 56.2722 28.045 56.985 29.5506C58.1275 31.9637 59.8359 34.7095 61.2435 37.02C62.4917 39.0687 66.4063 45.7421 67.7208 47.0796C68.1112 47.4759 68.5929 47.4246 68.7702 47.6935C69.32 48.5268 69.4059 49.9138 69.7175 50.6745C70.5682 52.748 72.8586 55.4354 73.7038 57.6168C74.3826 59.363 73.9922 59.0958 73.6555 60.4475C73.5749 60.773 73.8758 61.1516 73.8202 61.2648C73.7289 61.4524 72.2569 62.5634 71.836 62.6076C70.0291 62.7934 67.9017 61.7708 66.8988 60.3059C65.9586 58.9313 64.1481 53.9882 63.1238 53.2115C62.1711 52.4879 59.0193 52.8719 57.6637 52.5357C57.173 52.656 57.5473 53.8927 56.6805 53.6096V52.5446H55.6061L55.8586 54.2837L57.0888 54.135C56.9115 55.078 57.3503 55.9874 57.2339 56.9357C57.1103 57.9282 56.5641 59.064 56.0305 59.7327C55.6974 60.152 56.1934 60.7288 55.0688 60.5076C54.6354 59.4479 55.5684 59.1454 55.5649 59.0604C55.5523 58.7101 55.5613 57.5832 55.5434 57.4859C55.4807 57.1515 54.913 56.9516 54.8539 56.6296C54.8002 56.3359 55.1028 55.9608 55.0742 55.6424C55.0599 55.4885 53.518 54.1156 53.3747 53.7918C53.1544 53.2929 53.3693 53.0152 53.4535 52.5463H51.8418C51.7075 54.1085 52.0245 55.9255 51.8418 57.454V57.4523ZM53.7257 38.4778C53.1956 40.5973 52.619 42.7256 52.6835 44.9442L53.0954 45.3334L56.1379 45.6412C56.24 45.2343 55.7601 45.4873 55.615 45.1848C55.0742 44.0507 55.4717 43.29 56.6734 42.9822L53.7257 38.4796V38.4778ZM56.6805 43.2546L56.6877 45.4785L58.5537 46.172C58.9011 45.7173 57.327 43.4598 56.6787 43.2528L56.6805 43.2546Z" fill="#484645"/>
<path d="M454.637 22.2899C453.514 22.649 454.345 28.1512 454.572 29.2534C455.512 33.8231 461.343 46.9469 460.101 50.51C459.95 50.9417 459.325 51.0178 459.058 51.3398C458.757 51.7024 458.668 52.2757 458.466 52.4738C457.66 53.2593 455.675 52.3394 454.907 51.7449C452.389 49.7988 452.733 47.483 452.008 44.7903C450.056 37.5543 446.195 30.5289 446.714 22.8189C443.358 22.7446 435.083 22.8295 437.125 17.4618C437.549 16.3472 438.713 15.5776 439.886 15.4131C443.31 14.9336 447.327 15.9279 450.885 15.6643C452.38 15.5546 454.205 14.8859 455.74 14.8841C457.031 14.8841 460.498 15.2521 461.827 15.4449C464.225 15.7952 465.254 17.8669 464.497 20.089C464.298 20.6711 462.67 22.2881 462.158 22.2881H454.637V22.2899Z" fill="#484645"/>
<path d="M70.9156 29.1914C71.8772 29.6638 72.0205 28.7845 72.7834 28.5138C75.2314 27.6451 77.3678 28.8623 78.1468 31.2012C79.7352 35.9603 81.2037 41.7897 82.3337 46.7027C83.0267 49.7174 84.8856 57.1126 84.5811 59.8123C84.5399 60.1786 84.3841 61.0278 84.2015 61.2914C83.9239 61.693 81.1607 63.3242 81.3864 61.8345C79.8713 63.0411 77.8621 60.7058 77.3624 59.2975C77.015 58.3174 77.2371 56.5093 77.0329 55.3912C76.193 50.7895 74.6189 45.5882 73.2543 41.0785C72.2766 37.8445 70.3783 34.5573 70.6362 31.1747C70.6971 30.3821 71.3651 29.9398 70.9156 29.1932V29.1914Z" fill="#484645"/>
<path d="M214.086 13.2671C214.083 15.1813 215.741 15.6484 215.662 17.9253C215.642 18.472 214.07 20.9436 213.628 21.239C209.69 23.8733 205.116 17.7856 209.391 14.5957C210.958 13.4263 212.306 13.6935 214.086 13.2671Z" fill="#484645"/>
<path d="M869.89 41.3209C869.769 42.5859 871.044 44.6328 870.981 45.6855C870.952 46.172 869.83 47.0813 869.89 47.8881C866.991 48.1941 865.591 48.4082 863.748 45.9296C862.589 44.371 862.779 42.8866 864.011 41.4164C865.607 39.511 868.01 40.9104 869.892 41.3191L869.89 41.3209Z" fill="#484645"/>
<path d="M67.8676 13.3626C68.0843 13.4776 69.9879 15.3565 70.0542 15.5776C70.8171 18.1376 69.4274 20.0147 66.9955 20.6817C65.853 20.9948 65.1725 20.7064 64.2036 20.0253C60.5486 17.4512 63.4497 11.0343 67.8676 13.3626Z" fill="#484645"/>
<path d="M532.703 17.0407C532.626 17.1575 532.291 17.2176 532.159 17.4158C531.895 17.8085 532.087 18.4225 531.598 18.7232C530.961 17.8652 529.363 18.4419 528.83 18.1429C528.699 18.0704 527.001 16.0341 526.903 15.8766C524.718 12.3329 530.414 8.38237 533.487 11.8199C534.886 13.3856 533.681 15.5617 532.701 17.0407H532.703Z" fill="#484645"/>
<path d="M845.376 46.7718C844.201 48.7992 840.079 48.2685 839.583 45.6536C838.961 42.3771 841.021 41.0131 844.006 40.9989C846.413 40.9865 846.345 45.1017 845.376 46.7718Z" fill="#484645"/>
<path d="M883.714 42.1737C884.835 41.0644 886.652 40.845 888.164 41.0485C888.044 41.9225 889.03 43.1396 889 43.7836C888.977 44.2648 887.288 47.5785 886.849 47.789C885.144 48.6135 882.467 46.9328 882.562 44.9088C882.596 44.1746 883.185 42.6974 883.714 42.1719V42.1737Z" fill="#484645"/>
<path d="M842.525 51.108C847.543 51.5503 850.428 47.1256 849.182 42.5399C849.056 42.0781 847.787 40.7795 848.832 40.7601C849.022 40.8344 850.876 43.7977 850.999 44.1923C852.067 47.6139 849.269 50.2606 847.171 52.6436C845.973 53.001 845.716 52.3977 845.004 52.2403C844.252 52.0757 842.538 52.2703 842.527 51.108H842.525Z" fill="#484645"/>
<path d="M38.1422 28.1317C39.6518 27.907 39.9437 27.6045 40.429 26.274C41.7095 26.5766 40.1694 28.0132 40.0763 28.3157C39.4584 30.3078 39.6877 32.2521 38.5702 34.7891C38.2478 35.5215 37.485 37.6446 36.4481 37.3898C34.8382 36.4928 36.3478 35.3199 36.6612 34.2318C36.9746 33.1438 37.0015 31.7656 37.4133 30.7288C37.8252 29.6921 39.1594 29.0747 38.1404 28.1317H38.1422Z" fill="#484645"/>
<path d="M848.433 40.4911C848.125 40.7777 845.801 39.1926 845.22 39.0245C843.997 38.6707 842.113 38.5928 840.91 39.0298C840.025 39.3518 838.611 40.9954 837.935 40.1019C837.097 37.5968 842.262 36.5547 844.01 36.7723C844.996 36.8944 845.793 37.5844 846.812 37.7171L848.433 40.4929V40.4911Z" fill="#484645"/>
<path d="M146.931 35.5605C146.844 37.1651 147.538 39.55 145.323 39.8048C145.826 38.6831 144.798 38.14 144.777 38.0391C144.578 37.0838 145.855 35.426 146.933 35.5605H146.931Z" fill="#484645"/>
<path d="M869.387 50.5773C870.428 50.8055 870.143 50.0943 870.492 49.6768C870.841 49.2592 871.767 48.4419 872.039 48.0314C872.344 47.5714 872.245 46.7965 872.876 46.5966C873.78 48.7426 872.827 48.4047 871.631 49.6095C871.337 49.9067 870.788 50.9842 870.671 51.0479C870.345 51.2301 869.083 51.3362 869.387 50.5773Z" fill="#484645"/>
<path d="M502.68 49.7422C503.037 49.169 502.111 47.7695 503.792 47.3927C503.988 48.8859 503.246 51.4459 501.378 51.3716C500.89 49.9987 502.53 49.981 502.68 49.7422Z" fill="#484645"/>
<path d="M160.362 44.5815L159.311 44.2913C158.982 43.8473 160.214 42.5257 158.754 42.4532C158.332 41.8976 160.051 40.9476 160.523 42.4532C160.765 43.2228 160.318 43.8314 160.364 44.5815H160.362Z" fill="#484645"/>
<path d="M32.5012 39.5376L30.739 39.0227C30.3755 38.3504 30.7534 37.8285 31.2924 37.4216L32.5012 39.5376Z" fill="#484645"/>
<path d="M34.3797 43.52C34.1398 44.8841 34.9958 45.6006 35.456 46.7028C34.917 46.7983 34.0055 46.6055 33.907 46.011C33.8926 45.9279 33.9553 44.6346 33.9661 44.3179C33.9804 43.9517 33.7798 43.6651 34.3797 43.52Z" fill="#484645"/>
<path d="M70.3783 23.3567C71.6784 23.155 71.8128 21.6035 72.7905 20.963C72.8389 21.8883 71.4403 23.9759 70.5126 23.8839L70.3783 23.3567Z" fill="#484645"/>
<path d="M73.8704 15.9226C74.5258 15.0716 74.4416 17.6511 74.4201 17.9253C74.3843 18.3782 74.4506 18.8028 74.0011 19.1036L73.8704 15.9226Z" fill="#484645"/>
<path d="M727.287 49.5193L729.435 49.2504V50.0465C728.826 49.6537 727.092 50.6109 727.287 49.5193Z" fill="#484645"/>
<path d="M565.018 41.8375C565.072 41.8764 565.066 42.1949 565.211 42.3187C565.462 42.5346 566.529 43.1679 565.439 43.4085C564.912 43.5235 564.619 42.4408 564.239 42.2161C564.409 42.0056 564.744 41.6411 565.018 41.8375Z" fill="#484645"/>
<path d="M433.28 30.2547C433.061 30.7235 432.619 30.5183 432.603 31.295C432.594 31.778 433.305 32.0133 432.88 32.3724C431.795 31.8027 431.69 30.2299 433.282 30.2529L433.28 30.2547Z" fill="#484645"/>
<path d="M37.3381 53.0753C37.4832 52.9125 39.1343 53.783 38.6776 54.1333H37.3345L37.3363 53.0753H37.3381Z" fill="#484645"/>
<path d="M688.069 48.7196H688.467C690.216 50.3207 688.151 50.6569 688.069 48.7196Z" fill="#484645"/>
<path d="M500.037 41.5544C500.483 41.1617 500.938 42.4107 501.108 42.6124L500.033 42.7522C499.604 42.6089 499.985 41.5987 500.037 41.5544Z" fill="#484645"/>
<path d="M60.9731 31.0473C60.169 30.6705 59.8431 31.2455 59.0945 31.3109L60.3445 30.2795L60.9731 31.0473Z" fill="#484645"/>
<path d="M211.969 26.0317C212.134 25.9079 212.727 26.0512 213.014 26.0069V26.3997L212.073 27.0596C211.627 26.9428 211.767 26.1821 211.971 26.0299L211.969 26.0317Z" fill="#484645"/>
<path d="M218.923 20.6994H217.85V21.4938H218.923V20.6994Z" fill="#484645"/>
<path d="M158.217 49.0947C158.711 49.0327 159.005 49.0787 159.288 49.4963V49.889H158.217V49.0964V49.0947Z" fill="#484645"/>
<path d="M500.037 43.1467L501.106 44.0791V44.4718C500.383 44.5231 499.928 43.7819 500.037 43.1467Z" fill="#484645"/>
<path d="M39.4817 59.7097L39.7521 60.7695H38.9516L38.6848 60.1078C38.923 59.8247 39.0895 59.6266 39.4817 59.7115V59.7097Z" fill="#484645"/>
<path d="M730.24 51.637C729.739 51.667 729.06 51.713 728.899 51.1115L729.804 50.8745C730.149 51.039 730.317 51.2619 730.24 51.6387V51.637Z" fill="#484645"/>
<path d="M73.3332 13.5342H73.8668V15.1247C73.1863 14.9194 73.3206 14.1145 73.3332 13.5342Z" fill="#484645"/>
<path d="M32.4904 40.3355C32.2147 40.9193 34.1004 42.1365 33.1674 42.4568C32.4958 42.6867 32.9149 41.7951 32.7143 41.4519C32.6301 41.3068 31.7007 40.9388 31.4285 40.8645L32.4904 40.3373V40.3355Z" fill="#484645"/>
<path d="M501.104 44.7372L501.647 45.7969H500.574C500.503 45.3263 500.574 44.8734 501.104 44.7372Z" fill="#484645"/>
<path d="M219.999 16.9841L220.768 17.0195L221.072 17.7767H219.999V16.9841Z" fill="#484645"/>
<path d="M217.582 22.0263C218.008 21.6052 218.81 22.3995 218.384 22.8188C217.958 23.2381 217.156 22.4455 217.582 22.0263Z" fill="#484645"/>
<path d="M157.95 51.7467C158.557 51.9077 158.523 52.5658 158.484 53.0718H157.95V51.7467Z" fill="#484645"/>
<path d="M28.7441 40.3355C28.9876 40.7265 30.2591 41.2219 29.4138 41.6571L28.7441 40.3355Z" fill="#484645"/>
<path d="M35.9968 51.2159L37.0677 52.0103H35.995L35.9968 51.2159Z" fill="#484645"/>
<path d="M215.161 26.5377H214.09V27.0649H215.161V26.5377Z" fill="#484645"/>
<path d="M501.647 31.7355H502.182L502.181 33.0606L501.917 33.0589L501.647 31.7355Z" fill="#484645"/>
<path d="M836.881 46.3312L837.146 46.9947L836.75 47.3874L836.347 46.7328L836.881 46.3312Z" fill="#484645"/>
<path d="M159.56 40.0719C160.545 40.0754 160.545 40.861 159.56 40.8663V40.0719Z" fill="#484645"/>
<path d="M159.56 46.9717H160.364C160.36 47.9447 159.565 47.9447 159.56 46.9717Z" fill="#484645"/>
<path d="M689.679 43.6775V44.2047H688.606C688.75 43.6775 689.178 43.6103 689.679 43.6775Z" fill="#484645"/>
<path d="M130.818 31.3145L131.622 31.3162L131.35 32.1088L130.818 32.107V31.3145Z" fill="#484645"/>
<path d="M160.362 37.1527H159.56V37.6799H160.362V37.1527Z" fill="#484645"/>
<path d="M36.7973 49.6254H36.2636V50.418H36.7973V49.6254Z" fill="#484645"/>
<path d="M236.113 0H235.579V0.792592H236.113V0Z" fill="#484645"/>
<path d="M39.4835 58.1175H38.9498V58.9101H39.4835V58.1175Z" fill="#484645"/>
<path d="M525.551 19.5282L525.42 20.5879L525.017 19.9298L525.551 19.5282Z" fill="#484645"/>
<path d="M114.16 47.7678V48.5622C113.175 48.5586 113.175 47.7731 114.16 47.7678Z" fill="#484645"/>
</g>
<defs>
<clipPath id="clip0_128_5">
<rect width="889" height="64" fill="white"/>
</clipPath>
</defs>
</svg>
