<svg width="63" height="63" viewBox="0 0 63 63" fill="none" xmlns="http://www.w3.org/2000/svg">
<path d="M13.125 26.25V31.5C13.125 36.3734 15.0609 41.0471 18.5069 44.4931C21.9529 47.9391 26.6266 49.875 31.5 49.875C36.3734 49.875 41.0471 47.9391 44.4931 44.4931C47.9391 41.0471 49.875 36.3734 49.875 31.5V26.25M31.5 49.875V60.375M21 60.375H42M31.5 2.625C29.4114 2.625 27.4084 3.45469 25.9315 4.93153C24.4547 6.40838 23.625 8.41142 23.625 10.5V31.5C23.625 33.5886 24.4547 35.5916 25.9315 37.0685C27.4084 38.5453 29.4114 39.375 31.5 39.375C33.5886 39.375 35.5916 38.5453 37.0685 37.0685C38.5453 35.5916 39.375 33.5886 39.375 31.5V10.5C39.375 8.41142 38.5453 6.40838 37.0685 4.93153C35.5916 3.45469 33.5886 2.625 31.5 2.625Z" stroke="#FFE9DB" stroke-width="4" stroke-linecap="round" stroke-linejoin="round"/>
</svg>
