<svg width="63" height="63" viewBox="0 0 63 63" fill="none" xmlns="http://www.w3.org/2000/svg">
<path d="M2.625 2.625L60.375 60.375M23.625 23.625V31.5C23.6264 33.0565 24.089 34.5777 24.9544 35.8715C25.8198 37.1653 27.0492 38.1735 28.4873 38.769C29.9254 39.3645 31.5077 39.5204 33.0344 39.2171C34.5611 38.9138 35.9637 38.1649 37.065 37.065M39.375 24.5175V10.5C39.377 8.54707 38.6532 6.66309 37.3442 5.21377C36.0353 3.76446 34.2345 2.85322 32.2914 2.65695C30.3484 2.46069 28.4017 2.9934 26.8294 4.15167C25.257 5.30994 24.1711 7.01113 23.7825 8.925M44.625 44.4937C42.0624 47.1094 38.7768 48.8997 35.1897 49.6351C31.6026 50.3704 27.8776 50.0173 24.4926 48.621C21.1075 47.2247 18.2169 44.8488 16.1914 41.7983C14.166 38.7477 13.0982 35.1616 13.125 31.5V26.25M49.875 26.25V31.5C49.8741 32.5827 49.7774 33.6631 49.5863 34.7287M31.5 49.875V60.375M21 60.375H42" stroke="#FFE9DB" stroke-width="3" stroke-linecap="round" stroke-linejoin="round"/>
</svg>
