<svg width="82" height="75" viewBox="0 0 82 75" fill="none" xmlns="http://www.w3.org/2000/svg">
<g clip-path="url(#clip0_33_53)">
<path d="M59.6682 17.4927C58.6465 18.8484 56.9096 20.4956 55.9025 21.9971C55.7127 22.2886 55.0413 23.2945 55.6981 23.2216C57.9459 22.9446 61.157 19.6647 63.0107 18.3382C64.9811 16.9388 67.1121 15.758 69.0826 14.3878C70.3087 13.5423 70.8195 11.9388 72.571 13.105C72.9213 13.3382 73.0381 13.863 73.2278 13.965C73.2862 13.9942 74.1182 14.0379 74.4247 14.2857C75.3005 14.9563 76.1032 15.7872 75.8405 16.9679C75.7967 17.1283 75.4756 17.172 75.3442 17.3907C74.3955 19.0525 74.016 19.0816 73.0089 20.277C72.0018 21.4723 72.0894 22.5364 70.2795 24.0816C69.4621 24.7813 66.9078 26.1808 66.4553 26.793C65.565 28.0029 66.9954 28.0612 67.8857 28.0029C70.0313 27.8717 72.0456 27.0408 74.2058 27.0408C75.9281 27.0408 77.6504 27.5073 79.3873 27.4052C80.4382 27.6531 82.3649 31.2828 81.8978 32.0991C81.854 32.172 81.2994 32.3469 81.0513 32.6676C80.6864 33.1633 80.7593 33.8776 80.3069 34.3149C78.4386 36.1224 67.477 37.3178 64.3535 38.1924C64.0616 38.2799 63.7551 38.0466 63.8427 38.5423C63.9448 39.3003 64.9373 39.4169 65.4482 39.7668C70.2941 43.1487 76.0449 45.6414 79.7522 50.5102C80.1901 51.0787 81.5475 53.8338 81.5183 54.4169C81.4891 55.1312 79.5917 57.9009 78.9932 58.0175C77.5482 58.2945 77.125 57.6531 76.1032 57.4198C75.534 57.2886 72.9797 56.9534 72.8337 56.8805C72.4543 56.6618 70.1335 53.6152 69.3015 52.9009C66.4553 50.4519 61.989 47.9446 58.6319 46.1516C55.7273 44.6064 52.5308 43.1341 49.4802 41.9096C49.5532 43.4402 50.5312 44.5773 51.0128 45.9184C51.8594 48.2653 52.9395 51.6618 53.5233 54.0816C53.9174 55.7289 54.4575 60.0292 54.005 61.5452C53.9612 61.7055 52.3556 64.1399 52.1805 64.2857C50.7355 65.4956 50.0933 64.242 49.2759 63.9942C48.9694 63.9067 48.4439 64.1399 47.9039 64.0379C44.7658 63.4402 44.3571 56.2245 43.7148 53.8484C43.0726 51.4723 41.4087 47.9446 40.2264 45.8017C40.095 45.5539 40.241 45.277 39.8031 45.379C37.4532 48.1195 35.8038 51.3994 33.775 54.3732C33.6144 54.6064 33.3079 54.6647 33.235 54.7813C29.0021 60.8601 24.9153 67.6968 19.3104 72.7843C19.0331 73.0466 18.8871 73.5277 18.566 73.7901C17.7049 74.5044 16.0993 75.102 14.9754 74.9563C13.545 74.7813 10.801 73.4257 9.6917 72.5073C9.58953 72.4198 8.59701 71.2099 8.56782 71.1224C8.52403 70.9621 8.29049 68.0758 8.30509 67.9009C8.40726 66.8805 11.414 65.2041 10.9032 63.6735L9.63332 63.1924C9.99822 62.3907 9.48736 61.035 10.7718 61.0641L11.7935 62.1283L11.9979 60.6997C12.3774 60.4665 12.9612 60.6851 13.3845 60.5977C13.4866 60.5831 13.837 59.8688 14.3624 59.7668C14.8003 59.6793 15.1652 59.9708 15.5009 59.8396C16.0847 59.6064 16.7269 58.2361 17.1648 57.7843C18.4931 56.3994 18.712 56.3119 19.8943 54.6356C22.2296 51.3411 24.9445 48.0612 27.0609 44.4315C27.2214 44.1399 27.7761 44.1399 27.4842 43.1778C25.1342 43.484 22.7697 43.7464 20.4197 44.0671C16.2599 44.6356 10.042 46.1808 6.02812 45.7872C2.01424 45.3936 -0.613031 43.3236 0.116766 39.0525C0.394089 37.3907 1.4158 37.4636 1.89747 36.7055C2.18939 36.2536 2.05803 35.1603 2.67106 34.8688C3.21111 34.6064 4.21823 34.8396 4.90423 34.7085C7.70666 34.2128 10.8594 32.4781 13.9391 31.9825C16.2453 31.6181 19.0915 32.07 21.0619 31.7055C22.4194 31.4577 23.9227 29.4461 25.5429 29.7522C25.6305 29.1545 25.4699 29.4169 25.2218 29.3149C21.5436 27.8426 17.7049 26.9242 14.0705 25.4373C13.1509 25.0583 12.2168 24.2711 11.3994 23.9796C10.9032 23.8047 10.2609 23.9359 9.80847 23.6735C9.7063 23.6152 8.21751 21.8805 8.17373 21.7639C7.99857 21.1662 8.18832 20.3207 8.11534 19.6501C8.02777 18.9359 7.96938 18.1778 7.86721 17.5073C7.77963 16.9096 6.36383 15.4227 7.06443 14.9854C7.41474 14.7522 8.91812 15.3499 9.53115 15.4082C10.8448 15.5248 12.0854 15.1458 13.2239 15.1749C16.5956 15.277 23.587 18.5714 26.9003 20.0292C28.0534 20.5394 29.1627 21.5743 30.5493 21.4869C30.7536 21.2974 29.7027 19.4752 29.5714 19.0962C28.6518 16.4432 27.4258 12.8426 26.7398 10.1749C26.0538 7.50729 26.2727 6.58892 27.7615 4.44607C28.0534 4.02333 28.7978 3.48397 28.9146 3.207C29.2211 2.52187 28.827 1.38484 29.4546 0.685135L32.5781 1.04957C33.3955 1.69097 34.2275 2.60933 35.074 3.42566C35.7163 4.0379 37.2197 5.20409 37.7451 5.93295C38.9274 7.58018 38.0808 8.26531 38.4457 9.8105C38.5333 10.2041 38.8836 10.4373 39.0004 10.7872C39.628 12.8426 39.9783 15.2041 40.7081 17.172C41.073 18.1633 41.6714 19.4606 42.3282 20.3061L41.8758 20.5394C42.2115 21.4869 41.8612 22.5364 43.1894 22.5948C42.9413 21.6472 43.4813 21.8076 43.7294 21.5015C45.1452 19.7813 46.3421 18.4402 47.6266 16.691C50.4436 12.828 53.3482 9.02333 56.4717 5.52479C57.654 4.19825 59.8288 1.53062 61.3321 0.801753C62.8355 0.0728906 64.4995 -0.320695 66.105 0.466477C67.0392 0.932949 66.6451 1.22449 66.9516 1.77843C67.2873 2.39067 67.9295 2.58018 67.7981 3.54228C67.7544 3.81925 66.8202 5.86006 66.6159 6.29738C66.3823 6.77843 65.9299 7.04082 65.7693 7.3761C64.0032 10.8309 62.0765 14.344 59.6682 17.5364V17.4927Z" fill="#FFF4EA"/>
</g>
<defs>
<clipPath id="clip0_33_53">
<rect width="82" height="75" fill="white"/>
</clipPath>
</defs>
</svg>
