<svg width="244" height="179" viewBox="0 0 244 179" fill="none" xmlns="http://www.w3.org/2000/svg">
<path d="M203.223 137.043H200.977L199.219 131.574C199.154 131.379 199.089 131.151 199.023 130.891C197.07 124.641 193.522 121.516 188.379 121.516H174.512V145.93H194.141V148.762H174.512V175.031H188.379C189.16 175.031 189.909 174.966 190.625 174.836C194.596 174.055 197.461 170.767 199.219 164.973L200.977 159.504H203.223L202.832 177.57H156.25V175.031H164.062V121.516H156.25V118.977H202.832L203.223 137.043Z" fill="#FFF4EA"/>
<path d="M148.438 137.043H146.191L144.434 131.574C144.368 131.379 144.303 131.151 144.238 130.891C142.285 124.641 138.737 121.516 133.594 121.516H119.727V145.93H139.355V148.762H119.727V175.031H133.594C134.375 175.031 135.124 174.966 135.84 174.836C139.811 174.055 142.676 170.767 144.434 164.973L146.191 159.504H148.438L148.047 177.57H101.465V175.031H109.277V121.516H101.465V118.977H148.047L148.438 137.043ZM136.328 108.82C135.547 109.471 134.082 110.318 131.934 111.359C125.944 114.289 122.103 116.307 120.41 117.414L118.848 115.559C120.931 113.475 123.079 110.936 125.293 107.941C127.897 104.361 129.525 102.277 130.176 101.691C131.022 100.975 131.999 100.585 133.105 100.52C133.822 100.52 134.538 100.715 135.254 101.105C137.077 102.082 137.988 103.547 137.988 105.5C137.923 106.672 137.37 107.779 136.328 108.82Z" fill="#FFF4EA"/>
<path d="M77.6367 121.516V118.977H97.5586V121.516H89.7461V177.082L84.7656 178.059L46.7773 131.672V175.031H52.4414C53.6784 175.161 54.5573 176.008 55.0781 177.57H34.9609V175.031H42.7734V121.516H34.9609V118.977H49.707L85.7422 162.922V121.516H77.6367Z" fill="#FFF4EA"/>
<path d="M213.086 59.5703H187.012V57.0312H194.824V3.51562H187.012V0.976562H217.383C222.526 0.976562 226.888 2.18099 230.469 4.58984C234.701 7.51953 236.816 11.3932 236.816 16.2109C236.816 17.9688 236.523 19.694 235.938 21.3867C233.984 26.5951 229.688 30.0456 223.047 31.7383L238.574 57.0312H241.309C241.699 57.0312 242.057 57.0638 242.383 57.1289C243.294 57.2591 243.75 58.0729 243.75 59.5703H228.027L212.793 32.7148H205.273V57.0312H213.086V59.5703ZM213.281 3.51562H205.273V29.8828H213.77C216.374 29.8828 218.652 29.1341 220.605 27.6367C223.796 25.0977 225.391 21.3867 225.391 16.5039C225.391 14.4857 225.033 12.5651 224.316 10.7422C222.428 5.92448 218.75 3.51562 213.281 3.51562Z" fill="#FFF4EA"/>
<path d="M122.559 3.51562V0.976562H148.633V3.51562H140.918V37.1094C140.918 41.0156 141.276 44.3685 141.992 47.168C143.88 54.1992 148.535 57.7148 155.957 57.7148C166.634 57.6497 172.005 50.8464 172.07 37.3047V3.51562H164.258V0.976562H183.398V3.51562H175.586V36.7188C175.586 40.8203 175.163 44.3685 174.316 47.3633C171.712 56.1523 164.909 60.5469 153.906 60.5469C138.346 60.4818 130.501 52.8971 130.371 37.793V3.51562H122.559Z" fill="#FFF4EA"/>
<path d="M87.4023 0C94.3034 0 100.391 1.95312 105.664 5.85938C113.216 11.4583 116.992 19.6289 116.992 30.3711C116.992 39.4206 113.965 46.8099 107.91 52.5391C102.181 57.8776 95.2474 60.5469 87.1094 60.5469C80.013 60.5469 73.763 58.4635 68.3594 54.2969C61.0026 48.5026 57.3242 40.3971 57.3242 29.9805C57.3242 20.9961 60.3841 13.6719 66.5039 8.00781C72.2331 2.66927 79.1992 0 87.4023 0ZM87.4023 57.8125C98.9909 57.7474 104.818 48.4375 104.883 29.8828C104.818 11.9141 98.8932 2.86458 87.1094 2.73438C75.3255 2.79948 69.401 12.0117 69.3359 30.3711C69.401 48.5352 75.4232 57.6823 87.4023 57.8125Z" fill="#FFF4EA"/>
<path d="M39.4531 59.5703H10.3516V57.0312H19.6289V3.51562H15.8203C10.5469 3.58073 6.93359 6.90104 4.98047 13.4766L2.83203 20.8984H0L0.390625 0.976562H49.6094L50.0977 20.8984H47.2656L45.1172 13.4766C43.2292 6.90104 39.5833 3.58073 34.1797 3.51562H30.0781V57.0312H36.8164C38.0534 57.1615 38.9323 58.0078 39.4531 59.5703Z" fill="#FFF4EA"/>
</svg>
