<svg width="192" height="77" viewBox="0 0 192 77" fill="none" xmlns="http://www.w3.org/2000/svg">
<path d="M190.13 8.50002C190.83 9.30002 191.33 10.2 191.73 11.3V13.2C191.23 14.6 190.53 15.7 189.43 16.7C188.53 17.6 187.53 18.6 186.53 19.6C186.33 19.8 186.03 20.1 185.73 20.3C184.13 21 183.23 22.1 181.63 23.3C178.83 25.4 177.33 26.6 174.53 28.7C173.73 29.3 173.33 29.6 172.53 30.2C171.83 30.8 171.53 31.4 170.73 31.8C170.53 31.9 170.33 31.9 170.13 31.9C169.83 31.9 169.63 31.9 169.33 31.9C169.23 31.9 169.13 31.9 169.03 31.9C168.53 32.1 168.03 32.3 167.53 32.5C167.13 32.4 166.83 32.3 166.43 32.2C166.23 32.4 165.93 32.6 165.73 32.8C165.63 33.3 165.53 33.8 165.53 34.2C165.53 34.5 165.53 34.7 165.53 34.9C165.53 35.1 165.53 35.4 165.53 35.6C165.43 37.7 165.13 39.3 164.93 41.7C164.83 42.4 164.93 42.7 164.83 43.4C164.63 44.7 164.53 45.5 164.33 46.8C164.23 47.3 164.23 47.7 164.23 48.2C164.13 49.5 164.23 50.3 164.13 51.6C164.03 52.7 163.93 53.3 163.73 54.4C163.63 55.2 163.53 55.6 163.43 56.4C163.23 57.8 163.13 58.7 162.93 60.1C162.83 60.9 162.83 61.4 162.73 62.2C162.53 63.8 162.23 64.6 162.13 66.2C162.13 66.7 162.03 67.1 162.03 67.5C162.03 67.9 162.13 68.3 162.13 68.7C162.13 69.1 162.03 69.5 162.03 70C161.53 75.3 157.83 76.3 154.03 76.3C151.53 76.3 150.93 73.5 150.93 70.3C150.93 68.9 151.03 67.5 151.13 66.2C151.23 65 151.33 64.4 151.53 63.2C151.63 62.8 151.63 62.6 151.73 62.2C151.93 60.6 152.03 59.7 152.23 58.1C152.33 57 152.53 56.5 152.63 55.4C152.83 53.7 152.93 52.7 153.13 51C153.13 50.6 153.13 50.3 153.23 49.9C153.53 47.8 153.63 46.6 153.93 44.5C154.03 44 154.03 43.6 154.13 43.1C154.33 42 154.33 41.5 154.53 40.4C154.73 39.3 154.83 38.8 154.93 37.7C155.03 37 155.13 36.7 155.13 36C155.23 33.7 155.23 32.5 155.23 30.2C155.33 25.9 155.23 23.4 155.33 19.1C155.33 18 155.53 17.5 155.63 16.4C155.73 15.6 155.73 15.1 155.73 14.3C155.73 13.3 155.73 12.4 155.73 11.5C155.73 9.70001 155.73 8.20002 155.73 6.40002C155.73 5.90002 155.73 5.50002 155.83 5.10002C156.83 3.50002 156.83 3.50002 158.53 2.30001C159.43 2.20002 160.53 2.30002 161.53 2.00002C162.33 1.80002 163.33 1.70002 164.13 1.40001C165.83 1.00002 167.23 1.00002 169.23 0.700018C169.63 0.600019 169.83 0.500021 170.23 0.500021C171.63 0.400016 172.53 0.300018 173.83 0.300018C174.13 0.300018 174.43 0.300018 174.73 0.300018C176.73 0.400017 178.13 0.700017 179.83 0.900015C180.83 0.900015 184.03 1.70002 184.73 2.20002C185.83 2.90002 186.83 3.60002 187.93 4.30002C188.03 4.40002 188.03 4.50002 188.13 4.50002C188.33 4.80002 188.63 5.10001 188.83 5.30002C189.43 6.30002 189.43 7.60002 190.13 8.50002ZM181.73 11.7C181.83 11.5 181.93 11.2 182.03 10.9C181.33 9.50002 179.93 9.00002 178.43 8.40002C176.43 8.40002 174.33 8.20002 172.13 8.20002C170.83 8.20002 169.43 8.30002 168.13 8.50002C167.63 8.90002 166.93 9.00002 166.33 9.60002C166.13 10 165.93 10.5 165.63 11C165.83 11.6 166.03 12.1 166.13 12.6V21.6C166.13 21.8 166.13 22.1 166.23 22.3C166.33 22.5 166.43 22.7 166.63 22.7C166.73 22.7 166.83 22.8 166.93 22.8C167.03 22.8 167.23 22.7 167.33 22.6C168.73 21.5 170.13 20.3 171.63 19.3C172.53 18.8 173.43 18.3 174.33 17.7C176.63 16.1 178.83 14.2 181.03 12.4C181.33 12.2 181.53 11.9 181.73 11.7Z" fill="#FFF4EA"/>
<path d="M137.027 29.5C137.127 30.6 137.127 31 137.127 32.1C137.127 32.3 137.127 32.5 137.127 32.7C137.127 33.2 137.127 33.7 137.027 34.3C137.027 34.5 136.927 34.7 136.927 34.9C136.927 35.3 137.027 35.7 137.027 36.1C137.027 36.2 137.027 36.2 137.027 36.3C136.927 38.2 136.927 39.3 136.827 41.2C136.627 44.4 136.427 46.2 136.227 49.4C136.227 49.8 136.127 50 136.127 50.4C135.827 52 135.727 52.9 135.427 54.5C135.027 56.7 134.927 58.1 134.227 60.2C133.627 61.8 133.227 63 132.127 64.1C131.527 64.6 131.027 65.2 130.627 65.9C130.427 66.2 130.227 66.5 129.927 66.7C129.227 67.1 128.727 67.7 128.227 68.4C127.727 69.1 127.027 69.5 126.127 70.1C124.527 71.2 124.427 71.5 122.627 72.2C122.227 72.4 121.327 72.5 120.327 72.5C120.027 72.5 119.727 72.5 119.527 72.5C118.127 72.4 117.327 72.4 115.927 71.9C113.927 71.2 112.127 71.1 110.927 69.5C110.727 69.3 109.427 68.2 109.427 68C109.227 66.7 108.827 65.7 108.527 64.3C108.227 63 108.127 62.3 107.827 61C107.527 59.7 107.527 58.9 107.227 57.6C107.027 56.5 106.827 56 106.627 54.9C106.427 53.8 106.527 53.2 106.427 52.1C106.227 48.3 106.027 46 106.027 42.4C106.027 42.1 106.027 41.8 106.027 41.5C106.027 38.1 106.327 36.2 106.627 32.9C106.727 32.2 106.827 31.9 106.927 31.2C107.027 30.7 107.027 30.4 107.127 29.9C107.627 27.5 107.927 26.2 108.427 23.8C108.727 22.6 108.927 22 109.227 20.8C109.527 19.8 109.627 19.1 109.927 18.2C111.227 14.2 113.227 11 115.027 8.50001C115.327 8.20001 115.627 7.8 115.927 7.50001C116.227 7.10001 116.427 6.70001 116.727 6.40001C119.927 4.00001 119.327 3.80001 121.427 3.60001C121.527 3.60001 121.627 3.60001 121.727 3.60001C123.427 3.60001 126.827 4.70001 127.727 5.70001C128.227 6.30001 128.727 7.00001 129.427 7.40001C130.027 7.70001 130.727 7.8 131.327 8.10001C131.927 8.50001 132.527 8.90001 132.727 9.60001C133.027 11.1 133.827 12.4 134.427 13.7C134.927 14.8 135.427 15.8 135.827 16.9C136.027 17.6 136.227 18.2 136.227 18.9C136.427 20.7 136.827 22.2 137.027 24.4C137.027 24.8 137.027 25.3 137.027 25.6C137.027 26.6 137.027 27.4 137.027 28.4C137.027 28.8 137.027 29.1 137.027 29.5ZM127.127 23C126.927 21.4 126.327 18.6 124.927 16.4C124.227 15.3 123.627 14.9 122.427 14.9H122.327C121.927 14.9 120.727 16.1 120.627 16.5C120.027 18.5 119.227 20.6 119.027 21.6C118.327 24.3 118.027 25.9 117.427 28.6C117.027 30.2 117.327 31.7 117.027 33.2C116.827 35 116.927 35.4 116.827 37.1C116.827 37.3 116.827 37.4 116.827 37.6C116.827 38.1 116.827 38.5 116.827 38.9C116.827 39.1 116.827 39.3 116.827 39.5C116.727 40.7 116.427 41.4 116.427 42.6C116.427 43.1 116.427 43.5 116.427 44C116.427 46.1 116.527 47.7 116.627 50.1C116.627 50.7 116.727 51 116.827 51.5C117.127 53.9 117.127 55.4 117.627 58.3C117.727 59 117.927 60.9 120.127 60.9C120.227 60.9 120.227 60.9 120.327 60.9C121.127 60.9 122.827 59.7 123.127 58.8C123.527 57.4 123.927 56 124.127 55.1C124.327 53.8 124.527 52.8 124.827 51.4C125.227 49.1 125.327 47.9 125.727 45.6C125.727 45.3 125.727 45.2 125.827 44.9C126.027 43.5 126.227 42.7 126.327 41.2C126.427 39.3 126.427 38.3 126.527 36.4C126.527 35.9 126.527 35.5 126.627 35C126.727 33.7 126.827 32.9 126.927 31.6C127.027 29.4 127.227 27.6 127.227 25.6C127.227 24.8 127.227 23.9 127.127 23Z" fill="#FFF4EA"/>
<path d="M93.4828 5C93.6828 5.4 93.6828 5.9 93.6828 6.4C93.6828 7.3 93.5828 8.2 93.4828 9.1C92.7828 10.6 92.9828 12.3 92.4828 13.8C92.1828 14.7 92.2828 15.7 91.9828 16.5C91.5828 17.6 91.5828 18.8 91.4828 19.9C91.3828 20.4 91.4828 20.9 91.2828 21.3C90.6828 22.7 90.8828 24.2 90.7828 25.7C90.7828 27.4 90.7828 29.2 90.6828 30.9C90.6828 31.2 90.6828 31.6 90.6828 31.9C90.6828 32.6 90.6828 33.3 90.3828 34C90.1828 34.5 90.1828 35.1 90.1828 35.7C90.0828 37.1 90.0828 38.6 89.9828 40.1C89.9828 41.1 89.9828 42 89.6828 42.9C89.4828 43.7 89.4828 44.7 89.4828 45.6C89.5828 46.5 89.5828 47.5 89.5828 48.4C89.5828 51.3 89.3828 54.1 89.3828 57C89.3828 60.9 89.3828 64.8 89.2828 69C88.8828 69.9 88.5828 70.8 87.6828 71.3C87.4828 71.4 87.2828 71.5 87.0828 71.5C86.1828 71.5 85.2828 71.6 84.3828 72C84.0828 72.2 83.7828 72.1 83.2828 72.2C82.6828 72 82.0828 71.7 81.3828 71.4C80.3828 70.6 79.4828 69.5 78.5828 68.5C78.4828 68 78.3828 67.6 78.3828 67.1C78.4828 63.2 78.4828 59.3 78.4828 55.4C78.4828 54.5 78.4828 53.5 78.8828 52.7C78.9828 52.3 78.9828 52 78.9828 51.6C79.0828 49.3 79.0828 47 79.1828 44.7C79.1828 44.6 79.0828 44.5 79.0828 44.4C78.8828 44.3 78.7828 44.1 78.4828 43.9C77.7828 44 76.8828 43.9 76.1828 44.1C75.1828 44.5 74.1828 44.5 73.1828 44.9C72.2828 45.2 71.3828 45.1 70.4828 45.4C68.6828 45.9 66.8828 46 65.0828 46.1C64.7828 46.3 64.3828 46.4 64.1828 46.7C63.8828 46.9 63.6828 47.2 63.3828 47.5C63.3828 47.9 63.2828 48.3 63.2828 48.8C63.1828 50.5 63.1828 52.2 63.1828 54C63.1828 55.5 63.1828 57 63.0828 58.4C63.0828 59.1 63.0828 59.8 62.9828 60.5C62.8828 61.1 62.6828 61.6 62.5828 62.1C62.7828 62.9 62.9828 63.5 62.9828 64.2C63.0828 64.5 63.0828 64.9 63.0828 65.2C63.0828 65.6 63.0828 65.9 62.9828 66.3C62.9828 66.6 62.9828 67 62.8828 67.3C62.3828 68.4 62.3828 69.5 62.3828 70.7C62.3828 71 62.3828 71.4 62.3828 71.7C62.3828 72.4 62.3828 73 62.3828 73.6C61.8828 74.7 61.0828 75 60.2828 75.5C60.0828 75.5 59.7828 75.6 59.5828 75.6C58.8828 75.7 58.2828 75.8 57.5828 76.1C57.2828 76.3 56.9828 76.3 56.6828 76.3C56.0828 76.3 55.5828 76 55.0828 75.5C54.8828 75.3 54.5828 75.1 54.3828 74.8C53.8828 74.1 53.1828 73.7 52.4828 73.4C52.0828 73.2 51.7828 72.8 51.4828 72.4C51.4828 71.7 51.3828 71 51.3828 70.3C51.3828 68 51.4828 65.7 51.4828 63.4C51.5828 59.5 51.5828 55.6 51.5828 51.7C51.5828 50.4 51.5828 49.1 52.0828 47.9C51.7828 47.5 51.5828 46.9 51.1828 46.9C49.0828 46.7 49.0828 46.7 47.4828 45.8C46.3828 45.2 45.7828 44.8 45.1828 43.8C44.4828 43 43.9828 42.3 44.2828 41.3C44.6828 39.7 45.5828 39.1 46.7828 37.9C46.9828 37.6 47.3828 37.8 47.7828 37.7C49.8828 37.4 49.1828 37.8 51.1828 37.1C51.4828 37 51.7828 36.8 52.0828 36.6C52.1828 36.2 52.1828 35.7 52.2828 35.3V29.4C52.2828 27.4 52.2828 25.4 52.2828 23.4C52.2828 22.4 52.2828 21.4 52.2828 20.4C52.2828 19.8 52.2828 19.2 52.2828 18.7C52.2828 17.6 52.3828 16.6 52.7828 15.6C52.7828 15.4 52.7828 15.3 52.7828 15.1C52.7828 12.9 53.3828 10.7 54.1828 8.6C54.4828 7.90001 54.3828 7.1 54.6828 6.3C54.9828 5.7 54.9828 5 55.0828 4.3C55.6828 3.5 56.1828 2.80001 56.7828 2C57.1828 1.7 57.6828 1.4 57.9828 1.2C58.3828 1.1 58.8828 1.1 59.2828 1.1C59.6828 1.1 60.1828 1.1 60.6828 1.3C61.0828 1.5 61.5828 1.8 62.0828 2C62.1828 2.1 62.2828 2.2 62.3828 2.3C63.3828 3.9 64.1828 5.7 64.3828 7.7C64.3828 7.9 64.4828 8 64.4828 8.2C64.4828 8.5 64.3828 8.80001 64.2828 9.1C63.9828 10 63.9828 10.9 63.9828 11.8C63.7828 13.5 63.9828 15.2 63.3828 16.9C63.2828 18.2 63.1828 19.4 63.1828 20.7C63.1828 25.5 63.1828 30.4 63.2828 34.9C63.5828 35.9 63.9828 36.3 64.8828 36.3C65.5828 36.3 66.1828 36.1 66.8828 35.9C67.3828 35.8 67.9828 35.7 68.5828 35.7C69.2828 35.6 69.9828 35.7 70.5828 35.3C71.6828 34.8 72.8828 35 73.8828 34.5C74.8828 34.1 75.9828 34.2 76.8828 33.8C77.6828 33.5 78.4828 33.5 79.2828 33.4C79.4828 33.3 79.6828 33.2 79.8828 33C80.0828 32.8 80.3828 32.5 80.3828 32.2C80.5828 31.6 80.4828 31 80.5828 30.5C80.5828 29.5 80.5828 28.6 80.8828 27.7C81.0828 27.2 81.0828 26.6 81.1828 26C81.1828 24.8 81.1828 23.5 81.2828 22.2C81.2828 21.9 81.2828 21.6 81.2828 21.3C81.2828 20.7 81.2828 20.1 81.5828 19.5C81.6828 19.3 81.6828 19.1 81.6828 18.8C81.6828 16.4 82.4828 14.1 82.6828 11.7C82.7828 10.5 83.1828 9.2 83.5828 8C83.7828 7.5 83.8828 6.9 83.9828 6.3C83.9828 5.3 84.3828 4.3 84.9828 3.3C85.3828 2.80001 85.9828 2.2 86.4828 1.6C87.0828 1.1 87.4828 0.400001 88.1828 0C89.4828 0.300002 90.6828 0.500005 91.7828 1.3C92.6828 2.4 92.8828 3.80001 93.4828 5Z" fill="#FFF4EA"/>
<path d="M32.3 32.2C32.9 33.1 33.1 33.7 33.2 34.8C33.2 34.9 33.2 35 33.2 35C33.2 35.7 32.9 36.1 32.8 36.8C32.8 36.9 32.8 36.9 32.8 36.9C32.8 37 32.8 37.1 32.8 37.1C32.8 37.2 32.8 37.2 32.8 37.2C32.4 39 32.2 40.3 31.7 41.8C31.2 43.3 30.7 44.8 30.3 46.4C29.9 47.9 29.3 49.1 28.7 50.8C28.4 51.8 28.1 52.3 27.9 53.3C27.3 55.3 27.1 56.4 26.6 58.5C26.2 60.2 26 61.1 25.6 62.8C25.6 63.1 25.5 63.2 25.4 63.5C24.3 65.9 24 67.8 22.6 69.7C22.4 70 22.3 70.3 22 70.6C22 70.7 21.9 70.7 21.7 70.7C21.7 70.7 21.7 70.7 21.6 70.7C20.2 70.5 18.9 70.1 17.9 70.1C17.1 70.1 16.5 69.8 15.9 69.6C14.9 69.2 13.9 68.7 13.5 67.5C13.4 67 13.3 66.6 13.3 66.3C13.3 65.3 13.7 64.5 13.8 63.3C14.1 61.7 14.5 60.8 14.9 59.1C15 58.7 15 58.4 15.1 58C16.3 54.4 17 52.4 18.3 48.8C18.8 47.3 19.3 46.2 19.7 45C20.1 43.7 20 43.8 20.4 42.6C20.5 42.3 20.6 42.1 20.6 41.9C20.6 41.6 20.5 41.3 20.5 41.1C20.4 40.8 20.2 40.4 20 40.1C18.6 39.9 17.4 40 16 39.9C15.6 39.9 15.3 39.9 14.9 39.9C14.1 39.9 13.4 39.9 12.7 39.6C12.5 39.5 12.3 39.4 12 39.4C11.2 39.3 10.4 39.3 9.5 39.2C9.2 39.2 9 39 8.8 39C6.9 38.3 5 36.9 3.3 35.9C2.1 35.3 1.6 34.6 0.9 33.5C0.3 32.5 0.1 31.8 0 30.7C0 30.6 0 30.6 0 30.5C0 29.6 0.4 28.9 0.4 28.1C0.5 27.2 0.499999 26.4 0.799999 25.5C0.999999 24.3 1.3 23 1.7 21.7C2.3 19.9 3.1 18.1 3.8 16.2C4 15.7 4.3 15.1 4.6 14.6C5.4 13.4 6.3 12.2 7.1 11C8.7 8.5 12 7.6 14.7 5.8C15 5.60001 15.4 5.5 15.7 5.5C16 5.5 16.2 5.60001 16.5 5.60001C17.2 5.8 17.6 6.20001 18.1 6.7C18.4 7.00001 18.5 7.2 18.5 7.7C18.5 7.8 18.5 8 18.5 8.1C18.5 8.7 18.4 9.1 18.3 9.8C18.1 10.7 18 11.2 17.6 12C16.7 13.5 15.9 14.2 15.1 15.5C14.4 16.9 13.5 18.2 13.2 19.7C12.9 21 12.4 22.1 12 23.2C11.7 24.2 11.4 25.1 11.2 26C11 26.7 10.6 27.3 10.6 28C10.6 28.2 10.6 28.4 10.7 28.6C10.9 29.3 11.7 29.4 12.4 29.7C12.7 29.8 13.1 29.8 13.5 29.8C15.1 29.8 16.3 29.3 18.1 28.9C19.7 28.4 21.4 28.2 23 28.2C24.8 28.2 26.7 28.5 28.6 29.3C30.1 29.9 31.5 30.8 32.3 32.2Z" fill="#FFF4EA"/>
</svg>
