<svg width="438" height="1138" viewBox="0 0 438 1138" fill="none" xmlns="http://www.w3.org/2000/svg">
<g clip-path="url(#clip0_21_2)">
<path d="M192.162 384.389C192.289 384.503 193.393 387.262 193.365 387.644C193.252 389.243 191.313 389.285 191.2 389.851L191.766 392.129L179.128 396.134C177.572 400.265 179.553 403.93 179.709 407.864C184.803 408.076 187.449 402.798 192.289 402.614V404.199L193.082 403.689C194.497 399.671 193.28 389.95 195.954 387.148C198.785 384.163 202.733 386.101 204.403 389.243L202.79 409.448L211.846 401.992C215.356 399.629 218.583 397.648 222.969 398.921C229.451 400.789 228.97 405.585 232.168 410.495L233.243 410.17C234.291 407.17 238.975 404.538 241.777 403.067C243.73 402.034 249.744 399.331 251.725 399.586C254.371 399.94 256.296 402.671 254.994 405.26C254.923 405.402 252.956 407.34 252.801 407.354C252.235 407.411 251.513 406.944 250.862 407.001C249.192 407.156 243.263 411.217 242.13 412.844C242.555 414.825 253.848 416.042 255.942 417.797C257.004 418.702 256.551 422.197 258.39 422.027C258.249 413.792 256.197 405.26 255.772 397.11C255.447 390.813 255.801 386.965 263.4 388.96C265.155 393.162 264.32 397.082 264.688 401.312C264.914 403.944 266.329 406.562 265.735 409.448C268.169 407.51 270.164 404.171 273.221 403.039C274.183 402.685 279.023 402.091 279.858 402.359C285.476 404.171 286.552 414.769 288.731 419.282C289.17 421.957 287.089 421.504 286.481 422.537C286.24 422.947 287.033 424.306 285.887 424.631C282.448 423.895 280.509 424.15 279.122 420.443C278.528 418.83 277.778 411.359 276.037 411.599C275.754 411.642 273.207 413.722 273.065 414.033C272.641 414.924 272.952 415.872 272.726 416.269C271.919 417.712 267.943 424.815 267.334 425.48C266.527 426.343 265.735 426.102 264.744 426.329L264.674 427.8C264.277 428.197 260.046 426.683 259.593 426.103C258.787 425.084 259.268 423.457 258.136 422.579C256.975 423.782 257.513 425.225 256.551 426.753C254.952 429.258 248.909 431.423 246.05 431.508C239.781 431.706 232.507 426.046 241.097 422.834L234.8 419.947L235.847 424.659L234.276 424.136C235.083 427.97 229.465 427.404 227.286 426.131C225.786 425.254 226.281 423.57 225.092 422.565C221.767 426.371 217.903 432.258 212.455 432.993C209.144 433.446 205.974 433.333 203.2 431.437C202.874 431.211 198.827 425.933 198.587 428.126L198.544 429.838C186.841 431.041 193.252 418.419 192.034 411.528C189.756 415.151 184.916 416.934 180.756 417.301C181.251 421.73 184.789 433.941 177.827 434.606C170.312 435.328 172.619 424.787 170.836 420.16C169.194 419.014 161.637 421.56 159.401 421.9C155.864 422.438 151.137 423.655 149.58 419.381C146.58 411.09 165.104 411.783 169.746 410.481C170.015 410.212 169.194 404.043 169.194 402.897C169.208 400.279 169.491 392.242 170.312 390.332C172.18 386.002 177.034 386.823 180.459 386.314C183.063 385.932 189.544 382.168 192.176 384.375L192.162 384.389ZM216.177 420.768C217.493 419.339 218.866 417.471 219.884 415.802C220.521 414.754 223.309 409.731 223.536 408.953C223.804 408.019 223.748 407.92 222.913 407.368C220.833 406.845 213.743 412.689 211.931 414.16C209.667 416 210.644 414.882 209.568 415.476C207.488 416.622 206.993 422.494 208.068 424.603C211.422 425.437 214.082 423.046 216.177 420.768Z" fill="#484645"/>
<path d="M168.288 538.72C168.133 538.974 166.916 539.116 166.817 539.611C166.718 540.106 167.538 540.658 167.609 541.168C168.303 546.29 167.637 548.214 167.354 553.237C167.185 556.279 167.468 559.364 167.354 562.406C169.916 559.449 172.463 556.789 176.001 555.063C178.619 553.775 181.421 552.954 184.421 553.039C186.204 553.096 189.53 557.496 191.214 558.741C192.643 559.803 195.134 559.888 195.969 561.897H196.959C201.912 555.628 209.738 548.95 218.229 550.351C216.828 544.436 217.153 539.639 224.47 539.922C227.54 545.285 227.894 550.931 229.408 556.76C230.073 559.35 231.39 561.84 231.361 564.514C232.097 564.684 232.224 564.401 232.677 564.005C234.276 562.59 235.593 560.043 237.687 558.529C239.413 557.27 244.664 554.553 246.673 555.614C246.857 555.713 249.574 558.26 249.744 558.487C252.249 561.798 255.39 577.32 253.508 581.169C252.065 584.14 251.428 582.117 250.508 582.032C249.956 581.989 249.22 582.923 248.456 582.923C248.201 582.923 248.187 582.216 247.961 582.074C246.036 580.871 245.414 580.079 244.72 577.674C244.281 576.131 243.871 567.146 242.654 567.16C239.13 569.523 235.055 581.678 231.63 582.343C228.616 582.937 227.017 580.857 226.394 580.9C225.998 580.928 224.498 582.824 223.691 583.319C217.804 586.928 211.224 588.045 204.488 586.432C201.374 585.697 198.87 582.456 201.983 579.966C204.799 577.73 208.026 577.546 211.45 577.362L198.87 572.382C202.577 582.725 193.959 586.659 189.162 576.584C183.982 582.768 176.779 588.668 168.26 585.003C165.755 590.734 157.76 591.937 156.882 584.706C155.708 574.999 157.265 562.01 157.944 552.162C158.085 550.167 157.873 548.129 157.944 546.134C157.25 545.469 142.929 550.888 141.189 552.473L142.222 557.157C146.382 555.133 149.892 554.539 154.307 556.393C153.741 557.213 153.684 560.652 153.543 560.85C153.316 561.175 147.91 563.75 146.764 564.599C146.255 564.981 143.481 567.047 143.382 567.231C142.689 568.42 143.877 572.353 143.792 574.179C143.552 579.697 142.108 580.857 136.688 581.31L135.924 581.013C132.797 578.226 133.518 576.075 133.603 572.396C133.618 571.745 133.547 571.717 133.023 571.32C129.4 573.613 117.938 577.886 117.018 571.009C116.197 564.897 128.65 562.873 132.74 561.317C132.103 559.123 132.061 556.506 131.594 554.397C131.297 553.082 130.136 552.218 130.122 550.62C130.066 546.134 135.938 543.913 139.434 542.597C145.505 540.304 152.354 538.649 158.566 536.541C159.982 536.06 161.184 534.744 162.996 534.63C164.722 534.517 169.675 536.47 168.331 538.72H168.288ZM223.479 571.32C222.616 569.141 220.705 558.741 219.318 557.935C217.394 558.317 214.663 557.935 213.007 559.024C212.271 559.52 212.172 560.411 211.79 560.68C211.224 561.09 210.261 560.963 209.681 561.317C209.101 561.67 207.29 564.26 206.228 564.84L206.469 566.113L223.465 571.306L223.479 571.32ZM181.902 561.996C177.826 562.802 171.076 573.641 174.133 575.82C177.94 578.537 186.048 567.019 185.992 563.467C184.86 561.883 183.784 561.614 181.888 561.996H181.902Z" fill="#484645"/>
<path d="M279.504 537.871C279.745 538.012 279.901 538.96 280.382 539.328C282.83 541.168 283.07 540.545 284.429 543.7C288.717 553.605 283.665 561.741 279.08 570.288C279.547 570.74 287.457 570.387 288.773 570.288C297.675 569.637 306.307 567.401 315.053 566.142C319.157 565.547 317.84 567.316 321.039 568.208L319.411 574.433C313.737 575.424 308.048 576.726 302.345 577.575C293.429 578.89 279.674 580.815 270.914 579.754C268.608 579.471 265.735 575.806 266.018 573.825C266.117 573.117 269.938 567.698 270.674 566.368C273.66 560.963 277.24 555.246 276.433 548.794C275.966 548.257 273.306 551.044 272.372 551.285C268.226 552.36 265.126 549.671 266.046 545.497C266.711 542.455 276.533 536.116 279.476 537.885L279.504 537.871Z" fill="#484645"/>
<path d="M90.6822 995.513L89.1114 996.56C93.6115 996.518 88.7434 1001.2 87.2717 1002.33C86.6632 1002.8 81.8234 1005.76 81.3706 1005.88C79.0922 1006.56 79.9837 1004.54 78.8799 1004.95C74.1392 1011.25 64.4879 1011.9 68.9032 1022.27C69.3136 1022.84 69.7381 1022.79 70.3608 1022.71C73.559 1022.24 80.946 1017.47 84.1442 1017.5C85.7009 1017.52 86.4934 1019.09 87.8094 1019.09C88.8991 1019.09 89.9604 1017.91 91.0784 1017.66C93.7813 1017.06 97.4041 1016.78 99.9089 1018.04C100.999 1018.59 102.527 1020.47 103.135 1020.61C104.013 1020.81 104.933 1019.88 105.909 1020.39C106.73 1020.81 107.296 1022.74 108.272 1023.3C108.499 1020.81 112.985 1018.72 114.98 1019.2C115.192 1019.26 117.414 1020.9 117.457 1021.05C117.825 1022.4 116.735 1035.94 118.759 1035.88C120.952 1032.91 121.985 1028.67 122.664 1025.07C122.848 1024.12 122.197 1023.2 122.636 1021.99C122.962 1021.1 124.844 1018.94 125.693 1018.69C126.457 1018.46 130.462 1018.39 130.985 1018.69C133.165 1019.95 139.363 1039.6 142.816 1038.98C144.472 1037.2 147.514 1035.85 149.198 1034.31C149.722 1033.83 150.146 1033.55 149.977 1032.74C149.354 1032.7 148.844 1032.4 148.392 1031.98C146.354 1030.02 138.471 1022.58 137.679 1020.64C136.052 1016.7 141.132 1014.81 144.457 1015.44C148.377 1016.19 156.939 1027.66 158.552 1027.41C161.949 1025.13 165.67 1022.45 168.628 1019.62C171.586 1016.79 173.411 1013.78 175.944 1011.19C176.298 1010.82 178.789 1008.49 178.973 1008.42C182.992 1006.73 187.464 1008.74 186.714 1013.54C186.02 1017.95 169.774 1030.58 166.279 1034.07C166.081 1034.98 173.807 1039.74 173.1 1042.87C173.015 1043.24 172.18 1043.11 172.081 1043.55C172.024 1043.81 172.506 1044.41 172.293 1044.8C171.741 1045.84 168.147 1047.2 166.817 1046.62C165.175 1045.9 158.184 1039.65 157.604 1039.65C153.274 1042.04 146.509 1049.82 141.472 1048.87C139.08 1048.42 138.854 1046.69 137.608 1045.89C136.448 1045.14 134.919 1045.38 133.448 1044.27C131.183 1042.56 130.32 1038.66 127.957 1036.91C127.957 1042.99 125.169 1049.04 118.249 1049.03C115.291 1049.03 115.136 1047.88 112.744 1046.89C113.183 1049.13 113.706 1050.87 112.15 1052.85C111.145 1054.12 110.537 1053.72 109.475 1054.28C108.853 1054.6 109.475 1055.37 107.848 1055.25C105.612 1055.1 105.456 1053.87 105.301 1053.81C104.947 1053.68 104.197 1054.4 103.871 1054.21C101.777 1052.9 100.461 1040.33 99.6117 1037.44C95.7625 1041.17 88.9274 1047.97 83.3376 1044.02C78.5969 1040.68 77.3799 1035.02 77.3232 1029.56C76.743 1029.56 72.1438 1031.51 71.9457 1031.78C70.106 1034.4 74.2241 1036.29 72.1438 1040.38C70.5589 1043.51 66.0163 1043.42 63.1294 1042.18L61.0208 1036.33C58.6859 1037 56.4075 1037.98 54.1574 1038.9C50.5347 1040.37 44.2373 1044.43 40.6145 1043.69C38.5201 1043.27 37.0908 1038.47 38.2229 1037.17C42.0721 1032.78 54.3131 1029.66 59.7048 1026.87C60.4123 1025.88 57.4971 1018.85 57.3839 1017.23C57.2849 1015.9 57.4688 1011.21 57.6811 1009.9C58.0773 1007.47 59.5774 1007.71 60.7661 1006.71C66.087 1002.19 69.6532 999.15 76.4034 996.617C78.144 995.966 85.4886 993.447 86.8047 993.348C87.951 993.263 90.1727 994.339 90.6963 995.442L90.6822 995.513ZM90.5265 1023.95C86.833 1024.8 85.1631 1033.09 88.8566 1035.39C89.9038 1035.64 95.8757 1028.61 95.9323 1027.21C96.0597 1024.58 92.7341 1023.46 90.5265 1023.95Z" fill="#484645"/>
<path d="M376.456 1009.03C376.328 1009.27 374.899 1009.8 375.309 1011.81L372.96 1012.38L372.889 1013.84C370.753 1014.19 362.842 1010.91 361.597 1012.8C362.12 1014.23 361.384 1015.49 361.413 1016.7C361.597 1022.45 365.262 1028.93 361.031 1034.25C359.799 1034.3 358.144 1034.58 356.997 1034.23C355.554 1033.79 355.342 1030.97 353.502 1031.18C352.554 1033.84 351.266 1035.46 348.761 1036.69C343.808 1039.14 342.124 1038.66 337.228 1036.69C336.223 1036.28 335.133 1035.09 334.256 1034.99C332.657 1034.81 326.855 1038.03 324.76 1038.41C323.048 1038.73 315.704 1039.02 313.935 1038.9C312.619 1038.8 307.609 1035.64 307.312 1035.91C307.467 1037.88 306.01 1038.4 304.609 1039.25C301 1041.43 293.047 1044.13 289.198 1041.7C288.816 1041.46 284.528 1036.43 284.372 1036.04C282.703 1031.92 283.792 1022.78 285.547 1018.61C286.538 1016.27 292.849 1008.62 295.043 1008.23C295.241 1008.21 298.764 1008.33 298.948 1008.39C300.83 1009.05 301.467 1013.02 300.774 1014.39C300.491 1014.94 296.585 1017.81 295.609 1019.26C293.599 1022.26 291.292 1029.56 293.443 1032.73C294.774 1034.69 295.439 1033.22 296.528 1033.26C296.868 1033.28 296.755 1034.27 297.137 1034.33C298.623 1034.54 303.349 1034.1 304.934 1033.8C305.557 1033.69 305.883 1033.56 306.25 1033.02C301.878 1028.69 305.741 1015.31 309.392 1011.5C310.185 1010.68 314.812 1007.5 315.689 1007.29C316.567 1007.07 319.157 1007.58 320.43 1007.29C324.364 1012.95 316.496 1016.24 314.628 1021.48C313.935 1023.4 314.826 1025.57 314.232 1027.68C314.402 1028.38 314.571 1028.98 315.307 1029.27C316.751 1029.87 327.789 1030.59 328.298 1030.14C327.775 1028.23 326.459 1027.38 326.19 1025.17C325.397 1018.69 328.808 1008.08 335.275 1005.39C341.572 1002.76 348.521 1006.04 350.87 1012.31C353.714 1011.87 351.577 1008.42 353.233 1006.03C356.686 1001.05 368.729 1002.47 373.569 1004.55C375.012 1005.18 377.121 1007.72 376.441 1009.04L376.456 1009.03ZM339.152 1012.85C335.233 1018.29 333.251 1026.23 341.841 1027.92C345.45 1028.62 347.148 1023.66 346.469 1020.64C346.002 1018.61 341.36 1012.2 339.152 1012.83V1012.85Z" fill="#484645"/>
<path d="M264.277 1014.9L260.131 1013.87L259.607 1015.45L259.339 1012.31C255.39 1016.54 251.286 1021.96 249.645 1027.49C255.73 1030.94 265.48 1025.3 267.108 1019.03C268.367 1014.15 265.777 1005.88 272.584 1004.54C276.009 1003.86 278.372 1007.44 278.514 1010.5C278.797 1016.21 277.099 1023.95 277.933 1029.91C278.259 1032.23 279.25 1032.91 279.023 1036.21C278.726 1040.57 277.481 1038.85 274.65 1039.6C274.042 1039.77 274.707 1041.2 272.726 1040.37C269.4 1038.94 267.66 1035.81 267.461 1032.25C259.466 1036.33 252.602 1039.82 243.899 1035.06C239.795 1032.83 238.861 1028.59 240.319 1024.27C241.805 1019.88 245.81 1020.39 237.701 1017.15C236.286 1016.58 229.621 1014.36 228.856 1015.44C227.88 1016.82 232.55 1033.96 232.762 1037.3C233.059 1041.87 232.408 1041.43 229.012 1043.27C228.658 1043.47 228.687 1044.3 228.333 1044.32C223.125 1044.51 221.469 1040.14 220.38 1036.04C218.88 1030.38 217.762 1023.09 218.116 1017.28C218.54 1010.51 220.564 1005.64 227.979 1004.58C235.394 1003.52 241.579 1008.59 247.791 1011.8C249.263 1011.8 253.621 1005.79 255.15 1004.44C255.504 1004.13 258.942 1001.92 259.31 1001.81C267.532 999.15 266.089 1010.24 264.277 1014.93V1014.9Z" fill="#484645"/>
<path d="M398.475 1038.37C397.301 1039.11 392.348 1039.59 391.371 1038.41C391.102 1038.09 391.343 1037.01 391.003 1036.45C390.013 1034.85 388.456 1034.55 389.178 1031.69C384.593 1032.74 380.05 1034.75 375.253 1032.78C372.281 1031.57 369.946 1027.87 370.342 1024.66C371.163 1018.05 377.701 1013.51 382.739 1010.03C383.078 1009.8 383.192 1008.91 383.644 1008.6C384.522 1007.96 386.814 1007.84 387.027 1007.5C387.72 1006.42 386.616 991.381 388.145 988.551C392.093 986.188 397.201 986.146 398.079 991.608C398.956 997.069 396.197 1006 397.046 1012.05L400.216 1035.63C400.173 1036.02 398.73 1038.23 398.489 1038.37H398.475ZM388.13 1026.46C388.725 1015.12 384.21 1019.36 380.786 1025.4L388.13 1026.46Z" fill="#484645"/>
<path d="M219.927 710.001C222.135 709.478 223.352 707.879 225.559 706.987C227.625 706.152 229.79 705.643 232.012 705.544C232.607 707.624 234.644 707.751 235.677 708.813C237.786 710.978 240.291 717.274 240.333 720.316C240.432 727.504 227.753 732.329 222.007 734.381C219.998 735.103 212.681 737.565 211.04 737.551C208.945 737.536 205.266 732.754 206.809 730.462C198.955 731.594 198.134 722.241 196.308 716.821C195.516 716.949 195.148 718.604 194.865 719.312C194.129 721.194 192.94 727.122 191.893 727.872C189.53 729.542 185.511 727.915 184.138 725.58C183.331 724.179 183.629 721.816 182.143 722.057C181.449 725.099 181.732 730.929 177.671 730.999C170.284 731.112 171.274 722.934 168.515 718.109C168.104 717.401 168.076 716.581 166.93 716.821C166.194 721.646 170.751 731.877 162.883 731.353C158.015 731.028 155.312 718.477 155.34 714.458C155.382 709.28 157.604 711.105 159.331 709.478C160.081 708.77 160.151 706.492 161.383 705.233C162.798 703.775 165.458 702.742 167.425 703.464C169.024 704.044 169.406 705.459 170.27 706.152C170.553 706.379 171.175 706.308 171.416 706.534C172.93 707.964 174.175 709.662 175.053 711.572C176.199 711.77 175.661 711.289 175.888 710.822C177.628 707.185 177.572 705.035 181.86 703.167C187.209 700.832 187.591 705.162 188.695 709.478L194.016 704.313C200.37 701.002 201.799 705.671 203.893 710.539C204.615 712.223 209.243 723.769 209.299 724.519C209.37 725.41 208.04 726.896 208.903 728.353L211.733 727.9C212.752 727.165 211.549 723.981 211.521 722.849C211.28 715.194 210.219 707.822 209.922 700.323C209.809 697.549 209.511 691.281 210.049 688.876C211.464 682.579 219.899 688.112 219.899 690.857V710.001H219.927ZM229.889 715.774C227.569 715.392 222.474 723.514 223.083 724.165C226.465 721.901 232.408 720.911 229.889 715.774Z" fill="#484645"/>
<path d="M109.235 706.322C110.947 706.747 111.329 704.865 112.518 704.073C115.447 702.134 118.773 700.592 121.645 698.512L122.353 698.682C124.249 701.993 127.66 701.54 127.08 706.322C129.683 705.233 131.212 702.827 134.198 702.176C140.778 700.733 148.533 701.936 152.779 707.638L151.731 708.162C152.212 709.195 153.642 712.053 153.812 712.902C154.731 717.727 156.033 722.821 156.854 727.688C157.675 732.556 152.028 734.013 148.915 730.914C147.967 730.405 146.566 726.443 145.717 726.783C144.557 727.25 143 730.094 142.038 730.971C138.132 734.523 132.301 736.758 126.966 735.556C121.674 734.353 117.726 728.07 118.164 722.849C118.263 721.604 118.985 720.585 119.056 719.637C119.197 717.769 118.108 715.123 118.178 713.142C117.145 712.874 117.159 713.567 116.707 714.02C113.339 717.317 110.084 723.91 106.928 726.273C103.772 728.636 98.706 725.24 98.2815 721.745C99.5409 711.147 98.7626 699.347 100.461 688.862C100.602 687.999 101.494 686.98 101.437 685.904C105.895 685.834 109.603 685.565 110.749 690.8L109.249 706.294L109.235 706.322ZM144.91 709.478C143.269 709.676 141.033 709.124 139.505 709.577C139.236 709.662 135.132 712.138 134.934 712.336C133.051 714.175 131.778 717.218 130.575 719.538L130.221 725.495C138.287 725.085 141.896 715.689 144.91 709.492V709.478Z" fill="#484645"/>
<path d="M361.781 689.329C362.446 689.994 363.266 690.39 363.521 691.508C365.389 699.446 357.563 695.611 355.526 697.408C354.818 698.031 354.04 701.016 353.46 702.162C352.101 704.794 349.922 707.185 350.035 710.539C356.035 708.417 365.007 702.417 370.753 707.384C373.356 709.633 371.97 710.256 372.012 712.902C372.069 717.982 371.63 721.25 369.536 726.104C367.54 730.73 359.658 742.163 354.861 743.946C349.058 746.111 345.648 741.116 347.757 735.824C348.054 735.074 349.936 734.508 350.856 733.631C355.497 729.259 359.757 722.425 361.568 716.298C356.87 717.529 351.846 721.788 349.002 725.622C346.511 728.976 346.129 733.716 340.837 733.122C338.544 732.867 336.761 730.773 336.421 728.594C335.558 722.948 337.964 711.911 339.818 706.351C341.714 700.648 345.096 695.583 346.907 689.838C349.03 687.447 357.422 686.683 360.167 687.546C361.059 687.829 361.229 688.763 361.781 689.343V689.329Z" fill="#484645"/>
<path d="M328.893 690.206C329.19 690.447 332.657 696.177 332.685 696.644C331.581 701.412 332.048 706.563 331.652 711.303C331.397 714.232 330.308 717.529 330.096 720.232C329.657 725.594 330.846 731.594 329.402 736.843C328.539 739.999 327.209 741.753 323.6 741.314C322.652 741.201 319.369 738.23 319.171 737.423C318.944 736.532 319.836 735.202 319.624 733.886C319.482 733.023 318.562 732.528 318.548 731.763C318.548 731.594 320.515 731.07 319.609 728.877L318.576 729.16C320.289 725.184 319.496 720.557 320.133 716.284C318.265 716.213 317.232 717.939 315.52 718.746C310.185 721.307 302.628 722.991 297.208 720.048C284.486 713.185 302.868 698.455 309.477 694.338C313.255 691.989 325.213 687.192 328.907 690.192L328.893 690.206ZM319.072 701.611C318.661 701.214 310.722 705.855 309.675 706.634C308.274 707.681 305.515 709.832 305.444 711.572C305.826 711.94 311.911 709.449 312.548 708.983C313.086 708.586 313.284 707.61 313.864 707.143C315.817 705.615 318.378 704.596 319.072 701.611Z" fill="#484645"/>
<path d="M277.523 700.139C281.103 704.384 281.358 708.884 280.778 714.19C280.566 714.402 276.037 714.416 275.018 714.982C274.24 715.421 273.759 717.487 273.306 717.741C272.754 718.053 271.962 717.586 271.282 718.194C270.985 718.463 269.287 722.849 269.216 723.401L269.315 724.066C271.197 725.99 272.966 724.547 274.183 724.646C274.551 724.675 274.594 725.58 275.061 725.934C275.471 726.245 276.334 726.132 276.504 726.316C276.632 726.457 276.985 729.669 276.957 730.122C276.872 731.452 275.754 731.424 275.655 731.622C275.457 732.018 275.966 732.627 275.782 733.079C274.424 736.32 266.556 736.291 263.867 735.046C255.787 731.297 261.914 719.779 263.004 713.468C260.881 711.713 258.928 712.86 257.188 714.43C256.749 714.826 253.848 718.137 253.749 718.378C253.494 718.944 254.527 719.411 254.485 720.118C254.414 721.321 252.518 723.656 252.447 725.467C252.376 727.122 253.381 728.75 252.999 730.688C252.135 735.075 245.895 734.31 244.098 731.113C241.72 726.882 242.781 718.93 244.848 714.685C247.168 709.959 254.796 703.379 259.692 701.738C264.589 700.097 267.023 704.766 269.429 704.257C270.943 701.455 274.367 699.785 277.537 700.139H277.523Z" fill="#484645"/>
<path d="M90.1586 688.664C90.5548 688.904 94.6587 692.923 94.7861 693.22C95.8899 695.654 94.7719 698.158 92.0407 698.356C90.4841 698.483 89.8755 697.097 88.234 697.606C84.6961 698.71 79.0214 706.733 77.6487 710.143C75.6392 715.109 73.842 720.316 81.696 719.467C85.4462 719.057 89.6916 714.303 93.1445 714.869C94.9842 715.166 96.3003 717.996 95.9748 719.637C95.904 719.963 92.4652 724.349 91.9133 724.957C83.1819 734.494 64.9408 730.674 65.6483 716.538C66.0587 708.417 70.6862 699.417 76.6864 693.984C77.7761 692.993 84.0593 688.437 85.0782 688.168C85.8282 687.97 89.5076 688.282 90.1444 688.664H90.1586Z" fill="#484645"/>
<path d="M108.074 92.0293L96.0314 95.1988C95.5078 98.1419 97.4607 105.33 93.937 106.49C90.4133 107.65 88.4179 106.221 87.7387 102.67C86.4368 95.9346 86.7481 89.5955 86.5924 82.832C86.55 80.9784 85.4603 79.2238 86.3235 77.3561C86.7481 76.4364 88.3755 76.0968 88.1491 74.7243C84.9084 74.8092 81.7102 71.7811 83.281 68.5409C84.6537 65.7251 95.8191 66.3194 98.7626 66.9844C101.211 67.5362 106.942 71.0029 107.848 71.0736C109.362 71.201 112.263 68.3711 114.725 71.2151C116.395 76.8892 116.197 83.0159 116.99 88.8881C124.348 80.8793 140.198 76.6486 143.481 90.4587L145.363 84.2045C147.033 84.3885 149.212 83.1857 150.755 83.7234C151.01 83.8083 153.189 86.1713 153.217 86.5109C153.387 88.4636 149.127 100.986 151.958 101.524L160.081 99.6842C160.845 98.807 159.883 96.3166 160.137 94.5338C161.1 87.9259 167.17 82.1811 173.949 82.0679C178.322 81.9972 180.827 83.2282 182.171 87.4731C184.619 95.2129 176.694 101.071 169.477 100.448C170.963 105.372 177.628 101.396 180.968 104.198L181.025 107.792C176.213 109.009 172.52 111.754 167.1 109.914C164.807 109.15 163.986 107.283 162.401 106.165C156.854 107.056 151.901 111.131 146.439 107.495C145.66 106.971 144.585 105.358 143.962 105.245C143.24 105.118 142.561 105.995 141.868 106.094C139.519 106.391 136.929 102.868 136.122 100.944C131.665 102.486 126.542 105.811 121.603 104.523C120.485 104.226 118.348 101.821 117.329 102.061C115.532 105.641 111.4 107.976 109.107 103.377C108.881 102.925 108.088 100.491 108.088 100.194V92.0576L108.074 92.0293ZM95.4795 86.7798C96.2154 87.5014 107.098 83.78 107.338 82.3509C108.187 77.4551 97.1918 73.6206 93.3709 74.4413L94.7861 77.2287L95.4795 86.7798ZM124.419 96.1468C127.179 97.8872 134.651 93.0622 135.882 90.204C135.004 86.3977 120.853 91.1378 124.419 96.1468ZM174.699 89.9351C172.251 89.6238 171.02 90.0342 169.987 92.2981C170.015 94.3781 175.789 90.8973 174.699 89.9351Z" fill="#484645"/>
<path d="M335.091 85.9025C335.445 86.0157 337.185 88.5344 337.284 89.1711C337.992 93.3736 336.492 98.2835 337.313 102.514C338.53 102.811 338.176 102.288 338.516 101.849C340.653 99.1325 341.728 93.4302 344.643 92.2699C349.851 90.2182 350.884 94.1659 352.243 98.3259C354.62 105.542 356.445 126.639 353.842 133.474C352.384 137.266 346.596 135.639 345.832 130.969C345.252 127.46 346.356 110.056 345.181 108.811C344.204 108.584 344.162 109.136 343.695 109.688C341.884 111.811 340.454 115.079 337.313 115.9C336.888 116.013 333.548 116.126 333.237 116.027C331.78 115.518 330.421 109.872 329.699 109.872C328.058 112.193 329.331 112.575 326.275 113.777C317.939 117.06 303.307 115.716 301.637 104.863L297.179 103.561C296.26 105.316 298.977 106.306 299.557 107.099C302.033 110.537 303.76 115.023 304.651 119.168C304.849 120.088 305.854 125.394 305.812 125.833C305.741 126.555 303.293 131.323 302.684 132.016C299.642 135.525 291.08 138.327 286.523 139.077C283.792 139.53 278.882 140.251 276.306 139.728C276.108 139.685 273.532 137.181 273.447 136.997C273.179 136.445 273.15 133.261 273.391 132.993C273.547 132.823 274.622 132.851 275.146 132.412C276.249 131.493 277.099 129.837 277.919 129.257C278.443 128.889 282.943 126.866 283.269 127.149L282.787 128.889C283.622 131.988 294.533 127.998 296.09 126.059C298.085 123.583 296.712 116.961 294.278 114.782C289.453 115.589 283.226 117.131 280.014 112.292C274.636 104.184 281.075 95.0998 289.099 92.3123C291.703 91.4068 294.434 91.9162 296.656 90.4729C299.642 92.5387 298.028 97.4204 302.713 96.4865C303.477 96.3308 305.09 93.0906 306.604 91.9869C312.491 87.7279 328.058 89.7654 325.001 98.8495C324.279 100.986 319.284 102.514 317.246 103.151C315.336 103.759 307.524 104.679 313.977 106.646C318.336 107.976 323.105 107.495 327.52 106.717C328.581 107.042 328.213 109.66 329.94 109.306C329.742 107.014 328.992 104.523 328.879 102.245C328.723 99.3306 328.44 91.7181 329.006 89.2277C329.572 86.7374 332.473 85.0111 335.063 85.8742L335.091 85.9025ZM294.83 103.038C293.005 96.0761 285.901 103.222 286.962 107.764L289.523 107.693C289.976 104.75 291.915 103.278 294.844 103.038H294.83Z" fill="#484645"/>
<path d="M223.889 131.266C221.158 133.29 216.545 130.233 215.837 127.22C215.214 124.588 215.427 121.475 213.516 119.027C211.776 117.952 205.62 121.73 203.087 116.89C200.653 112.221 207.233 110.198 210.884 110.919C210.46 107.269 207.276 101.736 208.365 98.1703C209.087 95.8215 222.403 89.5108 223.889 95.5951C224.597 98.4675 221.809 99.5995 221.625 101.736C221.554 102.486 222.163 109.08 222.432 109.363C226.564 108.5 230.993 107.509 234.276 104.637C234.984 103.307 227.696 84.2612 228.828 80.8795C232.366 75.9554 236.668 78.9693 238.423 83.6528C240.305 88.6618 244.083 103.816 244.564 109.037C244.706 110.65 244.649 115.051 243.39 115.886C239.951 118.136 237.531 114.924 235.309 113.013L223.705 117.725C222.941 118.786 226.493 129.356 223.903 131.266H223.889Z" fill="#484645"/>
<path d="M269.046 90.0058C269.358 90.3878 268.962 91.4208 269.145 91.9868C271.919 91.9868 273.603 93.6564 274.098 96.2599L275.4 96.2175C275.627 100.123 276.051 104.071 276.504 107.962C276.632 109.009 277.58 111.089 277.523 111.641C277.481 112.023 276.589 112.065 276.25 112.518C275.867 113.027 275.896 113.919 275.4 114.315C271.707 117.216 267.079 112.306 267.532 108.287C265.834 108.032 265.027 109.674 263.612 110.395C250.918 116.947 243.928 105.882 252.334 95.9486C255.249 92.5103 258.659 90.9114 262.806 89.6662C263.626 89.4115 264.546 88.5201 265.254 88.4635C265.452 88.4493 268.905 89.8502 269.032 90.0058H269.046ZM265.452 96.7552C261.291 96.5288 258.829 100.363 258.631 104.099C260.626 104.665 266.216 97.491 265.452 96.7552Z" fill="#484645"/>
<path d="M83.2668 162.565C83.7338 165.395 86.9038 165.834 85.9698 169.3C86.1962 169.583 90.4699 166.796 91.2624 166.471C98.5928 163.443 104.084 165.013 107.48 172.456C110.324 169.796 113.07 168.296 116.891 167.461C120.711 166.626 126.372 165.31 127.731 170.178C130.094 178.583 120.23 172.725 116.905 176.658C121.377 179.531 131.127 183.917 128.098 190.723C127.207 192.732 110.735 197.458 107.848 195.562L107.268 193.709L106.178 192.93C97.8569 197.883 85.6584 196.312 80.5215 187.61C77.9459 183.252 76.8563 179.234 80.2101 174.975L84.3707 170.376L70.4457 174.012C69.172 175.809 72.809 185.162 69.9221 189.223C67.8701 192.11 64.7285 191.105 62.5916 188.756C61.2614 187.299 61.6577 185.898 60.5114 184.54C57.4405 190.058 48.6667 192.775 42.808 191.218C41.9448 190.992 36.0012 186.789 35.2936 185.912C29.2793 178.342 31.7274 170.475 39.6381 165.735C45.426 162.268 48.7516 163.641 53.6904 167.744C56.6198 170.178 57.766 173.05 60.2567 175.597C60.6671 173.644 58.983 172.3 58.7142 170.588C58.4594 168.947 58.884 167.121 58.6151 165.438C57.9783 161.49 55.3037 154.019 55.4876 150.68C55.6292 148.147 59.7897 146.18 62.0114 147.34C67.7428 150.354 66.5823 162.48 68.6201 163.81C70.5164 165.056 80.2951 161.334 83.2527 162.565H83.2668ZM51.78 181.809C53.7187 178.639 46.2892 171.763 44.5345 172.682C40.1475 177.337 42.6382 184.044 49.4025 182.828C49.7422 182.771 51.7234 181.936 51.7941 181.823L51.78 181.809ZM107.466 176.121C106.744 175.979 106.801 176.022 106.376 176.46C105.513 177.366 105.131 178.526 103.758 179.502C99.5268 182.53 93.286 182.672 88.5878 180.847C88.7434 186.337 96.5409 187.172 100.871 186.563C104.041 186.124 110.763 181.115 109.574 188.176L115.348 186.606C112.291 182.997 107.82 181.667 107.48 176.121H107.466Z" fill="#484645"/>
<path d="M155.75 179.785C157.448 178.286 157.349 176.121 158.864 174.253C159.925 172.951 166.081 168.508 167.581 168.253C170.991 167.673 170.241 170.73 173.015 171.465L172.534 173.489L181.619 169.414C184.803 171.296 187.181 173.446 189.063 176.63C190.931 174.423 192.799 172.272 195.346 170.857C198.12 169.315 202.889 166.287 204.573 170.574C206.865 176.404 201.261 175.937 198.799 179.149C197.37 181.016 193.407 189.52 195.587 191.105C196.535 191.798 202.832 189.407 203.54 188.487C204.247 187.568 204.007 183.804 204.658 181.738C207.276 173.574 216.262 170.645 224.116 170.418C227.639 172.767 226.621 175.158 227.215 178.356C228.191 183.577 233.47 191.699 234.319 196.977C234.531 198.293 234.05 202.75 232.607 203.189C224.455 204.462 225.078 195.18 221.568 190.27C219.05 191.572 216.332 193.709 213.474 194.246C208.224 195.237 210.035 194.077 205.464 196.751C201.912 198.817 195.884 200.699 191.808 199.609C190.322 199.213 186.798 195.449 186.459 195.506C183.063 198.321 175.874 201.349 171.614 199.354C171.09 199.114 169.095 196.708 169.053 196.34C168.883 194.925 170.878 193.737 170.864 192.761C170.85 191.784 169.619 190.2 169.421 188.954C168.968 186.04 169.251 181.229 170.425 178.484C170.779 177.663 172.888 174.946 172.534 174.564C170.298 176.234 168.699 175.965 167.454 178.639C165.43 182.969 164.935 194.515 161.807 196.623C159.373 198.265 157.576 198.336 155.411 196.425C151.363 192.86 142.773 176.984 143.778 171.819C144.061 170.348 148.01 166.81 149.453 167.475C153.529 169.357 154.038 176.248 155.764 179.814L155.75 179.785ZM180.841 187.058C181.662 186.563 181.803 180.776 180.657 179.8C178.265 181.342 178.477 184.625 178.86 187.101L180.841 187.072V187.058ZM217.649 180.323C217.012 179.8 213.856 182.134 214.507 183.464C215.724 183.945 217.833 180.465 217.649 180.323Z" fill="#484645"/>
<path d="M398.107 176.121C402.438 171.579 412.428 161.858 418.853 161.928C420.665 161.943 420.693 163.527 422.235 163.542C420.778 160.839 420.58 156.155 424.216 155.264C426.891 154.613 429.537 158.179 431.405 159.848C431.278 161.943 431.377 164.829 431.816 166.838C432.849 171.621 435.764 177.026 436.783 182.332C437.873 188.035 439.344 201.463 435.651 206.047C432.934 209.429 427.471 208.863 425.646 204.972C424.783 203.132 427.146 202.425 427.952 200.981C432.538 192.718 427.839 176.248 423.566 168.282C420.495 170.8 416.929 170.942 413.476 173.39C412.612 173.998 406.612 179.092 406.513 179.545C406.188 181.002 410.872 181.285 412.174 181.738C416.49 183.252 424.952 189.195 418.697 193.411C413.461 196.935 402.565 197.982 398.376 192.393C395.716 194.515 394.4 195.817 391.031 193.454C388.003 191.331 389.248 187.992 389.234 185.332C389.192 177.663 389.121 169.994 389.305 162.325C391.442 157.768 398.121 160.627 398.121 164.32V176.121H398.107Z" fill="#484645"/>
<path d="M244.932 181.37C248.4 180.281 249.617 176.786 252.305 174.847C255.15 172.795 265.226 168.876 266.06 174.408C268.296 173.913 268.664 179.658 268.325 180.861C267.546 183.662 260.556 187.907 257.513 187.143C256.862 196.284 270.306 187.653 272.131 188.785C276.023 195.548 266.443 200.034 260.881 200.741C254.683 201.519 248.838 196.694 247.253 190.85C246.517 188.148 247.848 187.171 244.395 185.573C243.517 192.096 248.697 197.911 244.536 203.925C243.192 204.052 239.767 204.675 238.734 203.797C238.465 203.571 236.668 199.1 236.569 198.364C235.649 191.926 235.989 184.497 235.465 177.96C235.026 172.442 233.541 166.06 233.357 160.627C233.328 159.99 233.427 159.382 233.611 158.773C233.894 157.811 237.8 156.085 238.762 156.283C245.116 157.585 243.928 176.389 244.932 181.37Z" fill="#484645"/>
<path d="M25.8122 191.501C25.2886 191.883 25.4584 192.831 24.3829 192.888C17.8732 193.157 14.5476 182.644 10.6843 178.753C9.87768 178.753 9.69371 183.323 6.49549 183.507C3.29728 183.691 0.622662 181.738 0 178.498C2.26422 172.682 1.58496 161.702 5.19356 156.99C7.0474 154.585 8.13706 154.288 10.9107 155.972C14.024 157.854 15.9203 163.796 16.9958 167.235C17.3355 168.296 17.0524 169.753 17.5194 171.381C17.7176 172.088 20.2082 178.229 20.9016 177.705C23.1658 169.81 22.9819 162.042 22.5856 153.934C24.2555 152.646 25.8688 149.76 28.0056 149.873C30.1425 149.986 33.4822 152.873 33.5105 154.91C33.5105 155.901 32.0812 156.339 31.9114 157.542C31.7699 158.603 32.435 159.636 32.4492 160.669C32.5765 166.782 30.751 185.658 27.6377 190.483C27.015 191.445 26.3499 191.119 25.8122 191.53V191.501Z" fill="#484645"/>
<path d="M343.737 206.896C343.837 207.137 345.719 207.321 343.511 209.386C337.907 214.636 328.85 212.075 323.232 208.226C315.845 203.175 310.765 193.836 311.557 184.766C312.038 179.304 320.26 162.282 323.515 157.372C325.836 153.863 327.506 153.269 330.916 155.943C331.978 156.778 333.096 157.57 333.11 159.028C333.11 159.82 329.954 166.555 329.317 167.886C326.147 174.564 320.26 181.653 320.996 189.464C321.251 192.237 323.501 198.251 325.468 200.203C330.86 205.566 335.784 202.708 341.601 203.995C343.794 204.477 343.143 205.41 343.752 206.854L343.737 206.896Z" fill="#484645"/>
<path d="M350.36 185.558C353.474 186.337 357.082 185.686 360.04 186.11C360.238 186.139 363.224 187.143 363.365 187.256C363.507 187.384 365.05 190.383 365.078 190.567C365.375 192.506 364.144 194.246 362.205 194.501C357.436 195.138 347.091 194.529 342.379 193.298C338.275 192.223 337.2 191.6 336.181 187.426C340.511 183.563 343.723 179.219 345.124 173.503C344.19 172.781 342.053 175.328 341.487 176.007C340.596 177.083 337.299 182.828 336.888 182.941C334.157 183.691 328.85 181.512 329.048 178.469C329.091 177.861 333.803 171.579 334.652 170.616C336.846 168.098 346.624 159.325 349.596 159.382C351.379 159.424 353.827 161.348 354.068 163.23C354.408 165.82 354.337 173.178 353.997 175.795C353.544 179.262 351.224 182.219 350.375 185.544L350.36 185.558Z" fill="#484645"/>
<path d="M288.165 171.168C289.127 172.116 289.41 172.003 289.523 173.758C289.806 178.13 288.632 177.988 284.981 178.668C283.721 178.908 281.202 178.017 281.641 179.771C284.74 181.257 288.788 182.545 291.717 184.129C295.637 186.238 297.561 188.728 296.09 193.44C295.283 196.015 288.122 198.378 285.575 198.661C281.783 199.071 276.094 198.633 274.565 194.43C273.235 190.766 279.49 190.384 281.91 190.256C282.504 190.228 283.353 190.596 283.212 189.733C281.231 188.969 278.57 188.459 276.716 187.568C268.013 183.464 267.985 174.833 277.183 171.352C280.651 170.036 283.184 170.574 286.693 169.796C287.585 169.768 287.698 170.659 288.165 171.126V171.168Z" fill="#484645"/>
<path d="M383.602 170.164C384.211 170.857 385.569 171.055 385.937 172.286C386.418 179.955 386.39 188.388 378.069 191.473C375.125 192.563 372.04 192.676 369.111 191.317C368.8 191.176 364.3 187.157 364.016 186.86C360.139 182.672 364.243 175.823 366.55 171.564C370.356 164.518 372.564 160.103 380.531 166.683C381.876 167.786 382.555 168.947 383.616 170.164H383.602ZM375.918 182.785C377.984 181.002 378.663 172.428 375.805 172.442L370.809 182.7C370.823 184.893 374.885 183.677 375.918 182.785Z" fill="#484645"/>
<path d="M94.9417 855.446C102.555 855.771 113.551 851.781 118.334 859.62L116.438 863.836C123.188 862.167 133.25 866.298 136.108 872.765C137.736 872.765 140.141 867.034 141.656 865.718C144.358 863.369 151.491 859.337 154.901 857.978C155.75 857.639 160.93 855.941 161.255 856.011C161.864 856.167 161.85 857.398 162.444 857.554C165.005 858.233 166.222 855.955 168.232 855.559C169.619 855.276 170.977 855.629 172.293 855.417C173.157 855.276 173.779 854.455 174.94 854.342C179.143 853.931 182.666 859.011 179.836 862.676L172.053 864.077C170.553 865.223 172.166 868.265 172.916 869.539C175.208 873.444 180.275 876.698 178.647 881.693C178.01 883.66 176.242 883.405 174.841 884.169C172.378 885.499 166.449 888.471 163.788 888.895C160.59 889.419 155.354 887.452 157.434 883.547C157.604 883.235 159.798 880.547 160.024 880.377C161.213 879.5 166.307 878.382 166.293 876.684C166.293 876.118 162.67 871.123 161.977 869.949C161.128 868.477 161.284 866.298 159.316 866.525C156.316 866.864 149.396 871.18 148.646 874.307C148.434 875.198 149.297 880.448 149.51 881.877C149.651 882.882 150.444 883.646 150.514 884.566C150.882 889.461 146.439 891.909 142.377 889.023C141.556 888.428 139.717 884.495 138.981 885.33C138.726 899.026 121.15 898.899 114.343 890.31C110.905 885.98 114.103 885.655 113.791 882.5C113.65 881.014 111.612 878.156 111.018 876.316C109.673 872.213 108.47 867.911 112.221 864.883C110.126 864.813 97.4749 864.94 97.1635 866.68C98.1966 874.024 99.3428 881.325 100.22 888.683C100.857 894.032 103.602 901.05 96.3569 903.087C94.3615 901.531 91.5313 901.46 90.8661 898.559L86.5217 866.963L80.2526 868.039C79.9837 869.963 80.3234 872.807 81.5687 874.335C82.0074 874.873 82.7008 874.321 82.7857 874.392C83.748 875.213 82.3612 877.137 82.3045 878.226C82.1206 881.523 82.998 892.192 82.0498 894.23C81.9791 894.371 80.196 896.593 80.0686 896.692C78.4271 898.064 72.2004 895.333 71.5353 893.211L69.172 869.086C65.2521 869.241 57.6387 869.652 57.6245 864.077C57.6104 858.53 63.3983 858.219 67.6295 858.573L66.3135 836.782C66.554 833.598 69.356 833.896 68.6909 830.783C71.7476 830.047 77.3657 830.896 77.5638 834.716C77.6487 836.414 77.4506 838.296 77.578 840.461C77.8752 845.654 77.861 850.918 78.1723 856.125L78.9648 856.903L84.3565 856.408L79.7573 832.707L83.0546 827.755C84.5829 828.462 86.6207 828.349 88.0783 828.901C92.2388 830.486 91.1209 834.702 91.885 838.211C92.3945 840.532 93.3992 842.994 93.7955 845.215C94.0361 846.545 94.5031 854.993 94.8851 855.403L94.9417 855.446ZM130.603 881.665C130.646 876.868 127.207 872.751 122.254 872.779C120.527 874.024 124.631 880.674 125.877 881.438C126.457 881.792 127.292 880.589 128.254 880.618C129.216 880.646 129.556 881.891 130.603 881.665Z" fill="#484645"/>
<path d="M273.207 863.298C274.848 862.945 275.584 861.544 277.198 860.752C283.537 857.61 286.141 863.044 289.255 867.458C293.599 865.463 299.146 861.516 304.114 863.61C305.543 864.218 306.449 865.661 307.637 866.369C308.557 866.921 309.703 867.034 310.637 867.572C311.713 868.194 312.222 869.666 313.595 869.595C315.576 858.077 321.859 853.394 328.553 865.393C331.879 860.426 336.025 862.336 339.053 866.44L339.789 866.397C340.469 864.261 347.106 859.039 348.79 859.351C356.997 861.742 356.898 871.307 358.71 878.283C358.936 879.146 358.172 879.825 359.771 879.556C360.648 874.604 355.766 860.667 359.785 857.285C365.446 852.516 372.337 856.903 376.314 861.714C376.866 862.379 380.135 867.303 380.22 867.77C381.309 873.373 375.026 882.174 369.224 882.712C369.153 884.155 369.635 885.542 370.002 886.9C371.078 890.805 372.507 894.668 373.484 898.63C374.05 900.937 376.088 908.011 372.649 908.436C363.733 909.554 365.219 900.682 363.847 894.626C362.941 890.65 361.922 885.627 360.04 882.174C359.063 886.433 363.79 890.282 360.747 894.187C357.818 893.48 354.945 894.102 352.95 891.357C350.672 888.216 349.002 871.604 347.7 870.642C345.322 871.222 343.398 875.962 342.903 878.17C341.969 882.301 342.733 886.561 342.379 890.763C342.138 891.499 338.134 892.744 337.511 892.687C337.256 892.659 335.261 889.758 333.789 889.532L333.534 883.235C332.048 882.938 332.629 883.731 332.445 884.735C330.407 885.075 328.482 885.245 326.572 884.268C326.43 884.197 324.308 882.202 324.251 882.047C323.473 879.967 324.265 875.411 322.256 873.26C320.515 873.43 321.973 877.052 322.029 878.212C322.086 879.712 322.284 883.674 321.746 884.792C320.628 887.126 316.779 885.98 315.024 886.377C314.6 886.476 314.883 887.339 313.906 887.452C309.406 888.032 307.029 884.792 305.472 881.113C299.444 888.98 285.448 888.372 282.264 878.085C281.91 876.925 281.259 870.6 279.759 870.628C278.245 871.845 274.693 880.717 273.858 881.099C270.179 882.811 267.928 879.571 266.669 879.542C265.834 879.528 264.376 880.646 263.273 880.872C257.018 882.174 248.484 882.415 243.829 877.179C243.263 876.543 241.352 873.161 241.423 872.453C241.451 872.085 244.593 867.161 245.145 866.411C246.348 864.798 253.48 857.596 254.853 857.172C256.31 856.719 259.466 858.799 260.57 859.931C260.513 866.298 252.404 867.473 251.711 873.741C256.296 875.297 260.768 875.156 265.353 873.741C265.042 868.987 263.754 863.992 263.258 859.308C263.103 857.752 263.386 856.167 263.258 854.596C262.933 850.833 259.933 836.81 265.126 835.961C266.796 835.692 271.042 837.235 271.551 838.961C272.315 841.593 271.466 848.144 271.664 851.441C271.905 855.346 273.023 859.337 273.235 863.242L273.207 863.298ZM370.102 864.515C369.479 863.963 366.535 862.846 366.068 863.298C365.884 864.713 366.748 873.713 367.894 873.783C371.262 871.972 373.455 867.487 370.102 864.515ZM302.062 870.656C300.661 869.383 286 876.443 293.967 876.939C297.264 877.137 301.382 873.939 302.062 870.656Z" fill="#484645"/>
<path d="M222.828 865.846C221.385 866.143 221.3 867.996 220.295 868.803C218.399 870.317 205.266 870.798 201.742 871.222C200.299 871.392 199.195 872.255 197.511 872.27C188.327 872.326 186.827 861.714 196.987 860.695C201.134 860.285 205.648 860.539 210.035 860.101C213.516 859.747 217.79 857.469 220.634 860.653C221.201 861.289 223.139 865.223 222.842 865.846H222.828Z" fill="#484645"/>
<path d="M384.932 919.43C385.159 918.185 387.55 915.072 388.895 914.945C389.645 914.874 394.23 917.916 394.612 918.652C395.617 920.662 394.315 925.671 394.385 928.345C394.414 929.463 394.895 934.019 395.758 934.302C400.173 935.759 400.23 932.958 401.9 931.401C403.655 929.774 411.452 925.246 413.645 925.048C416.079 924.822 420.948 927.001 421.556 929.533C422.716 934.401 417.226 939.212 413.263 940.924C412.046 941.447 407.702 942.325 407.475 942.523C405.098 944.631 407.942 953.107 410.49 953.701C410.872 953.786 417.028 952.795 418.131 952.611C419.518 952.399 422.264 950.899 423.679 951.777C425.434 952.866 424.047 957.719 422.971 959.021C422.306 959.828 418.23 961.724 417.07 962.035C411.693 963.464 407.645 962.672 402.947 959.927L398.588 953.786V963.493C398.588 963.662 397.555 966.648 397.428 966.775C393.183 968.7 388.513 965.841 388.357 961.115C385.088 962.983 382.187 965.657 378.253 966.223C374.205 966.804 363.649 966.86 359.502 966.365C357.337 966.11 355.497 963.775 355.115 961.78C354.79 960.139 356.941 960.182 357.153 958.484C352.186 959.163 349.129 961.979 344.049 960.309C338.997 958.639 336.393 955.399 335.572 950.178C332.487 948.777 328.709 948.989 327.902 944.985C327.478 942.876 328.779 940.683 330.775 940.202C332.105 939.877 334.426 941.815 336.11 941.122C336.492 939.424 336.619 938.561 338.261 937.768L337.468 936.467H328.553C327.025 936.467 324.633 938.009 324.591 939.848C324.548 941.674 326.416 948.324 326.968 950.645C327.916 954.635 333.209 964.978 325.397 965.36C322.921 965.473 321.152 963.648 320.303 961.497C318.831 957.776 316.822 949.98 315.944 945.919C314.402 938.844 312.59 933.481 320.473 929.958C325.001 927.934 334.596 928.104 339.464 929.25C340.907 929.59 340.865 930.467 340.992 930.524C344.771 932.179 342.747 932.038 344.855 933.792C346.256 934.967 349.908 935.49 350.997 936.438C351.167 936.58 353.134 939.962 353.205 940.174C353.431 940.797 352.639 943.655 352.257 944.192C352.158 944.334 349.908 946.584 349.766 946.683C348.945 947.305 346.002 948.112 345.705 948.635C345.195 949.527 345.478 951.649 346.851 951.649C350.686 951.678 355.214 949.499 359.233 950.093C358.384 947.263 360.224 942.452 361.851 940.004C365.913 933.877 370.583 931.995 377.191 929.604C377.602 929.463 377.404 928.684 378.352 928.557C379.088 928.458 380.729 928.444 381.437 928.6C381.663 928.656 384.394 931.401 384.946 931.741C385.399 928.033 384.324 922.926 384.946 919.416L384.932 919.43ZM388.074 954.833C388.201 949.399 386.475 944.093 385.512 938.773C385.272 937.415 385.951 935.83 384.663 934.91C380.135 938.49 374.022 939.452 370.243 944.093C370.017 945.155 370.668 944.829 371.375 945.027C376.724 946.485 382.328 946.796 386.163 951.734C386.97 952.767 387.055 954.309 388.06 954.833H388.074ZM377.064 955.356L363.96 953.248C364.399 956.998 362.177 956.036 360.28 957.96C364.639 957.62 371.616 958.484 375.621 956.771C376.102 956.573 377.305 955.654 377.064 955.342V955.356Z" fill="#484645"/>
<path d="M45.8505 929.83C47.8742 931.557 46.926 934.358 44.959 935.66C43.9967 936.297 39.2277 937.57 37.7842 937.924C35.3785 938.518 33.5954 938.179 30.6802 939.226C26.6612 940.655 23.2507 942.268 24.2272 947.008C26.3641 957.309 41.2372 962.601 50.2233 957.988C51.2139 956.616 45.4684 954.932 46.7987 951.734C46.8694 951.578 48.6525 949.258 48.8789 949.046C49.7563 948.211 50.7045 948.239 51.2988 947.659C52.247 946.739 53.5206 943.754 54.8084 942.777C57.2283 940.938 64.1341 938.462 67.205 938.66C75.71 939.197 81.8517 944.079 74.1958 951.55L64.3889 956.686C68.2947 962.035 76.6581 957.012 80.7903 957.592C81.6253 957.705 86.5783 959.629 86.9179 960.125L85.7292 962.558C77.21 966.393 72.5825 969.945 62.8181 967.157C60.851 966.591 56.3792 963.634 55.2188 963.747C53.2234 963.945 52.9545 966.648 51.6668 967.624C47.5345 970.765 37.4305 968.954 32.7746 967.299C25.3593 964.653 16.8685 958.101 14.675 950.248C14.3212 948.961 13.3306 942.565 13.4863 941.504C13.8684 938.985 19.5148 934.174 21.7507 932.943C25.6282 930.793 38.2795 928.047 42.624 928.599C43.3174 928.684 45.3552 929.448 45.8364 929.859L45.8505 929.83Z" fill="#484645"/>
<path d="M129.981 960.606C126.16 963.591 121.787 966.634 116.749 964.667C115.192 964.058 110.721 960.464 109.815 959.007C106.631 953.941 113.112 942.975 117.428 939.919C118.306 939.296 126.499 934.868 127.051 934.896C127.292 934.896 131.339 936.099 131.537 936.226C132.103 936.58 132.188 937.768 132.91 937.952C133.334 938.065 134.155 937.528 134.82 937.655C137.863 938.221 140.071 939.707 140.481 943.018C141.924 954.833 139.773 970.27 139.929 982.354C138.245 987.915 132.231 985.637 129.655 982.142C129.358 981.618 129.981 981.01 129.981 980.797V960.606ZM127.83 945.423C123.712 943.683 116.508 953.503 120.004 955.653C120.74 955.866 122.905 955.215 123.358 954.861C123.839 954.493 123.584 953.687 123.839 953.432C125.877 951.366 128.863 948.862 127.844 945.423H127.83Z" fill="#484645"/>
<path d="M152.014 951.154C152.92 951.338 153.076 950.927 153.472 950.262C155.595 946.64 156.161 940.301 157.491 936.438C157.93 935.165 159.019 935.136 159.232 934.769C159.543 934.217 159.189 933.297 159.43 932.901C160.307 931.472 166.845 934.174 167.397 935.547C168.331 939.509 168.925 943.697 169.972 947.616C170.51 949.626 173.086 953.757 172.407 956.078C172.364 956.205 170.652 957.946 170.524 957.974C166.562 958.823 164.425 957.394 161.722 954.847C155.934 967.511 146.057 966.619 142.618 952.965C141.387 948.083 139.66 934.627 142.887 930.764C144.5 928.826 150.146 930.467 151.024 932.505C152.212 935.264 150.769 940.202 150.953 943.598C151.094 946.102 152.099 948.635 152.028 951.182L152.014 951.154Z" fill="#484645"/>
<path d="M300.165 958.314C300.378 958.752 301.864 958.483 300.406 960.804C297.477 965.502 291.052 961.794 289.594 957.578C289.311 956.743 289.523 955.668 289.212 954.819C288.986 954.168 285.731 944.178 284.203 945.933C284.67 948.749 283.382 951.409 283.155 954.069C282.858 957.677 284.302 962.771 281.316 965.346C278.853 967.468 274.863 964.936 273.66 962.516C272.712 960.606 270.829 951.154 270.603 948.763C270.32 945.664 270.179 935.462 271.565 933.056C272.966 930.594 275.429 930.269 277.849 931.557C278.584 931.953 279.165 933.156 279.801 933.283C281.132 933.552 281.528 930.793 285.901 932.957C293.458 936.707 296.826 951.38 300.151 958.342L300.165 958.314Z" fill="#484645"/>
<path d="M221.484 906.356C221.979 907.049 222.361 906.342 222.333 908.394C222.262 913.742 220.45 920.506 220.167 926.222C219.785 934.302 221.738 957.903 219.233 963.577C218.993 964.129 217.79 966.124 217.337 966.195C213.686 966.195 212.342 964.582 209.653 962.898C209.809 958.894 209.568 954.875 209.653 950.871C209.681 949.626 210.205 948.48 210.219 947.249C210.46 933.538 209.243 919.784 212.271 906.285C214.606 902.536 219.078 902.974 221.455 906.356H221.484Z" fill="#484645"/>
<path d="M259.027 948.536L259.353 950.149C261.9 951.394 264.589 951.904 267.292 952.611C267.829 952.753 268.565 952.243 269.018 952.498C269.145 952.569 270.914 954.394 270.943 954.536C271.424 957.663 265.735 960.295 263.103 959.983C260.159 959.644 254.343 957.182 251.952 955.356C250.72 954.408 248.484 951.338 247.48 950.913C245.088 949.88 241.819 950.744 240.432 946.937C239.781 945.14 241.579 941.758 243.135 941.292C244.423 940.895 246.093 941.391 247.621 941.051C250.947 940.315 255.178 938.235 259.041 937.259C260.103 936.99 261.716 935.943 262.452 935.971C262.721 935.971 266.499 937.457 266.938 937.74C267.193 937.91 269.188 939.961 269.245 940.117C268.961 945.31 264.15 949.13 259.027 948.536Z" fill="#484645"/>
<path d="M198.417 933.042C198.7 932.575 199.266 931.443 199.337 931.387C200.922 929.986 207.615 932.49 208.125 935.179C208.535 937.344 207.969 940.626 208.139 943.032C208.549 948.791 210.177 955.837 206.794 961.115C204.12 965.289 198.855 965.799 198.275 960.238C198.134 958.823 199.11 957.182 199.209 955.625C199.605 948.833 197.582 941.985 197.129 935.193C197.171 934.245 198.035 933.679 198.417 933.056V933.042Z" fill="#484645"/>
<path d="M191.652 930.495C188.822 932.052 183.926 939.127 181.407 939.919C176.921 941.32 171.671 938.023 174.006 933.042L185.256 922.26C187.251 919.897 188.865 913.813 192.601 913.94C193.648 913.983 196.549 915.44 197.157 916.261C199.167 918.949 193.365 927.878 191.638 930.509L191.652 930.495Z" fill="#484645"/>
<path d="M209.568 915.865C204.983 918.482 198.403 913.289 202.068 908.634C205.28 904.545 214.196 910.545 209.568 915.865Z" fill="#484645"/>
<path d="M408.197 784.655C408.806 785.263 409.174 787.612 409.683 787.683C416.051 784.315 420.792 782.716 427.754 785.815C431.604 787.527 431.278 790.838 429.891 794.248C426.75 794.899 424.089 793.159 420.735 793.484C418.896 793.668 413.575 795.55 416.646 797.432C422.688 801.125 430.811 803.375 431.335 812.02C429.792 812.586 429.707 814.369 428.957 814.978C424.471 818.543 403.301 821.628 405.183 810.747C404.659 810.351 401.772 813.053 400.824 813.464C395.602 815.728 388.711 813.662 384.479 810.209C382.668 808.723 377.531 803.134 377.361 801.04C377.262 799.809 377.757 798.72 377.715 797.8C377.559 793.64 377.064 790.074 378.55 785.942C379.526 783.905 388.866 780.82 391.3 780.806C394.456 780.806 406.131 782.603 408.197 784.655ZM395.744 789.763C392.121 789.862 386.942 789.508 386.829 794.206C387.027 795.564 389.531 794.149 390.154 793.88C390.734 793.64 396.947 790.824 395.73 789.763H395.744ZM413.065 807.068C413.292 806.063 412.754 806.063 412.145 805.639C410.376 804.422 408.013 803.474 406.57 801.776C405.296 800.29 405.183 798.479 403.881 797.107L394.711 803.148C398.305 805.738 401.348 803.106 405.169 803.969C404.787 805.257 406.244 806.587 406.258 807.351C406.273 808.285 404.942 808.653 405.211 809.7C408.763 810.096 409.655 806.176 413.079 807.082L413.065 807.068Z" fill="#484645"/>
<path d="M172.279 792.904L165.982 793.951C165.968 798.238 166.024 802.54 165.968 806.827C165.953 807.86 166.491 808.808 166.406 809.827C166.251 811.638 164.496 813.959 164.369 815.926C162.953 815.303 160.533 817.029 160.052 816.958C159.84 816.93 156.783 814.864 156.543 814.553C154.066 811.327 155.977 804.266 156.047 800.545C156.231 792.593 155.156 784.825 154.958 776.943C154.887 774.127 154.533 768.369 154.986 765.921C155.411 763.699 158.92 761.916 161.142 762.893C167.807 765.807 163.519 777.877 165.472 783.48L171.43 782.886C173.496 782.207 172.605 775.231 172.817 773.25C173.213 769.458 173.595 760.699 178.364 760.402C179.029 760.36 182.44 761.775 182.666 762.086C185.03 765.397 180.869 777.071 182.511 781.386C184.548 783.806 189.063 781.499 190.789 781.981C191.539 782.193 192.388 783.707 193.719 783.551L193.803 786.098L195.374 785.575C194.242 786.65 194.78 787.739 194.256 788.871C192.36 792.989 186.048 792.975 182.256 792.38V808.384C182.256 808.525 182.68 808.865 182.638 809.346C182.44 811.992 179.992 814.143 177.289 813.888C175.477 813.718 172.293 810.082 172.293 808.398V792.918L172.279 792.904Z" fill="#484645"/>
<path d="M364.271 807.591C362.814 807.365 363.479 807.818 363.224 808.384C361.087 813.181 357.62 816.392 351.959 817.043C343.992 817.977 339.506 813.831 341.346 805.908C343.497 796.654 352.313 784.202 363.224 786.607C362.941 781.061 361.073 772.345 362.29 767.053C363.366 762.355 370.993 764.647 371.573 769.09L374.814 809.417C373.102 817.878 364.483 815.232 364.285 807.591H364.271ZM363.663 800.333C361.002 800.658 360.677 795.748 359.304 796.059C359.035 796.116 355.257 799.172 354.903 799.54C354.125 800.361 350.941 805.794 351.691 806.544C356.12 806.728 359.601 801.988 363.748 802.356L363.663 800.333Z" fill="#484645"/>
<path d="M299.005 786.848C302.373 789.268 299.939 792.508 299.741 795.253C299.543 797.998 299.387 808.553 300.279 810.379C300.463 810.761 301.736 811.228 302.09 812.346C302.359 813.195 302.415 816.675 302.104 817.524C301.977 817.892 298.92 821.897 298.679 822.052C298.524 822.151 295.17 822.618 294.986 822.576C290.005 821.472 289.821 814.68 289.255 810.747C277.863 821.812 260.301 811.482 272.032 796.937C275.287 792.904 283.056 787.244 288.179 786.324C289.707 786.055 294.972 785.447 296.33 785.518C297.59 785.589 298.099 786.211 298.991 786.848H299.005ZM286.637 797.106C285.929 796.371 277.155 804.011 278.245 804.974C280.707 806.148 287.457 797.97 286.637 797.106Z" fill="#484645"/>
<path d="M23.8734 803.46C23.5904 803.898 25.2461 810.209 25.5291 811.369C26.0244 813.407 27.0433 814.808 26.8311 817.694C26.7603 818.614 26.1801 820.482 25.614 821.203C23.1517 824.415 20.7318 822.364 17.4911 821.529C16.3166 819.364 15.0288 817.256 13.9957 815.034C12.4532 811.737 11.6608 805.257 7.5427 805.497L9.43899 802.639C9.19841 798.38 4.08976 787.216 8.29272 784.485C9.82108 783.495 10.4296 784.556 11.406 784.4C12.3825 784.244 13.2457 781.981 14.491 781.259C20.0808 777.99 29.9161 780.113 35.1804 783.367C36.7936 784.372 39.5673 788.192 39.5673 790.032C39.5673 795.182 28.0764 801.394 23.8593 803.474L23.8734 803.46ZM20.1374 793.428C20.4912 793.824 26.6754 790.173 26.4207 788.985C22.8121 786.65 19.0902 789.183 20.1374 793.428Z" fill="#484645"/>
<path d="M336.846 783.622C337.893 784.57 338.94 787.527 339.11 788.971C339.605 793.484 339.662 803.134 339.435 807.775C339.351 809.671 338.374 811.072 338.02 812.841C336.067 812.374 333.902 813.053 332.133 811.822C329.982 810.336 328.779 802.13 328.624 799.47C328.553 798.139 329.36 790.951 328.312 790.782C321.831 791.744 317.968 797.899 314.982 803.148C317.656 803.262 320.996 801.21 323.727 800.347L327.053 803.134C325.907 804.365 326.558 805.681 326.048 806.841C324.916 809.487 319.963 813.209 317.09 813.676C307.651 815.204 302.514 808.44 305.642 799.611C308.288 792.126 316.029 782.066 324.704 781.896C326.841 781.853 327.789 783.268 328.949 783.381C330.11 783.495 331.751 781.782 333.464 782.023C333.86 782.08 336.506 783.367 336.832 783.664L336.846 783.622Z" fill="#484645"/>
<path d="M65.6201 790.965C67.3041 793.229 66.1012 794.984 66.3418 796.753C66.9361 801.238 68.9739 806.573 70.5306 810.351C70.8561 811.129 72.1863 810.379 71.2948 813.379C70.2193 817.029 64.8983 818.444 61.8133 816.534C60.0303 815.43 58.9972 810.662 58.417 808.638C57.5113 808.058 55.148 810.718 54.0867 811.369C47.4214 815.543 37.1757 817.977 32.2794 809.869C30.5246 806.969 31.9114 805.964 33.7936 803.672C41.0108 794.842 49.162 792.338 59.6199 789.621C60.4406 789.409 61.1907 788.32 61.9407 788.249C62.2379 788.22 65.4219 790.697 65.6201 790.965Z" fill="#484645"/>
<path d="M234.998 799.441C237.56 801.535 243.914 803.658 244.961 807.039C247.55 815.43 240.8 819.986 233.385 820.694C227.144 821.288 215.894 819.845 214.224 812.614C215.314 812.232 216.446 810.534 217.252 810.294C218.894 809.813 225.531 812.063 228.701 811.808C230.866 811.638 233.003 810.407 235.225 810.195L225.814 805.186C222.488 802.752 220.918 797.262 222.418 793.456C223.252 791.319 227.583 786.48 229.592 785.405C232.38 783.905 237.149 784.626 238.38 781.358L238.904 781.613C240.744 784.075 244.013 785.645 243.517 789.367C242.739 795.267 234.559 789.253 232.649 795.21C232.875 797.545 233.357 798.069 234.998 799.413V799.441Z" fill="#484645"/>
<path d="M148.76 784.924C148.83 785.051 150.061 785.15 150.104 786.423C150.161 788.39 146.283 793.272 144.641 794.404C142.915 795.607 137.099 796.979 136.66 798.521C136.42 799.37 138.372 805.78 139.207 806.29C140.552 806.714 142.25 806.686 143.623 806.502C146.623 806.106 150.5 802.455 152.128 806.077L153.896 805.497L153.345 808.327L154.434 808.893C152.368 814.822 144.585 816.562 138.924 816.01C128.311 814.977 122.778 798.79 126.697 790.088C129.882 782.985 140.538 777.792 147.458 781.782C150.132 783.325 148.25 783.834 148.774 784.909L148.76 784.924Z" fill="#484645"/>
<path d="M199.549 806.021C200.667 807.676 209.526 806.389 211.606 806.558L211.082 808.653L213.7 809.445C209.837 811.412 214.464 813.421 209.356 815.586C202.846 818.331 192.487 815.459 190.251 808.256C188.044 801.139 191.539 795.026 196.676 790.329C199.11 788.107 205.28 784.075 208.464 783.693C210.078 783.509 213.361 785.49 214.167 786.975C216.446 791.178 215.724 794.022 213.106 797.828C210.007 802.328 205.167 803.446 200.087 804.21C199.478 804.45 199.379 805.752 199.563 806.035L199.549 806.021Z" fill="#484645"/>
<path d="M120.711 763.685C122.806 765.341 121.716 775.387 121.886 778.5C122.268 785.504 122.664 792.423 122.962 799.455C123.202 805.37 126.216 811.596 119.027 814.44C116.82 812.558 113.239 811.709 113.041 808.341C113.579 796.144 111.725 783.778 111.909 771.651C111.966 768.043 112.56 763.529 116.296 762.044C117.485 762.992 119.693 762.878 120.711 763.685Z" fill="#484645"/>
<path d="M100.107 766.373C102.895 765.072 106.376 767.024 107.678 769.642C108.98 772.26 107.777 773.038 107.735 775.316C107.579 784.641 108.428 793.923 109.334 803.134C109.702 806.813 111.584 812.657 109.037 815.968C108.824 816.237 106.093 817.892 105.909 817.906C105.286 817.949 101.989 815.827 101.451 815.218C98.9891 812.487 100.192 809.02 99.8806 805.78C98.9607 796.286 97.2767 785.872 97.7579 776.377C97.8711 774.198 98.1966 767.279 100.107 766.388V766.373Z" fill="#484645"/>
<path d="M87.2009 813.28C82.7291 815.699 79.7714 814.525 77.8327 809.968C75.5968 804.676 76.4883 800.276 75.7241 795.295C75.5402 794.149 73.8562 792.508 74.8185 790.909C74.9175 790.739 77.3516 789.239 77.6629 788.22L82.347 789.706C82.5734 791.305 84.2433 793.399 84.5405 794.333C85.2339 796.569 84.8235 799.455 85.2197 801.521C85.9839 805.582 88.4604 809.006 87.2009 813.265V813.28Z" fill="#484645"/>
<path d="M86.1113 772.571C86.6349 773.165 86.9038 776.165 88.2764 776.901C88.2764 777.622 84.0735 779.023 83.2102 779.165C79.078 779.872 76.0213 774.552 78.6252 771.382C79.5026 770.307 85.5452 771.92 86.1113 772.557V772.571Z" fill="#484645"/>
<path d="M344.544 765.439C344.841 765.793 345.45 765.821 345.789 766.529C347.558 770.208 345.818 773.915 341.572 772.967C341.091 772.854 338.318 769.118 338.148 768.411C337.384 765.114 340.27 765.241 339.096 762.496C340.483 764.647 342.294 763.246 343.285 763.77C343.752 764.01 344.105 764.958 344.53 765.454L344.544 765.439Z" fill="#484645"/>
<path d="M184.138 257.679C184.945 258.359 185.27 259.745 186.459 259.547C186.402 257.934 185.497 256.321 186.034 254.666C186.19 254.17 188.737 251.991 189.374 251.737C197.299 248.723 197.271 259.604 199.322 264.783C200.384 267.443 202.167 269.763 203.257 272.409L201.006 275.649C199.167 277.163 191.921 275.211 191.709 272.126H190.945C189.983 275.183 187.563 275.041 184.647 274.744C179.595 274.234 181.053 270.541 178.845 266.919C177.869 265.32 174.614 261.273 172.916 263.537C169.52 268.065 171.699 279.498 162.048 274.8C158.835 273.23 159.826 264.4 158.425 264.287C155 265.745 151.972 267.782 148.052 266.763C147.571 266.636 143.071 263.707 142.646 263.24C139.773 260.042 141.259 252.515 143.679 249.246C145.774 246.416 150.132 244.421 153.429 246.43C153.882 245.992 150.104 239.483 150.005 238.323C149.651 234.177 153.896 230.399 157.831 232.847C159.543 233.908 163.618 243.742 164.468 246.147C164.963 247.562 166.788 255.755 167.34 255.868C173.298 250.972 178.902 253.279 184.166 257.679H184.138ZM157.052 258.472L153.415 247.477C152.382 251.284 149.679 253.618 150.854 258.16L151.264 258.783L157.052 258.472Z" fill="#484645"/>
<path d="M122.282 248.737C122.537 248.822 122.268 249.713 123.131 249.529C125.693 248.992 127.745 245.836 131.608 245.893C132.443 245.893 136.391 246.515 137.028 246.813C137.226 246.912 140.212 249.529 140.339 249.784C140.58 250.265 140.99 251.708 140.736 252.119C138.655 252.487 137.849 254.991 135.783 255.317C134.566 255.515 130.575 254.835 130.306 256.151C129.995 257.694 136.802 264.938 137.155 267.655C137.736 272.197 135.769 272.551 132.287 273.329C131.806 273.442 131.367 274.065 130.985 274.136C128.594 274.546 125.565 266.82 123.74 265.32L124.065 271.376L116.678 273.994L107.409 257.934C106.249 257.694 102.994 259.151 102.216 260.057C101.296 261.104 101.706 262.108 101.112 262.745C100.291 263.622 95.6776 264.967 94.871 263.778L94.6446 260.071C90.8661 259.873 82.1347 263.255 79.2903 260.623C77.2808 258.755 79.446 256.321 78.3846 254.312C80.5498 255.175 80.8894 252.656 81.9649 252.26C85.9556 250.775 91.4322 251.539 95.621 250.562C96.6258 245.61 96.4701 231.418 102.923 230.272C107.621 229.437 112.758 244.379 114.556 247.775C117.23 248.228 119.608 247.789 122.282 248.737ZM119.82 255.345L118.263 256.123L119.31 258.486H120.358L119.834 255.345H119.82Z" fill="#484645"/>
<path d="M333.478 227.399C334.086 227.795 334.949 227.399 335.983 228.305C345.322 236.497 346.483 269.395 334.865 276.032C330.039 278.791 318.789 276.173 315.987 271.376C313.991 267.966 318.605 264.768 321.775 265.844C320.699 261.613 319.1 256.915 319.142 252.501C319.185 246.982 323.812 230.215 328.638 227.328C329.147 227.031 332.176 225.942 332.501 226.027C333.053 226.168 333.11 227.173 333.464 227.413L333.478 227.399ZM331.765 263.212C333.916 256.236 333.817 248.779 332.289 241.704C331.412 241.846 331.341 242.723 331.1 243.388C329.303 248.199 328.511 252.996 329.176 258.203C329.261 258.868 330.69 264.245 331.765 263.212Z" fill="#484645"/>
<path d="M244.013 263.58C242.597 264.627 239.031 264.57 237.319 265.051C236.654 265.235 236.06 265.165 236.3 266.07C237.531 272.367 242.682 267.811 246.8 268.73C247.706 269.381 246.418 272.933 245.98 273.683C244.494 276.3 235.38 277.277 232.635 276.046C229.649 274.716 224.908 266.664 224.894 263.368C224.894 261.953 227.753 253.802 228.644 252.402C230.357 249.756 239.258 244.138 242.329 244.365C243.008 244.407 243.461 245.1 244.041 245.242C244.692 245.397 245.428 244.761 245.98 245.341C248.102 247.548 248.173 254.085 247.593 256.944C247.366 258.061 244.734 263.028 243.998 263.58H244.013ZM237.857 254.821C236.442 254.397 234.701 257.807 235.239 258.486C236.909 258.118 237.616 256.406 237.857 254.821Z" fill="#484645"/>
<path d="M229.323 243.431C230.555 244.761 230.724 246.869 229.479 248.27C223.918 254.524 223.875 265.929 219.715 273.64C216.46 279.682 208.945 274.716 205.875 270.81C203.851 268.235 199.846 259.76 201.643 256.746C202.648 255.076 207.219 253.902 209.158 254.312C209.313 254.34 211.422 256.378 211.479 256.519C211.606 256.873 211.846 262.519 213.205 261.104C214.762 253.336 217.21 241.365 227.611 242.794C228.177 242.879 228.927 242.978 229.338 243.417L229.323 243.431Z" fill="#484645"/>
<path d="M351.337 272.494C350.827 272.041 349.384 269.339 349.2 268.603C347.643 262.179 346.285 248.808 345.917 241.988C345.747 238.889 346.087 235.733 345.917 232.635C348.945 229.904 353.092 230.017 355.257 233.682C355.695 245.681 357.082 257.524 359.601 269.24C359.601 274.051 354.818 275.664 351.323 272.494H351.337Z" fill="#484645"/>
<path d="M304.949 283.602C304.015 283.786 303.081 284.111 302.118 284.182C293.16 284.96 283.353 284.267 274.325 284.719C269.924 284.946 264.263 286.318 260.159 286.332C254.145 286.332 254.216 281.507 258.192 278.451C272.386 276.583 286.792 277.149 301.099 276.286C302.019 276.258 302.84 276.428 303.647 276.895C306.916 278.777 305.316 280.8 304.949 283.587V283.602Z" fill="#484645"/>
<path d="M195.813 234.46L196.917 237.714C195.983 238.153 194.822 240.063 194.2 240.318C192.445 241.054 187.633 240.997 186.798 238.96C184.803 234.12 192.473 233.257 195.813 234.46Z" fill="#484645"/>
<path d="M168.317 647.248C166.123 648.082 162.727 649.03 160.463 648.026C158.51 647.163 158.581 643.3 157.321 641.743L167.524 635.178L169.732 622.033C176.171 617.18 183.232 615.637 190.987 618.029C201.629 621.297 200.455 627.565 192.402 633.31C188.086 636.381 182.794 637.81 178.52 640.965C178.506 645.649 179.454 651.931 178.845 656.473C178.732 657.365 178.081 657.067 177.784 657.648C177.614 657.987 177.897 658.794 177.657 659.218C176.595 660.987 171.388 660.577 169.873 658.553C169.661 658.256 168.317 655.568 168.317 655.384V647.248ZM181.435 627.848C180.19 627.82 178.803 628.853 178.293 629.943C179.539 629.971 180.926 628.938 181.435 627.848Z" fill="#484645"/>
<path d="M230.682 628.429L231.588 630.438C234.602 629.716 237.291 629.122 240.446 629.433C243.093 629.688 245.47 631.287 247.862 631.485C249.418 631.612 250.862 630.947 251.881 631.103C257.018 631.853 255.744 643.824 255.9 647.559C255.971 649.37 257.188 653.969 256.466 655.285C256.14 655.879 254.782 655.893 255.334 658.214C247.352 660.732 246.701 652.087 246.022 646.413C245.81 644.588 246.376 641.277 245.697 639.918C244.706 637.923 237.63 637.739 236.696 639.621C236.343 640.329 235.932 644.913 235.946 645.974C235.975 647.913 237.291 655.37 236.979 656.36C236.866 656.714 233.342 659.459 233.045 660.874C229.946 659.954 228.319 659.6 227.3 656.219C225.814 651.295 223.847 642.55 222.998 637.442C221.738 629.971 222.8 628.613 230.682 628.443V628.429Z" fill="#484645"/>
<path d="M216.969 654.973C215.314 656.615 210.205 654.308 208.436 653.162C204.587 658.214 195.997 664.821 189.869 659.515C181.364 652.143 184.619 642.168 193.803 637.329C198.077 635.079 210.021 632.376 213.12 636.777C214.564 638.829 214.238 641.885 215.243 644.092C215.865 645.451 216.983 645.988 217.479 647.106C217.62 647.446 218.696 651.422 218.667 651.662C218.639 651.903 217.125 654.789 216.955 654.959L216.969 654.973ZM201.884 644.106C199.676 643.328 195.162 649.328 196.124 650.389C197.921 650.615 202.903 645.111 201.884 644.106Z" fill="#484645"/>
<path d="M277.396 627.891C277.212 630.707 277.948 635.291 274.028 635.249C271.325 635.22 269.216 633.805 267.504 637.484C272.952 644.121 286.396 646.13 277.976 656.912C273.83 657.634 270.122 659.827 265.707 658.751C265.084 658.596 260.938 656.784 260.768 656.572C260.499 656.247 260.301 653.955 259.593 653.275C260.824 649.964 263.612 650.233 266.683 650.403L266.938 649.356C265.112 648.436 262.608 646.809 261.164 645.422C249.758 634.471 266.556 623.137 277.41 627.877L277.396 627.891Z" fill="#484645"/>
<path d="M248.159 618.51C250.211 616.628 253.126 615.425 255.971 616.019C258.801 625.202 250.084 627.622 248.159 618.51Z" fill="#484645"/>
<path d="M77.6204 328.88C77.8044 329.191 79.545 329.786 79.8563 330.564C80.9035 328.442 84.6395 327.31 86.8188 328.342C88.8425 329.291 90.8803 335.106 92.1398 337.172C92.4228 337.639 91.8709 338.219 93.2294 337.922C94.5313 333.111 95.4795 327.819 98.607 323.885L102.966 322.711C108.966 325.244 106.404 328.923 105.315 333.719C109.631 329.531 113.438 324.777 119.862 323.885C126.896 322.895 126.018 327.833 128.282 332.531C128.65 333.309 129.443 333.833 129.839 334.653C131.268 337.554 131.962 341.077 134.693 343.171C134.325 340.143 130.533 331.837 132.047 329.39C132.301 328.965 135.556 327.225 136.009 327.168C137.028 327.069 138.599 327.989 139.448 327.677C140.608 327.253 141.712 324.437 142.561 324.027C142.788 323.914 147.16 322.782 147.415 322.796C149.977 323.022 154.788 327.324 156.203 329.404C158.029 332.078 162.741 342.096 163.024 345.067C163.208 346.963 162.161 347.982 163.562 349.977C162.458 351.477 155.991 350.076 154.901 348.93C154.194 348.18 152.637 342.195 151.845 340.44C151.42 339.521 147.967 333.196 147.542 333.182C146.142 333.168 144.797 338.516 144.656 339.733C144.217 343.822 146.481 346.921 146.142 349.567C146.014 350.529 143.439 353.897 142.745 354.109C142.108 354.307 139.773 353.557 139.137 353.133C137.594 352.114 137.523 349.581 135.599 348.775C133.915 348.067 131.58 349.411 129.315 348.789C127.872 348.393 124.66 345.789 123.315 344.77C115.858 348.081 104.678 352.652 103.744 340.525C101.494 342.662 101.366 347.19 100.206 349.836C100.093 350.076 98.14 353.246 98.0126 353.416C96.6824 354.958 92.1256 354.265 90.6256 352.878C90.2293 352.51 85.2197 342.818 84.8659 346.114L84.5263 347.911C83.9036 348.279 79.2337 347.94 78.5686 347.628C76.8704 346.822 73.7288 340.2 72.4693 338.403C71.4646 338.191 61.8699 341.289 60.9642 342.082C59.9453 342.973 59.8746 346.185 58.5585 348.067C57.3556 349.793 55.4593 351.293 53.2659 350.925C46.0911 349.708 52.4026 343.851 51.2422 342.153C46.5722 342.11 43.9684 337.794 48.1572 334.526C49.8412 333.21 52.0347 333.436 53.648 332.149C55.332 325.965 55.5301 317.433 57.7236 311.575C58.6434 309.113 61.3746 305.944 64.2474 307.33C64.6294 307.514 68.0541 311.292 68.5777 311.957C71.2523 315.353 75.2147 322.06 77.111 325.994C77.6063 327.012 77.2949 328.286 77.6346 328.88H77.6204ZM68.0541 331.102C68.5494 330.691 65.3512 325.781 64.8276 325.159C64.3606 324.621 64.3181 324.055 63.3417 324.282C64.12 326.8 63.0728 329.036 63.3417 331.625L68.0541 331.102ZM117.895 336.351C115.801 336.21 113.678 336.436 113.706 338.969C115.15 338.318 117.06 337.823 117.895 336.351ZM136.25 347.883L135.726 345.789H135.217C134.721 347.147 134.566 347.883 136.264 347.883H136.25Z" fill="#484645"/>
<path d="M294.151 335.304C293.316 331.512 296.429 330.281 296.826 326.97C301.566 326.885 305.515 325.145 310.1 327.38C311.048 327.154 311.161 324.833 312.633 324.154C314.656 323.206 317.529 323.8 318.803 325.612C320.614 328.215 319.001 334.441 319.34 338.191C319.397 338.785 320.006 343.143 320.897 342.648C323.076 339.535 325.312 335.148 329.218 334.186C329.827 330.097 326.996 325.753 332.841 324.932C340.101 323.914 338.134 330.578 338.799 334.993C339.563 340.087 341.601 345.025 342.209 350.006C340.256 353.826 336.803 354.562 333.534 351.788C331.864 350.359 331.85 345.166 330.619 343.171C329.459 344.813 328.468 346.567 327.195 348.138C326.671 348.789 323.303 352.736 323.02 352.878C321.024 353.854 317.218 353.232 315.279 352.255C311.925 350.572 310.397 339.818 310.185 336.337L304.128 334.795C303.93 337.78 304.581 341.247 305.599 344.077C305.967 345.096 308.317 350.09 308.812 350.699C309.42 351.421 310.92 351.024 311.373 352.468C312.562 356.274 309.986 360.59 305.713 358.651C304.213 357.972 303.873 355.156 302.798 354.18C302.175 353.614 300.293 354.081 299.415 352.623C298.425 359.344 284.599 365.698 278.924 363.929C276.617 363.207 277.056 360.759 275.018 359.995L275.528 356.274C277.65 354.633 280.396 355.623 282.745 355.099C283.509 354.93 289.014 351.647 289.58 351.067C292.849 347.742 287.967 339.167 282.986 340.639C279.929 342.096 281.726 345.775 280.764 347.897C280.665 348.11 277.905 350.939 277.65 351.081C276.292 351.873 273.66 351.265 272.613 350.147C270.292 347.671 269.329 337.54 268.311 333.606C266.584 326.984 261.659 314.985 261.603 308.774C261.574 305.307 266.924 302.222 269.004 304.585L277.891 332.969C281.061 331.073 284.924 331.441 288.377 332.418C290.585 333.04 292.156 334.441 294.151 335.304Z" fill="#484645"/>
<path d="M215.993 349.723C215.922 350.204 213.983 354.406 213.771 354.576C212.568 355.595 208.11 354.449 207.035 353.43C203.285 349.836 207.035 332.474 207.587 327.168C208.167 321.622 208.238 315.962 208.648 310.401C210.375 306.156 217.238 305.859 218.045 310.939C219.163 318.028 217.068 328.201 215.979 335.29C216.191 335.46 220.748 334.385 221.356 334.116C223.649 333.097 224.498 330.536 227.654 329.857C228.389 329.701 232.196 329.559 232.791 329.729C233.739 329.998 236.909 334.158 237.376 335.149C240.121 340.95 232.706 343.624 228.05 343.695C229.323 348.223 235.847 349.949 240.149 349.227C240.744 349.128 249.036 346.1 249.036 347.105C247.282 350.558 247.89 352.822 244.253 354.902C242.739 355.765 239.965 355.765 241.069 357.519L240.333 358.354C237.857 357.675 235.748 358.58 233.088 358.312C224.229 357.434 219.63 352.411 217.153 344.346C216.785 343.129 217.748 341.176 215.979 341.587C215.71 344.119 216.347 347.275 215.979 349.723H215.993Z" fill="#484645"/>
<path d="M364.851 301.854C366.55 303.085 370.158 316.74 370.215 319.57L387.281 315.438C393.395 316.669 393.296 321.933 388.187 324.692L372.337 329.036C372.691 334.399 373.894 339.563 373.356 344.997L368.927 349.482C366.988 348.619 365.304 348.152 363.932 346.468C363.733 341.36 364.427 335.262 362.828 330.352C361.766 327.112 357.153 328.427 358.78 323.079C359.063 322.173 360.196 321.791 360.507 321.126C361.979 318.013 356.53 308.576 356.629 305.109C356.743 301.586 362.474 300.142 364.837 301.84L364.851 301.854Z" fill="#484645"/>
<path d="M169.831 329.008L186.275 326.347C188.865 328.64 187.053 333.069 184.492 334.483C182.624 335.516 172.69 337.144 172.166 337.894C171.147 339.351 174.473 349.199 172.449 352.086L171.416 351.039V353.133C168.699 353.826 169.095 351.392 166.746 352.581C163.265 348.548 164.085 342.634 162.359 338.318C161.906 337.2 159.203 334.483 158.892 333.352C158.439 331.696 160.562 330.663 160.703 329.814C161.241 326.234 157.746 317.518 157.293 313.5C165.133 307.189 166.137 311.872 168.02 319.018C168.826 322.088 169.548 325.895 169.845 329.008H169.831Z" fill="#484645"/>
<path d="M356.431 350.883C356.332 351.01 354.096 352.793 353.955 352.864C352.115 353.741 349.016 352.072 347.785 350.657C347.049 346.03 345.719 341.162 345.096 336.549C344.756 334.073 343.964 328.824 343.992 326.631C344.035 322.725 347.36 321.339 350.842 322.414C354.45 323.532 353.997 331.158 354.549 334.441C355.228 338.431 356.997 344.502 357.125 348.18C357.153 349.128 357.04 350.133 356.431 350.883Z" fill="#484645"/>
<path d="M348.393 311.901C346.907 313.259 347.063 314.108 344.544 312.453C339.789 309.368 343.412 303.779 348.478 304.571C350.176 304.84 350.459 308.406 350.205 309.736C349.95 311.066 349.172 311.193 348.393 311.901Z" fill="#484645"/>
<path d="M93.2153 11.7443C93.0596 11.6594 92.7624 9.77747 91.2624 11.4047L85.2197 31.8509C85.6726 32.2471 92.4228 30.4643 92.8615 29.7709C93.6823 28.4692 91.9275 27.4928 91.6303 26.2335C90.385 21.0123 96.8522 22.6961 100.178 22.399C103.05 22.1443 106.419 19.9228 108.343 23.163C108.867 24.0545 108.541 25.993 109.617 25.5543C112.56 21.7764 120.924 19.1162 125.254 20.9557C126.33 21.4085 126.386 22.8234 127.193 23.2055C128.113 23.6441 129.301 23.2904 130.334 23.729C132.202 24.5214 132.358 29.0634 132.995 31.0302C134.353 35.1761 136.971 39.5766 136.108 43.9206L134.014 43.397V47.0618C133.504 47.6278 129.018 43.5385 128.495 42.8735C127.306 41.3878 125.891 37.0297 124.631 36.8175C122.962 36.492 122.891 38.1758 121.971 38.9399C118.815 41.5717 111.386 48.1938 107.253 46.2553C107.027 46.1562 103.433 43.6093 103.277 43.4253C102.145 42.2085 101.65 40.1568 102.527 38.6711C96.9795 39.3219 92.9039 42.5764 87.0736 42.8877C82.2338 43.1423 80.4932 41.8406 76.3043 39.987L75.2571 36.8458C75.0307 25.144 80.8894 13.7252 83.9603 2.53284C87.5689 -2.99967 99.541 1.52822 100.348 7.07488C100.815 10.3435 96.1305 13.3998 93.2153 11.7584V11.7443ZM115.645 33.9451C116.268 33.6479 119.537 31.5962 118.787 30.8039C118.023 30.9029 114.938 33.1668 115.645 33.9451Z" fill="#484645"/>
<path d="M208.875 8.92843C209.894 9.66421 213.941 22.5828 214.648 24.9317C215.795 28.7662 216.7 32.6574 217.436 36.5768C218.314 36.7183 217.974 35.3317 217.974 34.7374C217.946 32.5866 217.04 27.1249 220.012 26.3042C227.399 24.2808 225.984 33.4639 227.399 37.6239C231.036 33.096 230.272 23.828 238.706 29.969C239.626 33.6054 245.555 41.6707 243.928 44.9817L240.036 46.5948L239.979 48.6465L233.951 42.8876C232.309 46.4816 229.691 47.6136 225.814 47.5994L225.559 49.6936C221.951 45.9015 218.625 42.9017 218.469 37.1145C217.564 36.973 217.917 38.3456 218.002 38.8832C218.441 41.8547 221.342 51.9434 215.851 50.2171V53.3583C214.733 53.2027 215.087 51.9292 214.663 51.4057C214.238 50.8822 212.823 50.8539 211.931 49.6794C211.125 48.6324 210.729 46.8212 210.601 45.4911C193.535 51.3349 194.568 31.8509 204.771 24.6911C204.403 19.2577 199.195 11.9706 204.672 7.79645C205.153 7.66911 208.464 8.63128 208.875 8.92843ZM209.016 39.1945C209.101 38.3456 208.422 32.813 206.922 33.9592C206.483 35.9967 204.884 37.4541 205.337 39.7322L209.002 39.2087L209.016 39.1945Z" fill="#484645"/>
<path d="M272.372 26.2053C272.825 26.6581 272.811 27.7759 273.561 28.4268C274.353 29.1202 276.773 29.7427 278.146 30.6342C279.518 31.5256 281.33 33.8461 282.745 34.9923C285.052 31.2284 286.24 28.5542 291.024 30.804C292.226 31.3699 294.08 35.1904 295.849 35.0489C296.783 34.9781 301.51 28.8938 303.604 28.0448C305.967 27.0967 308.798 28.2146 310.255 30.1531C312.095 32.5868 317.586 42.7463 315.972 45.3923L312.364 46.7931L312.392 48.3495L311.345 48.6184C311.557 46.2412 308.982 46.1988 307.736 44.614C305.302 41.5011 304.722 33.2943 300.731 41.9539C300.038 43.4396 300.576 45.4488 298.962 46.4676C295.014 48.9721 292.255 46.2412 289.835 43.3688C290.217 47.6137 289.099 50.4012 284.358 49.6371C280.311 48.9721 278.754 40.9493 274.622 40.2276L273.858 47.5996L269.896 51.7596C269.499 48.2646 267.009 51.0946 265.834 46.6374C264.9 43.0859 264.617 31.5822 265.197 27.9316C265.777 24.281 270.532 24.3517 272.386 26.1912L272.372 26.2053Z" fill="#484645"/>
<path d="M346.469 49.156C346.653 46.3402 345.379 46.9062 344.233 46.0431C343.695 45.6469 343.638 44.7272 343.002 44.5149C341.601 44.0621 338.756 44.6281 337.03 43.9065L336.506 45.4771C336.704 42.3642 333.633 42.633 333.336 38.9258C333.152 36.6619 335.416 30.436 337.27 29.205C338.332 28.4975 341.162 28.257 341.657 26.7854C343.271 22.0453 336.959 10.8529 344.091 7.73999C350.544 9.18325 348.563 12.1122 349.101 16.909C349.879 23.913 351.436 32.0632 351.719 38.9541C351.931 44.2744 351.931 46.9628 346.483 49.1702L346.469 49.156Z" fill="#484645"/>
<path d="M173.878 35.0063L174.133 36.0533L179.411 37.0721C179.822 37.5956 178.605 40.8218 178.308 41.2746C177.713 42.1518 171.416 44.3875 170.001 43.9913L169.675 45.4911C168.458 46.2269 164.185 42.7178 163.137 41.8122C161.906 40.7369 160.505 38.5437 159.67 37.9352C157.831 36.5769 154.774 36.3788 154.958 32.6716C156.288 31.9924 158.906 31.2424 159.982 30.3086C160.916 29.502 161.383 27.7899 162.741 26.658C165.869 24.0544 171.048 21.748 175.152 22.4555C179.256 23.163 178.845 25.8373 180.062 28.8936C179.072 31.7518 176.595 33.8601 173.864 35.0204L173.878 35.0063Z" fill="#484645"/>
<path d="M140.184 20.4321C140.325 20.5028 140.354 21.2103 140.665 21.3518C141.585 21.8046 143.807 22.1725 144.245 22.9224C144.868 23.9978 143.962 25.7665 145.278 26.6013C146.892 25.0307 148.321 23.1771 150.571 22.4696C152.51 21.847 159.387 21.0829 160.137 23.2903C161 25.8514 159.246 26.3608 159.203 28.4691C150.444 28.2427 149.92 34.9213 151.236 41.9961L147.259 44.8968C146.637 45.1515 146.127 44.9817 145.547 44.7129C142.123 43.1281 137.368 29.0775 137.113 25.2854C136.986 23.2054 138.542 22.3564 136.094 20.333C137.311 21.0546 139.321 20.0359 140.184 20.4462V20.4321Z" fill="#484645"/>
<path d="M359.375 28.9219C359.545 29.021 360.521 30.0115 360.578 30.1671L362.757 46.7929L360.62 50.5002L357.479 49.6653L357.224 51.2359C353.53 47.4721 352.568 40.3832 352.243 35.2327C351.903 29.9124 353.247 25.1157 359.375 28.9078V28.9219Z" fill="#484645"/>
<path d="M323.784 27.7759C325.001 28.6249 327.378 43.7226 327.081 46.2412L323.388 47.5855L323.911 49.6796H322.864C323.02 47.26 320.628 47.3874 319.694 46.1563C317.954 43.8641 315.491 30.5917 317.048 28.4127C317.26 28.1155 319.213 26.7855 319.581 26.7006C320.119 26.5732 323.473 27.5778 323.77 27.7901L323.784 27.7759Z" fill="#484645"/>
<path d="M319.708 21.3518C316.666 22.0876 312.336 23.9837 310.666 20.1632C308.727 15.692 316.737 13.8242 318.76 17.8427C319.001 18.3379 319.807 21.2103 319.708 21.3518Z" fill="#484645"/>
<path d="M360.507 11.5179C361.314 12.4518 361.342 15.6638 360.111 16.4137C359.884 16.5552 355.186 16.1448 354.705 16.0175C351.889 15.2251 353.827 11.2208 355.398 10.0605C356.106 9.59356 360.238 11.2066 360.521 11.5321L360.507 11.5179Z" fill="#484645"/>
<path d="M151.448 1102.16C150.316 1103.93 147.245 1105.09 145.278 1104.31C140.495 1102.46 141.825 1096.17 140.453 1092.35C138.811 1087.77 132.457 1080.34 131.353 1089.57C130.801 1094.25 131.834 1099.48 132.514 1103.87C133.462 1110.05 125.905 1112.6 123.16 1108.74C120.91 1105.58 119.169 1100.32 118.688 1092C118.603 1090.54 118.518 1089.08 118.518 1087.53C118.546 1084.2 118.9 1081.4 119.254 1079.34C118.872 1079.41 118.49 1079.49 118.108 1079.56C116.183 1086.82 114.74 1088.5 113.735 1088.53C113.395 1088.53 112.122 1088.59 110.692 1089.2C110.537 1089.27 110.381 1089.37 110.225 1089.51C106.22 1093.26 113.537 1106.46 110.735 1109.5C110.098 1110.2 109.065 1109.93 108.23 1110.31C108.032 1110.39 108.018 1111.19 107.621 1111.29C102.131 1112.52 100.857 1104 97.2909 1101.73C98.1966 1105.48 91.3897 1109.87 88.4745 1111.14C83.1536 1113.46 76.8987 1111.77 72.5118 1108.3C69.6532 1106.04 67.5729 1102.8 64.9691 1100.35C63.653 1099.12 61.0916 1099.16 61.4454 1095.78L56.2094 1098.3C54.7376 1103.29 54.497 1108.53 47.5346 1106.4C45.0298 1105.64 43.6146 1102.43 43.091 1100.09C40.6145 1089.25 40.4305 1076.97 40.2183 1065.87C51.2988 1051.4 69.823 1068.21 72.257 1081.37C77.677 1080.79 84.0027 1076.28 89.7057 1077.96C90.0312 1078.06 94.9276 1081.85 95.0691 1082.15C96.272 1084.61 94.9417 1087.27 94.9134 1089.78C99.5551 1090.66 99.5268 1085.97 101.522 1083.09C103.815 1079.76 111.456 1076.82 115.405 1077.82C116.056 1077.99 115.999 1079.32 116.792 1079.58C117.315 1079.75 117.952 1079.63 119.268 1079.32C120.018 1079.15 121.164 1078.81 122.127 1078.97C122.452 1079.02 122.594 1079.1 122.678 1079.17C123.188 1079.56 122.947 1080.4 123.867 1080.26C125.282 1080.04 126.259 1078.13 127.561 1077.34C137.481 1071.31 143.722 1077.54 148.377 1086.18C150.387 1089.92 153.868 1098.34 151.434 1102.13L151.448 1102.16ZM96.6965 1099.97L93.4134 1093.4C88.984 1096.5 83.7055 1099.41 78.1865 1099.37C82.1489 1104.52 85.0924 1103.94 90.4416 1101.76C92.5643 1100.9 94.3049 1098.54 96.6965 1099.97ZM78.6676 1087.87C78.1723 1088.55 73.5731 1088.58 73.9977 1090.7C74.2948 1092.18 78.9365 1090.97 79.9554 1090.7C82.4602 1090.05 86.833 1088.8 85.8848 1085.39C85.1914 1082.93 81.5262 1086.51 81.2149 1086.58C80.38 1086.75 78.8799 1086.1 78.7808 1086.23C78.6676 1086.35 78.979 1087.44 78.6676 1087.87ZM53.6904 1088.62C57.9641 1084.73 63.936 1084.25 59.3085 1077.92C58.4594 1076.75 52.7281 1070.46 51.2988 1071.89L53.6904 1088.62Z" fill="#484645"/>
<path d="M296.231 1101.17L291.491 1101.79C289.835 1103.49 294.109 1113.97 293.84 1116.37C293.712 1117.51 292.028 1119.61 292.396 1121.5C291.462 1122.92 286.58 1121.84 285.49 1120.43C283.976 1113.45 278.033 1097.04 286.269 1092.68C290.061 1090.68 299.047 1091.12 298.043 1096.98C302.217 1096.6 304.482 1092.85 308.67 1091.18C315.237 1088.56 319.553 1089.85 320.699 1097.32C326.048 1097.56 330.067 1096.95 330.308 1103.55C334.652 1100.63 343.44 1091.56 349.03 1092.37C350.516 1092.58 354.082 1096.68 354.521 1098.14C356.502 1104.79 357.96 1122.39 357.125 1129.45C356.035 1138.72 345.138 1138.52 337.836 1137.52C333.152 1136.87 326.161 1135.71 326.416 1129.79C330.265 1125.93 334.893 1129.2 338.968 1129.27C341.417 1129.31 344.459 1128.32 347.063 1128.36C348.025 1127.7 348.011 1119.17 346.738 1119.08C343.44 1120.71 339.464 1121.29 336.11 1119.52C335.247 1119.07 331.581 1115.37 330.902 1116.08C330.591 1117.17 331.751 1117.51 331.992 1118.3C332.445 1119.83 329.218 1123.16 328.355 1123.14C324.477 1123.04 322.765 1120.13 321.322 1117C320.925 1116.14 320.43 1111.26 318.973 1112.5C315.18 1118.86 305.939 1125.22 299.458 1118.26C298.779 1117.54 296.26 1112.88 296.26 1112.19V1101.14L296.231 1101.17ZM339.379 1111.77C342.337 1114.85 346.016 1105.27 345.195 1102.97C344.204 1101.92 335.6 1107.83 339.379 1111.77ZM309.151 1111.1C311.501 1109.08 314.77 1103.83 314.133 1100.56C313.807 1100.19 306.024 1105.36 305.783 1105.8C305.175 1106.91 304.793 1110.89 305.458 1111.92C306.491 1113.22 308.189 1111.92 309.151 1111.1ZM298.609 1099.37V1097.59H297.42V1099.37H298.609Z" fill="#484645"/>
<path d="M273.971 1126.69C271.098 1128.32 267.476 1126.54 266.301 1123.61C264.829 1120.67 264.645 1099.94 263.372 1099.03C258.603 1099.47 253.82 1099.33 249.277 1101.13C248.753 1101.88 247.89 1113.73 247.805 1115.77C247.72 1117.81 248.513 1121.02 248.315 1122.25C248.088 1123.68 245.951 1125.08 246.022 1126.85C243.942 1124.54 243.475 1126.82 242.13 1126.86C241.706 1126.86 238.31 1124.23 237.998 1123.82C235.748 1120.72 238.154 1108.74 238.295 1104.47C238.465 1099.07 235.126 1102.4 230.923 1101.62C228.432 1101.17 224.512 1098.78 225.984 1095.79C227.257 1093.19 236.031 1092.88 238.791 1092.74L241.38 1068.74C242.88 1062.36 252.164 1061.52 253.183 1068.04C253.452 1069.78 251.102 1078.18 250.805 1081.15C250.664 1082.59 250.027 1090.8 250.763 1091.35C251.117 1091.6 258.39 1091.09 259.452 1091C262.82 1090.68 266.372 1088.92 269.669 1090.36C270.179 1090.58 274.254 1093.68 274.41 1093.98C275.301 1095.81 274.509 1102.92 274.707 1105.63C274.891 1108.1 275.768 1110.88 275.924 1113.38C276.094 1116.29 276.589 1125.21 273.957 1126.69H273.971Z" fill="#484645"/>
<path d="M175.548 1093.4C174.473 1099.4 177.501 1102.73 183.162 1104.01C184.492 1104.31 187.69 1103.69 188.1 1105.07L185.935 1110.15C179.355 1111.14 174.26 1111.34 169.633 1106.06C164.269 1099.94 166.576 1097.94 165.373 1091.35C165.062 1089.64 161.892 1086.89 163.265 1085.01C163.93 1084.09 167.623 1084.15 168.954 1083.52C170.68 1082.7 173.256 1079.31 175.208 1078.43C181.322 1075.71 185.61 1080.44 189.6 1084.44C193.577 1079.25 199.478 1077.6 205.832 1077.51C211.507 1077.43 215.144 1079.49 220.337 1081.19L221.314 1082.63C220.719 1084.08 220.252 1084.64 220.974 1086.24C218.766 1085.43 216.969 1087.42 215.328 1087.47C213.502 1087.53 210.205 1086.4 208.125 1086.26C205.719 1086.1 200.157 1085.32 201.87 1088.63H200.072C201.247 1092.92 206.101 1107.89 203.469 1111.16C202.804 1111.99 200.865 1112.6 199.761 1112.6C191.964 1112.6 192.176 1096.77 190.789 1091.6C189.728 1090.17 185.298 1093.41 184.831 1093.41H175.576L175.548 1093.4Z" fill="#484645"/>
<path d="M395.263 1121.94C394.711 1122.27 386.913 1122.18 385.498 1122.1C375.465 1121.47 361.837 1118.86 360.181 1106.79C358.766 1096.43 364.526 1092.68 374.135 1092.78C377.786 1092.82 385.541 1095.35 388.244 1097.83C392.687 1101.9 385.102 1107.06 381.451 1108.43C378.762 1109.43 376.187 1108.74 373.88 1110.41C381.366 1114.27 390.126 1113.21 397.768 1116.1L395.249 1121.93L395.263 1121.94Z" fill="#484645"/>
<path d="M165.26 1107.61C165.161 1107.78 164.34 1107.82 164.17 1108.16C163.831 1108.91 164.255 1110.1 163.647 1110.42C163.321 1110.59 161.128 1110.32 160.307 1111.31C157.845 1111.4 155.496 1104.58 154.802 1102.48C152.382 1095.16 150.217 1086.16 150.486 1078.47C154.689 1077.61 158.057 1075.67 160.76 1080.4C160.831 1084.32 166.307 1105.64 165.246 1107.59L165.26 1107.61Z" fill="#484645"/>
<path d="M272.315 1079.04C270.886 1078.87 268.905 1080.79 267.943 1080.74C267.73 1080.74 264.292 1079.08 264.122 1078.91C262.692 1077.44 263.768 1074.82 263.966 1073.08L269.924 1073.35L272.301 1079.05L272.315 1079.04Z" fill="#484645"/>
<path d="M155.114 1059.17C156.826 1064.96 150.995 1066.8 148.42 1062.29C145.038 1056.36 154.279 1056.34 155.114 1059.17Z" fill="#484645"/>
<path d="M172.081 478.683C172.619 478.966 176.694 473.872 178.322 473.405C181.124 472.613 183.742 474.792 184.789 477.183C185.412 478.598 185.879 480.381 186.487 481.824C188.383 486.366 190.082 489.918 193.195 493.681C193.733 494.332 196.62 497.021 196.719 497.247C196.86 497.587 196.719 498.025 196.832 498.379C197.355 499.837 197.851 500.402 197.171 502.143C196.563 503.699 195.643 501.803 194.723 502.468C193.903 503.048 195.629 504.237 194.794 504.308C194.016 504.379 193.563 503.247 193.011 503.232C192.049 503.232 192.233 504.647 190.464 503.657C189.6 503.176 187.549 500.813 186.841 499.95C185.284 498.054 183.246 495.238 181.973 493.144C180.657 490.965 179.581 488.63 178.676 486.253C177.784 486.366 177.529 487.229 176.963 487.781C173.312 491.318 169.831 494.884 165.897 498.139C163.59 500.049 161.227 501.733 158.821 503.402C158.368 503.713 158.298 504.534 157.717 504.562C156.331 503.544 154.816 503.048 153.316 502.313C152.708 502.016 152.028 501.053 151.293 501.393C150.981 501.534 150.84 502.044 150.585 502.086C150.161 502.157 149.481 501.167 149.028 500.94C148.392 500.629 147.118 500.657 146.467 500.346C146.297 500.261 143.891 498.323 143.552 498.04C142.108 496.78 140.212 492.974 139.207 491.248C138.556 490.144 137.82 489.083 137.269 487.922C136.787 488.106 136.136 488.163 135.712 488.404C135.57 488.489 135.655 488.786 135.514 488.913C132.783 491.205 131.028 493.795 129.811 497.191C129.032 499.384 129.132 503.445 125.679 502.681C125.396 502.61 125.268 502.313 125.24 502.313C125.127 502.313 124.759 502.709 124.377 502.78C122.495 503.119 122.155 502.058 121.037 501.251C120.23 500.671 119.862 500.884 118.943 499.766C117.329 497.827 116.013 495.365 114.372 493.427C114.117 494.29 113.678 495.125 113.466 496.002C112.645 499.483 112.815 503.261 112.32 506.699C112.263 507.109 111.768 509.147 111.598 509.373C110.735 510.534 109.305 509.529 108.555 509.642C108.131 509.713 107.735 510.152 107.169 510.265C105.669 510.562 104.89 508.991 103.56 508.567L102.966 506.996C103.319 501.577 103.97 495.804 103.121 490.399C102.4 485.828 99.7815 478.867 97.0928 475.032C96.8946 474.749 96.7673 474.424 96.3993 474.311C95.7342 474.523 94.2059 481.951 93.9936 483.097C93.0313 488.375 92.3379 494.035 92.1681 499.37C92.0973 501.45 92.6634 505.779 91.7294 507.576C91.2907 508.411 90.201 509.189 89.6916 510.095L84.6537 509.076L83.0546 505.921C82.4178 492.578 85.0358 479.673 88.4179 466.91C88.9416 464.929 89.1114 463.005 90.1869 461.194C90.4133 460.812 91.3331 459.496 91.6728 459.368C93.0455 458.873 94.687 459.708 96.088 459.142L96.5267 459.34C97.4324 460.585 98.8334 461.548 99.7815 462.736C103.121 466.939 105.98 472.202 108.23 477.098C108.527 477.735 109.673 480.395 109.942 480.692C110.565 481.371 112.235 480.253 113.056 480.239C114.471 480.211 116.31 481.399 117.358 482.305C119.622 484.286 120.627 486.762 122.452 488.687C123.768 490.073 124.108 487.965 124.787 487.017C126.372 484.795 128.254 482.093 130.433 480.466C134.283 477.607 140.056 477.07 143.354 481.003C146.212 484.413 148.009 489.04 151.052 492.337C151.335 492.252 151.816 489.125 152 488.531C153.161 484.81 156.387 479.022 159.387 476.617C160.18 475.98 160.576 475.655 161.354 474.961C163.194 473.32 163.859 472.386 166.619 472.924C167.029 473.009 167.439 473.433 167.807 473.433C168.331 473.419 168.755 472.726 169.491 473.278C170.171 473.787 169.789 474.381 170.043 474.947C170.496 475.952 172.18 477.098 172.109 478.711L172.081 478.683Z" fill="#484645"/>
<path d="M300.816 484.399C301.34 484.3 301.637 483.848 301.906 483.451C304.326 479.9 306.463 476.051 308.557 472.217C308.699 471.948 308.727 471.438 308.812 471.368C308.897 471.283 310.722 470.264 310.892 470.207C312.053 469.811 313.185 470.561 314.09 471.24C317.614 473.914 317.756 478.315 318.987 482.263C319.199 482.39 320.345 481.074 320.487 480.862C321.265 479.772 321.732 478.513 322.779 477.353C325.157 474.707 331.426 470.236 334.879 472.966C335.247 473.249 335.473 473.844 335.855 474.169C338.063 476.136 341.204 478.273 341.785 481.385C341.841 481.668 341.912 484.668 341.87 484.838C341.7 485.659 338.402 488.418 337.567 489.04C336.407 489.918 334.185 491.573 332.968 492.196C331.086 493.158 328.61 493.328 326.657 494.092C326.94 496.823 328.751 499.469 331.468 500.36C336.987 502.157 341.12 498.096 345.804 496.045C346.752 495.634 347.813 495.479 348.761 495.082C349.681 494.686 350.997 493.639 352.186 493.37C354.011 492.96 353.771 494.007 354.323 495.111C354.577 495.62 355.101 495.705 355.016 496.37C354.875 497.375 353.219 497.813 352.724 498.591C352.455 499.002 352.667 499.37 352.511 499.596C351.875 500.502 348.535 502.723 347.459 503.841C342.421 509.006 335.487 509.444 328.709 508.397C326.77 508.1 325.058 506.345 323.473 505.369L321.732 506.841C321.817 506.105 321.364 505.893 320.685 505.751L320.798 506.897C319.383 507.477 319.057 505.822 318.463 505.369C317.954 504.973 316.793 505.369 316.298 504.195L312.18 488.517C311.387 487.951 311.614 484.413 310.34 485.899C309.802 486.522 309.067 488.262 308.515 489.069C307.298 490.809 303.349 495.733 301.623 496.582C300.731 497.021 299.514 497.092 298.566 496.752C297.929 496.526 295.368 495.125 295.014 494.63C293.712 492.833 292.212 488.163 291.943 485.942C291.632 483.211 291.788 479.178 291.887 476.589C291.901 476.178 292.241 473.844 292.368 473.603C292.849 472.669 294.547 471.594 295.623 471.523C297.958 471.396 300.859 474.042 301.085 476.362L300.816 484.385V484.399Z" fill="#484645"/>
<path d="M245.598 493.879C245.739 493.936 246.857 492.21 247.013 491.927C248.329 489.677 249.871 484.244 253.466 485.192C255.376 485.701 257.994 487.965 259.438 489.281C260.103 489.889 261.914 492.125 262.438 492.394C262.707 492.535 262.848 492.564 263.145 492.422C264.136 489.394 264.971 486.012 266.244 483.083C267.759 479.617 269.867 476.461 271.863 473.292C272.188 472.782 272.641 471.424 272.881 471.056C272.966 470.929 275.386 469.754 275.712 469.726C278.089 469.556 282.603 473.914 284.061 475.74C285.844 477.975 288.292 481.753 289.424 484.328C290.09 485.842 290.33 487.739 290.981 489.238C291.335 490.031 291.986 490.455 292.297 491.177C292.75 492.224 292.608 493.384 293.09 494.431C292.057 494.842 291.505 497.247 291.108 497.558C290.712 497.87 290.047 496.455 289.283 496.95C288.646 497.374 289.906 498.62 289.17 498.86C288.193 498.506 287.415 497.813 286.566 497.304C286.113 497.035 285.504 497.063 285.094 496.681C284.004 495.662 283.226 491.898 282.646 490.399C281.754 488.135 280.622 485.135 279.25 483.168C278.867 482.616 277.311 480.777 276.702 480.833C276.136 482.758 274.848 484.413 274.056 486.267C271.976 491.092 270.943 496.639 269.259 501.52C269.032 502.171 267.999 504.421 267.221 504.251L266.386 503.614L266.23 504.93C266.004 505.652 264.546 504.379 263.952 504.138C263.358 503.897 262.353 503.841 261.914 503.586C259.622 502.284 257.796 498.818 255.801 497.106C255.39 496.752 254.937 496.469 254.414 496.299C254.032 496.342 253.324 498.676 253.154 499.186C252.263 501.832 251.739 504.18 250.706 506.869C250.593 507.166 250.48 508.029 250.437 508.072C250.183 508.355 249.617 508.142 249.291 508.298C248.725 508.581 248.782 509.232 247.536 508.737C246.97 508.51 246.786 507.987 246.39 507.845C246.008 507.718 245.442 507.902 244.989 507.789C243.687 507.477 243.376 505.694 242.696 504.633C242.003 503.544 236.597 495.337 236.031 495.408C235.635 495.464 235.55 495.676 235.38 495.974C234.687 497.19 234.192 499.921 233.739 501.393C232.946 503.982 232.097 507.859 230.866 510.109C230.073 511.567 228.998 511.864 227.427 512.189C226.564 511.482 225.078 511.269 224.342 510.534C223.889 510.081 222.573 507.902 222.502 507.35C222.46 507.053 222.927 504.294 223.054 503.869C223.224 503.289 223.635 502.822 223.804 502.284C225.262 497.431 226.819 491.531 228.941 487.031C230.144 484.47 231.63 481.824 234.956 482.758C236.866 483.296 242.173 488.955 243.517 490.724C243.843 491.163 245.315 493.766 245.555 493.851L245.598 493.879Z" fill="#484645"/>
</g>
<defs>
<clipPath id="clip0_21_2">
<rect width="438" height="1138" fill="white"/>
</clipPath>
</defs>
</svg>
