<svg width="82" height="75" viewBox="0 0 82 75" fill="none" xmlns="http://www.w3.org/2000/svg">
<path d="M59.6682 17.4586C58.6465 18.8143 56.9096 20.4615 55.9025 21.963C55.7127 22.2545 55.0413 23.2604 55.6981 23.1875C57.9459 22.9105 61.157 19.6306 63.0107 18.3041C64.9811 16.9047 67.1121 15.7239 69.0826 14.3537C70.3087 13.5082 70.8195 11.9047 72.571 13.0709C72.9213 13.3041 73.0381 13.8289 73.2278 13.9309C73.2862 13.9601 74.1182 14.0038 74.4247 14.2516C75.3005 14.9222 76.1032 15.7531 75.8405 16.9338C75.7967 17.0942 75.4756 17.1379 75.3442 17.3566C74.3955 19.0184 74.016 19.0475 73.0089 20.2429C72.0018 21.4382 72.0894 22.5024 70.2795 24.0475C69.4621 24.7473 66.9078 26.1467 66.4553 26.7589C65.565 27.9688 66.9954 28.0271 67.8857 27.9688C70.0313 27.8376 72.0456 27.0067 74.2058 27.0067C75.9281 27.0067 77.6504 27.4732 79.3873 27.3712C80.4382 27.619 82.3649 31.2487 81.8978 32.065C81.854 32.1379 81.2994 32.3128 81.0513 32.6335C80.6864 33.1292 80.7593 33.8435 80.3069 34.2808C78.4386 36.0884 67.477 37.2837 64.3535 38.1583C64.0616 38.2458 63.7551 38.0126 63.8427 38.5082C63.9448 39.2662 64.9373 39.3828 65.4482 39.7327C70.2941 43.1146 76.0449 45.6073 79.7522 50.4761C80.1901 51.0446 81.5475 53.7997 81.5183 54.3828C81.4891 55.0971 79.5917 57.8668 78.9932 57.9834C77.5482 58.2604 77.125 57.619 76.1032 57.3857C75.534 57.2545 72.9797 56.9193 72.8337 56.8464C72.4543 56.6277 70.1335 53.5811 69.3015 52.8668C66.4553 50.4178 61.989 47.9105 58.6319 46.1175C55.7273 44.5723 52.5308 43.1 49.4802 41.8755C49.5532 43.4061 50.5312 44.5432 51.0128 45.8843C51.8594 48.2312 52.9395 51.6277 53.5233 54.0475C53.9174 55.6948 54.4575 59.9951 54.005 61.5111C53.9612 61.6714 52.3556 64.1059 52.1805 64.2516C50.7355 65.4615 50.0933 64.2079 49.2759 63.9601C48.9694 63.8726 48.4439 64.1059 47.9039 64.0038C44.7658 63.4061 44.3571 56.1904 43.7148 53.8143C43.0726 51.4382 41.4087 47.9105 40.2264 45.7677C40.095 45.5198 40.241 45.2429 39.8031 45.3449C37.4532 48.0854 35.8038 51.3653 33.775 54.3391C33.6144 54.5723 33.3079 54.6306 33.235 54.7473C29.0021 60.826 24.9153 67.6627 19.3104 72.7502C19.0331 73.0126 18.8871 73.4936 18.566 73.756C17.7049 74.4703 16.0993 75.0679 14.9754 74.9222C13.545 74.7472 10.801 73.3916 9.6917 72.4732C9.58953 72.3857 8.59701 71.1758 8.56782 71.0884C8.52403 70.928 8.29049 68.0417 8.30509 67.8668C8.40726 66.8464 11.414 65.17 10.9032 63.6394L9.63332 63.1583C9.99822 62.3566 9.48736 61.0009 10.7718 61.03L11.7935 62.0942L11.9979 60.6656C12.3774 60.4324 12.9612 60.651 13.3845 60.5636C13.4866 60.549 13.837 59.8347 14.3624 59.7327C14.8003 59.6452 15.1652 59.9368 15.5009 59.8056C16.0847 59.5723 16.7269 58.2021 17.1648 57.7502C18.4931 56.3653 18.712 56.2779 19.8943 54.6015C22.2296 51.307 24.9445 48.0271 27.0609 44.3974C27.2214 44.1058 27.7761 44.1059 27.4842 43.1438C25.1342 43.4499 22.7697 43.7123 20.4197 44.033C16.2599 44.6015 10.042 46.1467 6.02812 45.7531C2.01424 45.3595 -0.613031 43.2895 0.116766 39.0184C0.394089 37.3566 1.4158 37.4295 1.89747 36.6714C2.18939 36.2196 2.05803 35.1263 2.67106 34.8347C3.21111 34.5723 4.21823 34.8056 4.90423 34.6744C7.70666 34.1787 10.8594 32.444 13.9391 31.9484C16.2453 31.584 19.0915 32.0359 21.0619 31.6714C22.4194 31.4236 23.9227 29.412 25.5429 29.7181C25.6305 29.1204 25.4699 29.3828 25.2218 29.2808C21.5436 27.8085 17.7049 26.8901 14.0705 25.4032C13.1509 25.0242 12.2168 24.2371 11.3994 23.9455C10.9032 23.7706 10.2609 23.9018 9.80847 23.6394C9.7063 23.5811 8.21751 21.8464 8.17373 21.7298C7.99857 21.1321 8.18832 20.2866 8.11534 19.6161C8.02777 18.9018 7.96938 18.1438 7.86721 17.4732C7.77963 16.8755 6.36383 15.3887 7.06443 14.9513C7.41474 14.7181 8.91812 15.3158 9.53115 15.3741C10.8448 15.4907 12.0854 15.1117 13.2239 15.1408C16.5956 15.2429 23.587 18.5373 26.9003 19.9951C28.0534 20.5053 29.1627 21.5403 30.5493 21.4528C30.7536 21.2633 29.7027 19.4411 29.5714 19.0621C28.6518 16.4091 27.4258 12.8085 26.7398 10.1408C26.0538 7.4732 26.2727 6.55484 27.7615 4.41198C28.0534 3.98924 28.7978 3.44988 28.9146 3.17291C29.2211 2.48778 28.827 1.35076 29.4546 0.651047L32.5781 1.01548C33.3955 1.65688 34.2275 2.57525 35.074 3.39157C35.7163 4.00382 37.2197 5.17 37.7451 5.89886C38.9274 7.54609 38.0808 8.23122 38.4457 9.77641C38.5333 10.17 38.8836 10.4032 39.0004 10.7531C39.628 12.8085 39.9783 15.17 40.7081 17.1379C41.073 18.1292 41.6714 19.4266 42.3282 20.272L41.8758 20.5053C42.2115 21.4528 41.8612 22.5024 43.1894 22.5607C42.9413 21.6131 43.4813 21.7735 43.7294 21.4674C45.1452 19.7473 46.3421 18.4061 47.6266 16.6569C50.4436 12.7939 53.3482 8.98924 56.4717 5.4907C57.654 4.16417 59.8288 1.49653 61.3321 0.767665C62.8355 0.0388024 64.4995 -0.354783 66.105 0.432388C67.0392 0.898861 66.6451 1.19041 66.9516 1.74434C67.2873 2.35659 67.9295 2.54609 67.7981 3.50819C67.7544 3.78516 66.8202 5.82597 66.6159 6.26329C66.3823 6.74434 65.9299 7.00673 65.7693 7.34201C64.0032 10.7968 62.0765 14.3099 59.6682 17.5024V17.4586Z" fill="#FFF4EA"/>
</svg>
